<svg xmlns="http://www.w3.org/2000/svg" width="600.256" height="404.719" viewBox="0 0 600.256 404.719"><g id="Group_59" data-name="Group 59" transform="translate(-843.999 -421.686)"><g id="Group_58" data-name="Group 58" transform="translate(843.999 421.686)"><g id="Group_4" data-name="Group 4" transform="translate(0 0)"><path id="Path_2" data-name="Path 2" d="M357.6,536.4c-34.1-1.565-67.58-16.04-83.946-40.921-15.135-23.011-17.948-58.655-11.177-84.262,5.686-21.5,21.927-40.1,40.451-55.857,37.424-31.828,85.646-54.914,117.276-90.812,17.578-19.951,29.277-43.074,46.18-63.424,32.868-39.57,87.293-67.646,145.164-69.365s117.12,25.294,141.165,69.018c20.685,37.611,15.293,83.2,40.76,118.728,11.706,16.333,29.158,29.307,42.015,45.031,22.878,27.981,29.791,64.558,18.335,97.011s-41.058,60.148-78.513,73.458" transform="translate(-258.999 -131.686)" fill="#fae1c7" opacity="0.31"></path><path id="Path_3" data-name="Path 3" d="M692.564,495.347c23.785-1.031,47.134-10.571,58.547-26.969,10.557-15.166,12.518-38.657,7.8-55.533-3.965-14.171-15.293-26.431-28.213-36.814-26.1-20.976-59.733-36.192-81.793-59.85-12.261-13.148-26.929-43.52-38.719-56.932-22.922-26.078-50.14-43.2-90.29-47.475-51.766-5.507-86.129,33.562-102.9,62.377-14.427,24.789-10.666,54.832-28.428,78.25-8.164,10.763-20.336,19.314-29.3,29.678-15.958,18.442-20.779,42.548-12.79,63.935s28.636,39.642,54.759,48.413" transform="translate(-219.092 -93.744)" fill="#ffb56a" opacity="0.31"></path></g><path id="Path_4" data-name="Path 4" d="M336.356,389.907l-.749,5.81a6.507,6.507,0,0,0,4.649-1.833,1.764,1.764,0,0,0,.334-1.811C340.116,390.719,338.2,390.133,336.356,389.907Z" transform="translate(-222.467 -8.549)" fill="none"></path><g id="Group_6" data-name="Group 6" transform="translate(98.099 275.238)"><g id="Group_5" data-name="Group 5" transform="translate(0 76.409)"><path id="Path_5" data-name="Path 5" d="M370.625,385.694c-1.766-5.036-7-6.968-11.676-7.677-10.235,16-23.02,19.2-30.022,19.617l2.037,11.994h23.064l1.233-9.574c5.845-.1,11.02-2.106,13.791-5.526A8.915,8.915,0,0,0,370.625,385.694Zm-6,5.244c-1.375,1.7-4.435,3.177-8.625,3.4l1.388-10.78c3.426.417,6.977,1.5,7.857,4.02A3.269,3.269,0,0,1,364.623,390.938Z" transform="translate(-323.751 -365.865)" fill="#e57d13"></path><path id="Path_6" data-name="Path 6" d="M360.62,381.941c-.278-.043-.56-.1-.832-.13l1.394-10.816a1.069,1.069,0,0,0-1.06-1.205H326.615a1.192,1.192,0,0,0-1.176,1.391l5.159,30.378C337.6,401.137,350.385,397.945,360.62,381.941Z" transform="translate(-325.423 -369.789)" fill="#f79633"></path></g><path id="Path_7" data-name="Path 7" d="M341.747,389.968c-3.332-1.771-6.511-8.154-7.823-11.1s-1.694-6.486-.239-9.371c1.229-2.437,3.583-4.115,5.049-6.415a10.413,10.413,0,0,0,1.279-8.109c-1-3.84-4.149-6.9-4.871-10.8-.846-4.575,1.814-8.974,2.979-13.479a21.507,21.507,0,0,0-.6-12.635c3.251,1.93,5.194,5.417,6.987,8.745,1.638,3.038,3.324,6.287,3.087,9.728a22.609,22.609,0,0,1-1.812,6.227c-1.376,3.679-2.316,7.717-1.335,11.52,1.483,5.751,7.148,10.247,6.925,16.181-.131,3.516-2.41,6.637-5.157,8.835-1.79,1.433-3.858,2.629-5.113,4.546s-1.3,4.917.642,6.136" transform="translate(-321.927 -318.052)" fill="#fff"></path></g><g id="Group_18" data-name="Group 18" transform="translate(307.702 149.88)"><path id="Path_8" data-name="Path 8" d="M482.389,248.971a77.565,77.565,0,0,0-5.7,18.318c-.992,6.148-1.335,12.415-2.864,18.451a79.47,79.47,0,0,1-6.029,15.337,3.314,3.314,0,0,0-.446,1.424,3.207,3.207,0,0,0,1.638,2.3,44.4,44.4,0,0,0,42.424,5.051" transform="translate(-467.347 -225.636)" fill="#4b3c51"></path><ellipse id="Ellipse_1" data-name="Ellipse 1" cx="11.843" cy="14.725" rx="11.843" ry="14.725" transform="translate(0 35.349)" fill="#00b7d8"></ellipse><ellipse id="Ellipse_2" data-name="Ellipse 2" cx="11.843" cy="14.725" rx="11.843" ry="14.725" transform="translate(5.572 37.433)" fill="#04a2bc"></ellipse><path id="Path_9" data-name="Path 9" d="M508.438,306.967l-24.714-51.845c-2.734,9.109-5.469,18.219-8.052,27.374a51.394,51.394,0,0,0-1.989,9.267,26.448,26.448,0,0,0,.561,8.251,15.426,15.426,0,0,0,3.493,7.191,12.239,12.239,0,0,0,1.085.966A44.242,44.242,0,0,0,508.438,306.967Z" transform="translate(-464.376 -222.703)" fill="#3e3244"></path><path id="Path_10" data-name="Path 10" d="M494.924,293.262c1.117,6.293,2.041,13.437-1.865,18.5-.857,1.109-1.972,2.192-2.032,3.592-.081,1.836,1.672,3.184,3.316,4.007a26.19,26.19,0,0,0,20.682,1.071,3.346,3.346,0,0,0,1.489-.908c.836-1.034.3-2.553-.214-3.781a45.575,45.575,0,0,1,.363-35.618" transform="translate(-456.056 -210.782)" fill="#e8a17e"></path><path id="Path_11" data-name="Path 11" d="M493.286,289.32a37.513,37.513,0,0,1,1.326,13.2.551.551,0,0,0,.08.443c.142.154.393.093.589.022a18.39,18.39,0,0,0,4.193-1.926,18.727,18.727,0,0,0,5.779-6.507,19.3,19.3,0,0,0,2-10.012" transform="translate(-454.978 -208.672)" fill="#d88d6c"></path><path id="Path_12" data-name="Path 12" d="M485.576,249.55c-4.485,5.01-5.532,12.143-6.123,18.842a77.5,77.5,0,0,0,0,17.734,32.335,32.335,0,0,0,6.692,16.222,24.9,24.9,0,0,0,5.585,4.95,14.279,14.279,0,0,0,4.689,2.088c3.2.687,6.5-.23,9.616-1.239,7.09-2.3,14.391-5.405,18.767-11.438,5.7-7.863,9.474-28.548,10.955-38.147" transform="translate(-461.821 -225.36)" fill="#e8a17e"></path><path id="Path_13" data-name="Path 13" d="M477.381,253.87a48.111,48.111,0,0,0,23.507,11.016,82.694,82.694,0,0,0,15.2.74,26.3,26.3,0,0,0,5.67-.552,10.385,10.385,0,0,0,6.4-4.312,7,7,0,0,0,.1-7.477" transform="translate(-462.562 -223.579)" fill="#d88d6c"></path><path id="Path_14" data-name="Path 14" d="M535.4,237.25c-12.641-6.111-30.942-4.846-40.14.418s-13.008,9.976-17.81,20.945c-.286.656-1.946,4.691-1.7,5.361a1.923,1.923,0,0,0,1.233,1.286c11.36,4.336,21.35,5.119,33.494,5.718a42.359,42.359,0,0,0,12.084-.747c5.569,18.657,2.667,32.03-6.608,49.15,6.037,2.546,29.514,4.011,40.685-4.643a26.727,26.727,0,0,0,7.265-8.07c4.441-8.108,2.534-18.1.12-27.03-1.8-6.643-3.834-13.279-7.1-19.337C551.913,251,545.1,241.439,535.4,237.25" transform="translate(-463.352 -233.171)" fill="#4b3c51"></path><path id="Path_15" data-name="Path 15" d="M486.15,277.385c.922,2.849,1.982,5.476,4.5,7.09a9.009,9.009,0,0,0,8.53.155c2.688-1.26,5.246-4.416,7.127-6.712a77.875,77.875,0,0,1-20.161-.533" transform="translate(-458.38 -212.086)" fill="#fff"></path><path id="Path_16" data-name="Path 16" d="M530.524,297.967a5.743,5.743,0,0,1-1.827-2.258c-.715-1.765-.093-3.753.455-5.577a29.653,29.653,0,0,0,1.53-9.507,14,14,0,0,0-3.276-8.894c-3.125-3.469-8.036-4.569-12.614-5.487l-2.884-.577c1.712,13.375-1.551,24.636-8.909,38.217,6.037,2.546,29.514,4.011,40.685-4.643.409-.316.8-.66,1.193-.994a16.4,16.4,0,0,1-2.109,1.065C538.764,300.874,533.892,300.639,530.524,297.967Z" transform="translate(-450.345 -217.674)" fill="#3e3244"></path><g id="Group_7" data-name="Group 7" transform="translate(32.803 46.627)"><path id="Path_17" data-name="Path 17" d="M495.756,266.586a5.608,5.608,0,0,0-5.591-.049l-.607-.894a6.629,6.629,0,0,1,6.7-.01Z" transform="translate(-489.558 -264.742)" fill="#161119"></path></g><g id="Group_8" data-name="Group 8" transform="translate(58.787 47.043)"><path id="Path_18" data-name="Path 18" d="M509.975,266.152l-2.823-.049v-1.079h2.675Z" transform="translate(-507.152 -265.024)" fill="#161119"></path></g><path id="Path_19" data-name="Path 19" d="M492.395,267.31l-3.419,10.476,5.383.436" transform="translate(-457.033 -216.891)" fill="#d88d6c"></path><g id="Group_9" data-name="Group 9" transform="translate(45.067 39.317)"><path id="Path_20" data-name="Path 20" d="M498.835,262.562a6.45,6.45,0,0,1,.679-.356c.139-.065.279-.127.419-.188l-.154.066c.351-.149.71-.281,1.074-.4a13.316,13.316,0,0,1,1.369-.357q.448-.091.9-.152l-.173.024a12.832,12.832,0,0,1,2.608-.083c.269.018.538.046.8.081l-.173-.022a13.056,13.056,0,0,1,2.586.626c.258.092.512.191.765.3l-.155-.065a15.333,15.333,0,0,1,2.676,1.475.655.655,0,0,0,.5.065.646.646,0,0,0,.452-.8.719.719,0,0,0-.3-.387,15.156,15.156,0,0,0-4.323-2.072,13.454,13.454,0,0,0-3.886-.529,13.817,13.817,0,0,0-3.2.419,13.589,13.589,0,0,0-2.243.781,7.467,7.467,0,0,0-.874.445l-.012.006a.682.682,0,0,0-.3.387.661.661,0,0,0,.065.5.653.653,0,0,0,.387.3.669.669,0,0,0,.5-.066Z" transform="translate(-497.862 -259.792)" fill="#3e3244"></path></g><g id="Group_10" data-name="Group 10" transform="translate(16.825 38.156)"><path id="Path_21" data-name="Path 21" d="M490.532,263.015a6.4,6.4,0,0,0-.6-.474c-.124-.09-.251-.177-.38-.261l.14.093q-.479-.315-.984-.585a13.149,13.149,0,0,0-1.282-.6c-.281-.114-.567-.219-.855-.313l.165.053a12.981,12.981,0,0,0-2.549-.557c-.269-.03-.538-.052-.808-.065l.174.009a13.006,13.006,0,0,0-2.657.146c-.27.041-.538.093-.8.152l.164-.037c-1,.222.329.9-1.5.418a3.942,3.942,0,0,1,2.788-1.921,13.4,13.4,0,0,1,3.917.188,13.653,13.653,0,0,1,5.129,2.17,7.467,7.467,0,0,1,.78.6l.01.009a.678.678,0,0,1,.221.434.661.661,0,0,1-.155.478.65.65,0,0,1-.434.223.663.663,0,0,1-.479-.155Z" transform="translate(-478.739 -259.007)" fill="#3e3244"></path></g><path id="Path_22" data-name="Path 22" d="M498.581,267.133s3.128-4.488,7.711-.638" transform="translate(-452.453 -218.023)" fill="none" stroke="#3e3244" stroke-miterlimit="10" stroke-width="5"></path><path id="Path_23" data-name="Path 23" d="M480.416,266.478s3.128-4.488,7.712-.638" transform="translate(-461.115 -218.336)" fill="none" stroke="#3e3244" stroke-miterlimit="10" stroke-width="5"></path><circle id="Ellipse_3" data-name="Ellipse 3" cx="4.627" cy="4.627" r="4.627" transform="translate(49.984 54.228)" fill="#f27b53" opacity="0.45"></circle><circle id="Ellipse_4" data-name="Ellipse 4" cx="3.9" cy="3.9" r="3.9" transform="translate(17.415 53.156)" fill="#f27b53" opacity="0.45"></circle><g id="Group_11" data-name="Group 11" transform="translate(13.029 38.155)"><path id="Path_24" data-name="Path 24" d="M486.4,279.461a10.227,10.227,0,1,1,10.227-10.227A10.238,10.238,0,0,1,486.4,279.461Zm0-19.275a9.048,9.048,0,1,0,9.047,9.047A9.06,9.06,0,0,0,486.4,260.186Z" transform="translate(-476.169 -259.006)" fill="#161119"></path></g><g id="Group_12" data-name="Group 12" transform="translate(38.757 38.155)"><path id="Path_25" data-name="Path 25" d="M503.816,279.461a10.227,10.227,0,1,1,10.227-10.227A10.238,10.238,0,0,1,503.816,279.461Zm0-19.275a9.048,9.048,0,1,0,9.049,9.047A9.059,9.059,0,0,0,503.816,260.186Z" transform="translate(-493.59 -259.006)" fill="#161119"></path></g><g id="Group_15" data-name="Group 15" transform="translate(34.62 62.985)"><g id="Group_13" data-name="Group 13" transform="translate(0 12.122)"><ellipse id="Ellipse_5" data-name="Ellipse 5" cx="3.559" cy="2.783" rx="3.559" ry="2.783" transform="translate(0 0.684) rotate(-5.513)" fill="#161119"></ellipse></g><g id="Group_14" data-name="Group 14" transform="translate(5.438)"><path id="Path_26" data-name="Path 26" d="M499.284,291.6a35.328,35.328,0,0,1-4.813.139l.059-1.534c18.541.74,32.8-14.237,32.94-14.389l1.121,1.05C528.457,277.013,516.117,289.978,499.284,291.6Z" transform="translate(-494.471 -275.818)" fill="#161119"></path></g></g><g id="Group_17" data-name="Group 17" transform="translate(9.427 0.755)"><g id="Group_16" data-name="Group 16"><path id="Path_27" data-name="Path 27" d="M477.084,269.286c1.483-10.391,6.928-21.835,15.848-27.71,7.99-5.262,18.678-5.6,27.483-2.22,7.585,2.909,12.608,9.394,15.083,16.953,2.109,6.438,2.393,13.052,2.883,19.741.161,2.206,3.62,2.224,3.457,0-.467-6.367-.727-12.708-2.469-18.9-2.27-8.056-6.916-15.455-14.445-19.5a35.024,35.024,0,0,0-30.09-1.084c-7.526,3.453-13.027,10.181-16.52,17.538a50.5,50.5,0,0,0-4.564,14.264c-.31,2.177,3.02,3.118,3.333.92Z" transform="translate(-473.73 -233.682)" fill="#00b7d8"></path></g><ellipse id="Ellipse_6" data-name="Ellipse 6" cx="11.843" cy="14.725" rx="11.843" ry="14.725" transform="translate(52.663 38.747)" fill="#00b7d8"></ellipse><ellipse id="Ellipse_7" data-name="Ellipse 7" cx="11.251" cy="13.989" rx="11.251" ry="13.989" transform="translate(55.12 39.483)" fill="#04a2bc"></ellipse></g></g><g id="Group_38" data-name="Group 38" transform="translate(149.885 43.496)"><g id="Group_21" data-name="Group 21" transform="translate(251.363 45.096)"><rect id="Rectangle_6" data-name="Rectangle 6" width="72.106" height="48.311" rx="4.762" transform="translate(1.694 1.623)" fill="#26476d" opacity="0.07"></rect><g id="Group_20" data-name="Group 20"><rect id="Rectangle_7" data-name="Rectangle 7" width="72.106" height="48.311" rx="4.762" fill="#fff"></rect><g id="Group_19" data-name="Group 19" transform="translate(26.042 7.792)"><path id="Path_28" data-name="Path 28" d="M563.223,198a8.519,8.519,0,0,1,3.472,2.915,7.21,7.21,0,0,1,1.264,4.137,7.408,7.408,0,0,1-.579,3.022,8.312,8.312,0,0,1-1.415,2.23,23.053,23.053,0,0,1-2.208,2.078,17.669,17.669,0,0,0-2.744,2.83,5.127,5.127,0,0,0-.9,3.087v.6a1.173,1.173,0,0,1-1.159,1.158h-1.585a1.17,1.17,0,0,1-1.158-1.158V218a7.145,7.145,0,0,1,.6-3.022,8.25,8.25,0,0,1,1.435-2.209q.835-.9,2.249-2.186a17.8,17.8,0,0,0,2.679-2.722,4.563,4.563,0,0,0,.88-2.808,3.773,3.773,0,0,0-1.716-3.258,7,7,0,0,0-4.113-1.2,6.263,6.263,0,0,0-3.861,1.158,6.1,6.1,0,0,0-2.141,3.558,1.138,1.138,0,0,1-.408.687,1.107,1.107,0,0,1-.707.257h-1.843a.98.98,0,0,1-.687-.279.748.748,0,0,1-.255-.665,8.818,8.818,0,0,1,4.608-7.116,10.626,10.626,0,0,1,5.295-1.244A11.49,11.49,0,0,1,563.223,198ZM560.2,227.041a1.118,1.118,0,0,1-.815.343h-2.443a1.172,1.172,0,0,1-1.159-1.156v-2.444a1.172,1.172,0,0,1,1.159-1.158h2.443a1.167,1.167,0,0,1,1.156,1.158v2.444A1.112,1.112,0,0,1,560.2,227.041Z" transform="translate(-548.321 -196.948)" fill="#ffce45"></path></g></g></g><g id="Group_28" data-name="Group 28" transform="translate(104.844)"><path id="Path_29" data-name="Path 29" d="M497.436,162.2H439.965a7.318,7.318,0,0,0-7.318,7.318v33.675a7.318,7.318,0,0,0,7.318,7.318h40.763l15.444,10.961V210.51h1.264a7.318,7.318,0,0,0,7.318-7.318V169.517A7.318,7.318,0,0,0,497.436,162.2Z" transform="translate(-430.921 -160.631)" fill="#26476d" opacity="0.07"></path><g id="Group_27" data-name="Group 27"><path id="Path_30" data-name="Path 30" d="M496.267,161.137H438.8a7.317,7.317,0,0,0-7.318,7.318V202.13a7.317,7.317,0,0,0,7.318,7.318h40.763L495,220.409V209.448h1.264a7.318,7.318,0,0,0,7.318-7.318V168.455A7.318,7.318,0,0,0,496.267,161.137Z" transform="translate(-431.478 -161.137)" fill="#fff"></path><g id="Group_26" data-name="Group 26" transform="translate(7.001 5.538)"><path id="Path_31" data-name="Path 31" d="M436.6,164.887" transform="translate(-436.038 -164.887)" fill="#ffce45"></path><g id="Group_22" data-name="Group 22" transform="translate(0 6.935)"><path id="Path_32" data-name="Path 32" d="M493.767,169.583H436.775a.576.576,0,0,0,0,1.152h56.992a.576.576,0,0,0,0-1.152Z" transform="translate(-436.218 -169.583)" fill="#ffce45"></path></g><g id="Group_23" data-name="Group 23" transform="translate(0 14.447)"><path id="Path_33" data-name="Path 33" d="M493.767,174.669H436.775a.576.576,0,0,0,0,1.152h56.992a.576.576,0,0,0,0-1.152Z" transform="translate(-436.218 -174.669)" fill="#ffce45"></path></g><g id="Group_24" data-name="Group 24" transform="translate(0 21.957)"><path id="Path_34" data-name="Path 34" d="M476.742,179.754H436.775a.577.577,0,0,0,0,1.153h39.967a.577.577,0,0,0,0-1.153Z" transform="translate(-436.218 -179.754)" fill="#ffce45"></path></g><g id="Group_25" data-name="Group 25" transform="translate(0 29.468)"><path id="Path_35" data-name="Path 35" d="M476.742,184.84H436.775a.577.577,0,0,0,0,1.153h39.967a.577.577,0,0,0,0-1.153Z" transform="translate(-436.218 -184.84)" fill="#ffce45"></path></g></g></g></g><g id="Group_35" data-name="Group 35" transform="translate(97.368 60.575)"><path id="Path_36" data-name="Path 36" d="M469.264,202.843H431.929a4.753,4.753,0,0,0-4.753,4.754v21.877a4.753,4.753,0,0,0,4.753,4.754H458.41l10.032,7.121v-7.121h.821a4.754,4.754,0,0,0,4.754-4.754V207.6A4.754,4.754,0,0,0,469.264,202.843Z" transform="translate(-426.054 -201.824)" fill="#26476d" opacity="0.07"></path><g id="Group_34" data-name="Group 34"><path id="Path_37" data-name="Path 37" d="M468.505,202.153H431.17a4.755,4.755,0,0,0-4.754,4.754v21.877a4.754,4.754,0,0,0,4.754,4.754h26.482l10.032,7.121v-7.121h.821a4.753,4.753,0,0,0,4.753-4.754V206.907A4.754,4.754,0,0,0,468.505,202.153Z" transform="translate(-426.416 -202.153)" fill="#fff"></path><g id="Group_33" data-name="Group 33" transform="translate(4.547 3.599)"><path id="Path_38" data-name="Path 38" d="M429.74,204.59" transform="translate(-429.378 -204.59)" fill="#ffce45"></path><g id="Group_29" data-name="Group 29" transform="translate(0 4.504)"><path id="Path_39" data-name="Path 39" d="M466.88,207.64H429.857a.375.375,0,0,0,0,.749H466.88a.375.375,0,0,0,0-.749Z" transform="translate(-429.495 -207.64)" fill="#ffce45"></path></g><g id="Group_30" data-name="Group 30" transform="translate(0 9.384)"><path id="Path_40" data-name="Path 40" d="M466.88,210.944H429.857a.375.375,0,0,0,0,.749H466.88a.375.375,0,0,0,0-.749Z" transform="translate(-429.495 -210.944)" fill="#ffce45"></path></g><g id="Group_31" data-name="Group 31" transform="translate(0 14.264)"><path id="Path_41" data-name="Path 41" d="M455.822,214.248H429.857a.375.375,0,0,0,0,.749h25.965a.375.375,0,0,0,0-.749Z" transform="translate(-429.495 -214.248)" fill="#ffce45"></path></g><g id="Group_32" data-name="Group 32" transform="translate(0 19.143)"><path id="Path_42" data-name="Path 42" d="M455.822,217.552H429.857a.375.375,0,0,0,0,.749h25.965a.375.375,0,0,0,0-.749Z" transform="translate(-429.495 -217.552)" fill="#ffce45"></path></g></g></g></g><g id="Group_37" data-name="Group 37" transform="translate(0 113.689)"><rect id="Rectangle_8" data-name="Rectangle 8" width="72.106" height="48.311" rx="4.762" transform="translate(2.14 1.917)" fill="#26476d" opacity="0.07"></rect><g id="Group_36" data-name="Group 36"><rect id="Rectangle_9" data-name="Rectangle 9" width="72.106" height="48.311" rx="4.762" fill="#fff"></rect><path id="Path_43" data-name="Path 43" d="M380.982,248.122c.514,5.469,6.352,4.6,6.352,4.6,3.565.521,3.032,8.325,3.032,8.325s-.38,7.813-3.982,7.916c0,0-5.7-1.539-6.844,3.832s2.091,8.121,7.371,7.758c0,0,7.315-.71,8.4-19.387.6-18.929-6.11-19.895-6.11-19.895C384.005,240.3,380.469,242.654,380.982,248.122Z" transform="translate(-351.511 -236.713)" fill="#ffce45"></path></g></g></g><g id="Group_49" data-name="Group 49" transform="translate(403.843 231.326)"><g id="Group_40" data-name="Group 40" transform="translate(0 6.145)"><path id="Path_44" data-name="Path 44" d="M540.583,450c17.288-8.458,29.251-24.578,38.481-41.15,16.745-30.063,26.845-64.854,21.24-98.625-1.1-6.624-3.5-14.03-9.8-16.742a14.335,14.335,0,0,0-9.551-.353c-6.16,1.781-10.927,6.755-13.8,12.36s-4.1,11.85-5.247,18.015c-8.135,43.667-13.881,88.114-29.463,129.813" transform="translate(-532.445 -292.48)" fill="#f79633"></path><path id="Path_45" data-name="Path 45" d="M535.923,440.223c13.375-6.218,28.687-25.284,36.118-38.014,13.482-23.094,23.479-47.071,20.022-73.558-.678-5.2-2.331-11.031-7.062-13.289a10.685,10.685,0,0,0-7.269-.489c-4.736,1.252-8.488,5.03-10.809,9.341s-3.409,9.16-4.432,13.945c-7.25,33.906-12.7,68.476-25.573,100.679" transform="translate(-530.786 -281.997)" fill="#345d95" opacity="0.11"></path><g id="Group_39" data-name="Group 39" transform="translate(0.457 19.009)"><path id="Path_46" data-name="Path 46" d="M584.447,305.529c-1.43,10.45-2.921,20.893-4.723,31.289-1.789,10.309-3.881,20.573-6.517,30.708a209.162,209.162,0,0,1-9.05,27.523,200.67,200.67,0,0,1-12.893,25.708,178.25,178.25,0,0,1-16.228,23.106q-1.1,1.32-2.232,2.618c-.161.183.111.449.272.264a173.638,173.638,0,0,0,16.579-22.6,196.366,196.366,0,0,0,22.9-52.689c2.8-10.187,5.018-20.518,6.9-30.9,1.88-10.4,3.422-20.855,4.871-31.318q.257-1.85.51-3.7c.032-.238-.353-.236-.385,0Z" transform="translate(-532.755 -305.352)" fill="#fff"></path></g></g><g id="Group_42" data-name="Group 42" transform="translate(14.882 127.092)"><path id="Path_47" data-name="Path 47" d="M542.522,409.068a250.889,250.889,0,0,0,40.3,5.931c22.134,1.283,49.259.48,66.836-13.035,5.7-4.383,10.678-11.564,8.347-18.366-1.481-4.321-5.665-7.285-10.081-8.451s-9.08-.8-13.618-.282a205.127,205.127,0,0,0-91.787,34.2" transform="translate(-542.522 -374.374)" fill="#f79633"></path><path id="Path_48" data-name="Path 48" d="M545.9,405.413a205.075,205.075,0,0,0,31.271,4.295c17.176.91,38.229.279,51.89-9.668,4.431-3.227,8.3-8.505,6.5-13.5-1.142-3.169-4.385-5.339-7.811-6.188s-7.045-.577-10.568-.188A165.46,165.46,0,0,0,545.9,405.413" transform="translate(-540.912 -371.788)" fill="#345d95" opacity="0.11"></path><g id="Group_41" data-name="Group 41" transform="translate(0.463 15.396)"><path id="Path_49" data-name="Path 49" d="M639.7,384.8q-9.229,2.085-18.464,4.153-9.439,2.1-18.9,4.125-9.53,2.027-19.091,3.908-9.5,1.857-19.046,3.5-9.415,1.608-18.879,2.92-1.143.157-2.289.309c-.273.035-.261.468.015.431q9.419-1.245,18.793-2.827,9.515-1.588,18.988-3.428,9.568-1.843,19.1-3.863t19.028-4.126q9.313-2.067,18.619-4.18l2.254-.51c.272-.061.142-.473-.128-.412Z" transform="translate(-542.835 -384.799)" fill="#fff"></path></g></g><g id="Group_44" data-name="Group 44" transform="translate(9.383 31.562)"><path id="Path_50" data-name="Path 50" d="M538.937,438.111c25.124-1.313,53.152-16.225,73.279-31.32,13.248-9.935,26.333-20.477,36.117-33.838a95.089,95.089,0,0,0,16.362-36.91c1.787-8.709,1.478-19.527-6.033-24.281-4.056-2.568-9.353-2.576-13.877-.969s-8.389,4.652-11.895,7.931c-9.994,9.349-17.656,20.858-25.44,32.113-20.273,29.307-45.442,60.116-68.513,87.274" transform="translate(-538.732 -309.69)" fill="#f79633" opacity="0.3"></path><path id="Path_51" data-name="Path 51" d="M543.526,424.783c19.406-.967,41.052-11.949,56.6-23.066,10.232-7.316,20.339-15.08,27.9-24.919a68.439,68.439,0,0,0,12.637-27.182c1.381-6.414,1.143-14.38-4.66-17.883-3.132-1.89-7.223-1.9-10.718-.712a27.308,27.308,0,0,0-9.186,5.84c-7.719,6.885-13.637,15.361-19.65,23.65-15.658,21.583-35.1,44.271-52.917,64.272" transform="translate(-536.544 -299.906)" fill="#345d95" opacity="0.11"></path><g id="Group_43" data-name="Group 43" transform="translate(0 23.016)"><path id="Path_52" data-name="Path 52" d="M648.959,325.347l-22.085,26.987c-6.534,7.984-13.019,16.012-19.688,23.882-6.141,7.247-12.462,14.351-19.192,21.059a175.154,175.154,0,0,1-21.379,18.387,115.34,115.34,0,0,1-24.445,13.587q-1.6.638-3.224,1.221c-.26.093-.148.511.115.417a111.992,111.992,0,0,0,24.757-12.75,164.176,164.176,0,0,0,21.68-17.812c6.882-6.625,13.321-13.7,19.546-20.937,6.568-7.64,12.908-15.472,19.288-23.268l22.154-27.071,2.778-3.4c.174-.213-.13-.52-.306-.306Z" transform="translate(-538.798 -325.275)" fill="#fff"></path></g></g><g id="Group_46" data-name="Group 46" transform="translate(90.157 72.054)" opacity="0.38"><g id="Group_45" data-name="Group 45" transform="translate(0 6.63)"><path id="Path_53" data-name="Path 53" d="M593.969,397.65a47.518,47.518,0,0,0,13.8-7.5c2.245-1.641,4.438-3.351,6.64-5.048,2.409-1.855,4.81-3.72,7.185-5.619q6.772-5.419,13.253-11.184,6.5-5.786,12.7-11.906t12.06-12.555q.709-.78,1.416-1.564c.334-.372-.213-.926-.548-.552q-5.78,6.42-11.886,12.537t-12.521,11.9q-6.413,5.789-13.122,11.237c-4.567,3.708-9.223,7.315-13.921,10.855-4.171,3.143-8.538,6.181-13.457,8.028q-.895.337-1.811.617c-.477.148-.273.9.207.75Z" transform="translate(-593.491 -341.597)" fill="#f79633"></path></g><path id="Path_54" data-name="Path 54" d="M637.793,345.873a10.493,10.493,0,0,1,5.2-8.112c1.173-.656,2.776-1.019,3.757-.1a2.522,2.522,0,0,1,.427,2.756,6.1,6.1,0,0,1-1.876,2.258,22.868,22.868,0,0,1-7.668,4.193" transform="translate(-572.44 -337.108)" fill="#f79633"></path><path id="Path_55" data-name="Path 55" d="M636.409,349.111a6.281,6.281,0,0,1-2.335-4.276,7.965,7.965,0,0,1-.018-3.5,3.8,3.8,0,0,1,2.159-2.623,1.017,1.017,0,0,1,.523-.084.985.985,0,0,1,.456.241,3.309,3.309,0,0,1,1.072,2.282,7.922,7.922,0,0,1-.309,2.559,27.382,27.382,0,0,1-2.048,5.549" transform="translate(-574.237 -336.385)" fill="#f79633"></path><path id="Path_56" data-name="Path 56" d="M632.016,353.972a3.86,3.86,0,0,1-1.456-1.083c-1.159-1.19-2.379-2.5-2.6-4.148a6.106,6.106,0,0,1,.276-2.484,4.933,4.933,0,0,1,2.153-3.171,1.827,1.827,0,0,1,1.26-.214,1.73,1.73,0,0,1,1.12,1.065,4.292,4.292,0,0,1,.241,1.574,27.908,27.908,0,0,1-.99,8.461" transform="translate(-577.074 -334.377)" fill="#f79633"></path><path id="Path_57" data-name="Path 57" d="M626.851,359.808c-.149.131-.381.015-.539-.106a11.885,11.885,0,0,1-3.531-4.149,7.916,7.916,0,0,1-.656-5.345,3.053,3.053,0,0,1,1.342-2.019,2.521,2.521,0,0,1,2.9.659,5.244,5.244,0,0,1,1.187,2.92c.39,2.846-.258,5.72-.9,8.519" transform="translate(-579.936 -331.931)" fill="#f79633"></path><path id="Path_58" data-name="Path 58" d="M620.921,366.188a4.776,4.776,0,0,1-1.992-1.592,14.611,14.611,0,0,1-3.171-5.417,6.741,6.741,0,0,1,1-6,2.533,2.533,0,0,1,2.17-1.085,2.57,2.57,0,0,1,1.56,1.04c1.638,2.045,1.691,4.917,1.431,7.525a43.386,43.386,0,0,1-.765,4.852" transform="translate(-583.01 -329.971)" fill="#f79633"></path><path id="Path_59" data-name="Path 59" d="M613.194,373.1a15.429,15.429,0,0,1-5.81-11.583c-.043-1.716.434-3.748,2.031-4.38a3.131,3.131,0,0,1,3.1.675,6.085,6.085,0,0,1,1.684,2.828c1.183,3.735.447,7.774-.3,11.621" transform="translate(-586.867 -327.64)" fill="#f79633"></path><path id="Path_60" data-name="Path 60" d="M631.085,350.931c2.574-1.124,5.524-.817,8.3-.4.675.1,1.453.281,1.738.9a1.633,1.633,0,0,1-.43,1.679,4.2,4.2,0,0,1-2.843,1.307,7.51,7.51,0,0,1-3.137-.542,9.633,9.633,0,0,1-4.119-2.821" transform="translate(-575.796 -330.887)" fill="#f79633"></path><path id="Path_61" data-name="Path 61" d="M635.853,345.807c2.574-1.124,5.523-.817,8.3-.4.675.1,1.455.281,1.738.9a1.63,1.63,0,0,1-.43,1.679,4.189,4.189,0,0,1-2.843,1.306,7.463,7.463,0,0,1-3.137-.542,9.627,9.627,0,0,1-4.119-2.819" transform="translate(-573.523 -333.33)" fill="#f79633"></path><path id="Path_62" data-name="Path 62" d="M625.413,356.254a11.885,11.885,0,0,1,10.368.1,2.857,2.857,0,0,1,1.635,1.63,2,2,0,0,1-.613,1.879,3.7,3.7,0,0,1-1.84.886,8.16,8.16,0,0,1-4.674-.521,16.007,16.007,0,0,1-4.041-2.5,2.826,2.826,0,0,1-1.131-1.477" transform="translate(-578.41 -328.522)" fill="#f79633"></path><path id="Path_63" data-name="Path 63" d="M619.235,361.455c3.131-1.09,6.581-.455,9.786.391,1.241.328,2.6.783,3.218,1.907a3.159,3.159,0,0,1-1.484,4.05,5.861,5.861,0,0,1-4.659.075,13.339,13.339,0,0,1-6.742-5.766" transform="translate(-581.215 -325.773)" fill="#f79633"></path><path id="Path_64" data-name="Path 64" d="M611.776,367.574a11.6,11.6,0,0,1,7.44.375,34.429,34.429,0,0,1,6.678,3.564c1.038.656,2.187,1.486,2.283,2.709a2.532,2.532,0,0,1-1.093,2.149,5.041,5.041,0,0,1-2.347.837c-4.3.586-8.671-1.7-11.326-5.141a7.421,7.421,0,0,1-1.845-5.1" transform="translate(-584.883 -322.868)" fill="#f79633"></path><path id="Path_65" data-name="Path 65" d="M604.028,380.556c-.13.219-.467.065-.653-.111a14.027,14.027,0,0,1-4.159-12.189,6.287,6.287,0,0,1,.814-2.412,6.631,6.631,0,0,1,3.122-2.319,1.679,1.679,0,0,1,.9-.189,1.624,1.624,0,0,1,.947.713,11.246,11.246,0,0,1,1.947,8.117,20.275,20.275,0,0,1-3,7.944" transform="translate(-590.838 -324.605)" fill="#f79633"></path><path id="Path_66" data-name="Path 66" d="M601.888,375.263a11.126,11.126,0,0,1,5.987-.648,29.284,29.284,0,0,1,5.865,1.639,9.607,9.607,0,0,1,3.886,2.169,3.419,3.419,0,0,1,.619,4.107c-.831,1.2-2.5,1.438-3.961,1.406a14.667,14.667,0,0,1-8.118-2.434,9.576,9.576,0,0,1-4.184-7.172" transform="translate(-589.487 -319.357)" fill="#f79633"></path></g><g id="Group_48" data-name="Group 48" transform="translate(60.96)" opacity="0.38"><g id="Group_47" data-name="Group 47" transform="translate(4.63 9.002)"><path id="Path_67" data-name="Path 67" d="M577.543,378.837a47.493,47.493,0,0,0,6.913-14.107c.879-2.638,1.676-5.3,2.49-7.96.891-2.908,1.769-5.819,2.605-8.742q2.384-8.338,4.33-16.793,1.952-8.482,3.46-17.061t2.562-17.219q.129-1.046.25-2.1c.058-.495-.707-.631-.765-.133q-.995,8.582-2.432,17.105t-3.317,16.954q-1.878,8.434-4.193,16.759c-1.574,5.668-3.283,11.305-5.064,16.912-1.58,4.976-3.382,9.982-6.323,14.337q-.536.793-1.119,1.551c-.3.4.3.891.6.492Z" transform="translate(-576.856 -294.414)" fill="#f79633"></path></g><path id="Path_68" data-name="Path 68" d="M592.453,300.221a10.492,10.492,0,0,1-.455-9.626c.576-1.212,1.673-2.438,3-2.258a2.522,2.522,0,0,1,1.944,2,6.1,6.1,0,0,1-.222,2.927,22.839,22.839,0,0,1-3.825,7.857" transform="translate(-565.462 -288.319)" fill="#f79633"></path><path id="Path_69" data-name="Path 69" d="M593.959,302.655a6.277,6.277,0,0,1-4.379-2.134,7.956,7.956,0,0,1-2.04-2.841,3.8,3.8,0,0,1,.241-3.388,1.014,1.014,0,0,1,.378-.372,1,1,0,0,1,.511-.068,3.309,3.309,0,0,1,2.2,1.241,7.912,7.912,0,0,1,1.23,2.266,27.385,27.385,0,0,1,1.542,5.71" transform="translate(-567.267 -285.683)" fill="#f79633"></path><path id="Path_70" data-name="Path 70" d="M593.076,309.32a3.83,3.83,0,0,1-1.813-.038c-1.636-.3-3.389-.662-4.525-1.874a6.125,6.125,0,0,1-1.214-2.186,4.944,4.944,0,0,1-.081-3.832,1.84,1.84,0,0,1,.905-.9,1.728,1.728,0,0,1,1.527.22,4.282,4.282,0,0,1,1.109,1.145,27.945,27.945,0,0,1,4.092,7.47" transform="translate(-568.302 -282.562)" fill="#f79633"></path><path id="Path_71" data-name="Path 71" d="M592.446,316.97c-.046.193-.3.232-.5.224a11.855,11.855,0,0,1-5.28-1.337,7.923,7.923,0,0,1-3.63-3.979,3.043,3.043,0,0,1-.074-2.422,2.52,2.52,0,0,1,2.748-1.145,5.244,5.244,0,0,1,2.658,1.693c1.966,2.094,3.1,4.813,4.2,7.468" transform="translate(-569.422 -278.811)" fill="#f79633"></path><path id="Path_72" data-name="Path 72" d="M591.143,325.7a4.773,4.773,0,0,1-2.546-.143,14.613,14.613,0,0,1-5.721-2.582,6.74,6.74,0,0,1-2.661-5.476,2.531,2.531,0,0,1,1.14-2.14,2.566,2.566,0,0,1,1.873-.055c2.521.719,4.227,3.029,5.523,5.306a43.493,43.493,0,0,1,2.186,4.4" transform="translate(-570.631 -275.524)" fill="#f79633"></path><path id="Path_73" data-name="Path 73" d="M588.951,335.837a15.429,15.429,0,0,1-11.444-6.08c-1.028-1.375-1.817-3.308-.88-4.748a3.136,3.136,0,0,1,2.918-1.245,6.083,6.083,0,0,1,3.01,1.332c3.127,2.362,4.866,6.079,6.488,9.647" transform="translate(-572.535 -271.424)" fill="#f79633"></path><path id="Path_74" data-name="Path 74" d="M590.971,308.346c1.447-2.407,4.03-3.865,6.534-5.137a2.118,2.118,0,0,1,1.941-.273,1.632,1.632,0,0,1,.62,1.619,4.184,4.184,0,0,1-1.561,2.711,7.51,7.51,0,0,1-2.871,1.375,9.648,9.648,0,0,1-4.99.086" transform="translate(-565.652 -281.42)" fill="#f79633"></path><path id="Path_75" data-name="Path 75" d="M591.89,301.408c1.447-2.407,4.03-3.863,6.535-5.137a2.11,2.11,0,0,1,1.939-.272,1.632,1.632,0,0,1,.622,1.619,4.2,4.2,0,0,1-1.561,2.712,7.492,7.492,0,0,1-2.873,1.373,9.631,9.631,0,0,1-4.99.086" transform="translate(-565.214 -284.728)" fill="#f79633"></path><path id="Path_76" data-name="Path 76" d="M589.381,315.977a11.892,11.892,0,0,1,8.511-5.922,2.85,2.85,0,0,1,2.277.384,2.011,2.011,0,0,1,.589,1.886,3.7,3.7,0,0,1-.989,1.787,8.163,8.163,0,0,1-4.112,2.282,15.968,15.968,0,0,1-4.744.3,2.812,2.812,0,0,1-1.777-.546" transform="translate(-566.371 -277.986)" fill="#f79633"></path><path id="Path_77" data-name="Path 77" d="M587.461,323.866c1.922-2.7,5.1-4.181,8.2-5.346,1.2-.45,2.573-.867,3.729-.309a3.156,3.156,0,0,1,1.133,4.16,5.86,5.86,0,0,1-3.754,2.76,13.338,13.338,0,0,1-8.836-.8" transform="translate(-567.17 -274.193)" fill="#f79633"></path><path id="Path_78" data-name="Path 78" d="M585.024,332.907a11.6,11.6,0,0,1,6.283-4,34.611,34.611,0,0,1,7.51-.961c1.224-.067,2.642-.055,3.429.888a2.531,2.531,0,0,1,.351,2.385,5.036,5.036,0,0,1-1.427,2.041c-3.169,2.97-8.056,3.63-12.212,2.366a7.4,7.4,0,0,1-4.454-3.09" transform="translate(-568.58 -269.435)" fill="#f79633"></path><path id="Path_79" data-name="Path 79" d="M585.5,347.448c.021.254-.343.323-.6.289a14.023,14.023,0,0,1-10.447-7.531,6.287,6.287,0,0,1-.734-2.438,6.629,6.629,0,0,1,1.2-3.7,1.684,1.684,0,0,1,.628-.676,1.621,1.621,0,0,1,1.184.034,11.246,11.246,0,0,1,6.286,5.489,20.261,20.261,0,0,1,2.153,8.216" transform="translate(-573.722 -266.872)" fill="#f79633"></path><path id="Path_80" data-name="Path 80" d="M581.4,345.308a11.12,11.12,0,0,1,4.506-4,29.291,29.291,0,0,1,5.73-2.059,9.6,9.6,0,0,1,4.425-.48,3.416,3.416,0,0,1,2.883,2.989c.018,1.462-1.205,2.621-2.416,3.44a14.651,14.651,0,0,1-8.027,2.716,9.571,9.571,0,0,1-7.564-3.425" transform="translate(-570.283 -264.311)" fill="#f79633"></path></g></g><g id="Group_51" data-name="Group 51" transform="translate(258.386 251.711)" opacity="0.38"><g id="Group_50" data-name="Group 50" transform="translate(5.782 7.974)"><path id="Path_81" data-name="Path 81" d="M483.584,382.088a47.509,47.509,0,0,0-5.405-14.751c-1.3-2.461-2.669-4.88-4.026-7.306-1.483-2.654-2.977-5.3-4.51-7.928q-4.371-7.49-9.13-14.744-4.776-7.279-9.926-14.3T439.925,309.3q-.667-.817-1.341-1.63c-.318-.384-.945.075-.626.461q5.509,6.655,10.669,13.589t9.95,14.125q4.789,7.189,9.2,14.621c3,5.058,5.891,10.192,8.708,15.356,2.5,4.583,4.868,9.347,5.98,14.484.134.623.248,1.251.346,1.882.075.493.848.4.772-.095Z" transform="translate(-437.869 -307.521)" fill="#f79633"></path></g><path id="Path_82" data-name="Path 82" d="M441.576,312.615a10.494,10.494,0,0,1-7.265-6.333c-.479-1.254-.6-2.895.446-3.731a2.524,2.524,0,0,1,2.788-.021,6.093,6.093,0,0,1,1.961,2.184,22.864,22.864,0,0,1,3.028,8.2" transform="translate(-433.955 -302.121)" fill="#f79633"></path><path id="Path_83" data-name="Path 83" d="M444.8,312.718a6.281,6.281,0,0,1-4.571,1.687,8,8,0,0,1-3.463-.492,3.8,3.8,0,0,1-2.279-2.52,1,1,0,0,1-.007-.529.985.985,0,0,1,.3-.417,3.306,3.306,0,0,1,2.415-.728,7.918,7.918,0,0,1,2.487.679,27.308,27.308,0,0,1,5.19,2.836" transform="translate(-433.721 -298.502)" fill="#f79633"></path><path id="Path_84" data-name="Path 84" d="M448.936,318.008a3.845,3.845,0,0,1-1.283,1.282c-1.347.973-2.821,1.989-4.484,1.97a6.087,6.087,0,0,1-2.418-.635,4.935,4.935,0,0,1-2.822-2.592,1.835,1.835,0,0,1-.028-1.279,1.73,1.73,0,0,1,1.217-.951,4.3,4.3,0,0,1,1.592-.009,27.923,27.923,0,0,1,8.226,2.214" transform="translate(-432.122 -295.635)" fill="#f79633"></path><path id="Path_85" data-name="Path 85" d="M454,324.07c.109.167-.041.378-.185.517a11.845,11.845,0,0,1-4.618,2.889,7.92,7.92,0,0,1-5.383-.131,3.054,3.054,0,0,1-1.8-1.622,2.519,2.519,0,0,1,1.077-2.777,5.228,5.228,0,0,1,3.06-.749c2.872.028,5.621,1.09,8.3,2.136" transform="translate(-430.164 -292.548)" fill="#f79633"></path><path id="Path_86" data-name="Path 86" d="M459.411,331.086a4.78,4.78,0,0,1-1.865,1.738,14.619,14.619,0,0,1-5.822,2.347,6.739,6.739,0,0,1-5.8-1.867,2.531,2.531,0,0,1-.756-2.3,2.566,2.566,0,0,1,1.255-1.391c2.263-1.322,5.111-.956,7.653-.318a43.728,43.728,0,0,1,4.688,1.465" transform="translate(-428.637 -289.44)" fill="#f79633"></path><path id="Path_87" data-name="Path 87" d="M465.134,339.954a15.435,15.435,0,0,1-12.305,4.058c-1.7-.21-3.646-.978-4.038-2.649a3.127,3.127,0,0,1,1.12-2.969,6.079,6.079,0,0,1,3.044-1.252c3.868-.625,7.757.691,11.455,1.988" transform="translate(-426.91 -285.498)" fill="#f79633"></path><path id="Path_88" data-name="Path 88" d="M445.775,320.28c-.737-2.712,0-5.584.811-8.272.2-.654.49-1.4,1.146-1.589a1.628,1.628,0,0,1,1.6.671,4.193,4.193,0,0,1,.879,3,7.5,7.5,0,0,1-1,3.025,9.639,9.639,0,0,1-3.389,3.663" transform="translate(-428.463 -298.185)" fill="#f79633"></path><path id="Path_89" data-name="Path 89" d="M441.4,314.817c-.737-2.712,0-5.584.811-8.272.2-.654.49-1.4,1.146-1.589a1.628,1.628,0,0,1,1.6.671,4.193,4.193,0,0,1,.879,3,7.5,7.5,0,0,1-1,3.025,9.639,9.639,0,0,1-3.389,3.663" transform="translate(-430.548 -300.79)" fill="#f79633"></path><path id="Path_90" data-name="Path 90" d="M450.174,327.149a11.887,11.887,0,0,1,1.61-10.244,2.863,2.863,0,0,1,1.852-1.379,2.01,2.01,0,0,1,1.769.88,3.694,3.694,0,0,1,.607,1.951,8.162,8.162,0,0,1-1.2,4.547,15.985,15.985,0,0,1-3.066,3.632,2.811,2.811,0,0,1-1.625.905" transform="translate(-426.467 -295.734)" fill="#f79633"></path><path id="Path_91" data-name="Path 91" d="M454.5,334.288c-.622-3.257.51-6.577,1.815-9.623.505-1.18,1.152-2.457,2.356-2.906a3.157,3.157,0,0,1,3.788,2.06,5.858,5.858,0,0,1-.6,4.62,13.347,13.347,0,0,1-6.689,5.829" transform="translate(-424.24 -292.827)" fill="#f79633"></path><path id="Path_92" data-name="Path 92" d="M459.593,343.468a11.6,11.6,0,0,1,1.456-7.306,34.568,34.568,0,0,1,4.5-6.088c.8-.93,1.788-1.947,3.013-1.864a2.537,2.537,0,0,1,1.967,1.4,5.049,5.049,0,0,1,.486,2.443c-.047,4.343-2.952,8.329-6.739,10.456a7.41,7.41,0,0,1-5.312,1.08" transform="translate(-422.028 -289.683)" fill="#f79633"></path><path id="Path_93" data-name="Path 93" d="M471.082,350.308c.2.159,0,.471-.2.629a14.022,14.022,0,0,1-12.666,2.335,6.267,6.267,0,0,1-2.267-1.156,6.636,6.636,0,0,1-1.839-3.426,1.682,1.682,0,0,1-.055-.922,1.622,1.622,0,0,1,.843-.831,11.248,11.248,0,0,1,8.313-.741,20.261,20.261,0,0,1,7.421,4.128" transform="translate(-424.392 -281.324)" fill="#f79633"></path><path id="Path_94" data-name="Path 94" d="M465.755,354.463a11.127,11.127,0,0,1,.232-6.018,29.311,29.311,0,0,1,2.478-5.563,9.6,9.6,0,0,1,2.713-3.527,3.418,3.418,0,0,1,4.153-.013c1.069,1,1.059,2.684.812,4.125a14.664,14.664,0,0,1-3.592,7.675,9.579,9.579,0,0,1-7.706,3.093" transform="translate(-419.224 -284.705)" fill="#f79633"></path></g><g id="Group_55" data-name="Group 55" transform="translate(271.795 250.856)"><path id="Path_95" data-name="Path 95" d="M526,302.234c15.51.659,32.295,5.339,43.647,15.927a8,8,0,0,1,2.326,3.124c.613,1.818-.016,3.794-.6,5.622a114.71,114.71,0,0,0-1.022,65.552c1.582,5.583,3.6,11.1,4.147,16.876s-.6,12.031-4.6,16.241a21.8,21.8,0,0,1-6.1,4.284c-12.416,6.275-27,6.042-40.9,5.464-8.57-.357-17.226-.8-25.477-3.149s-16.173-6.776-21.187-13.736c-5.173-7.181-6.791-16.3-7.448-25.126-1.495-20.043,1.226-40.14,1.6-60.235.109-5.845-.013-11.868-2.294-17.25,10.592-7.324,23.249-11.774,35.877-14.286,2.712,3.611,6.516,5.255,11.026,5.485s7.925-1.478,10.991-4.794" transform="translate(-431.076 -301.543)" fill="#ffce45"></path><path id="Path_96" data-name="Path 96" d="M569.645,392.417c-.5-5.777,3.6-12.462,2.14-18.043-3.714-14.19-10.719-27.988-9.213-42.643-3.184,1.6-6.07,3.705-7.712,6.854a18.831,18.831,0,0,0-1.728,8.527c-.067,5.856,1.025,11.663,1.258,17.514s-.5,12.02-3.8,16.81c-3.8,5.531-10.362,8.322-16.758,10.035a126.935,126.935,0,0,1-13.091,2.636c-5.052.8-10.193,1.466-15.266.814s-10.139-2.765-13.472-6.729c-5.286-6.284-5.128-15.41-6.077-23.64a73.988,73.988,0,0,0-7.994-25.9c-1.266-2.4-2.753-4.825-5.038-6.235l-.021-.009c-.786,14.676-9.281,30.085-8.273,44.724.608,8.826,9.532,17.205,14.308,24.386,4.63,6.959,11.946,11.391,19.567,13.735s15.612,2.793,23.525,3.149c12.837.577,26.3.811,37.766-5.464a20.2,20.2,0,0,0,5.633-4.283C569.088,404.447,570.148,398.194,569.645,392.417Z" transform="translate(-432.788 -287.147)" fill="#ffa748"></path><path id="Path_97" data-name="Path 97" d="M486.523,308.518c4.791,21.3.665,46.427-4.655,67.6-1.58,6.29-1.248,13.182,1.007,16.384,2.333,3.311,6.361,5.289,10.04,6.983,8.551,3.94,14.491,8.591,21.019,15.376,2.615,2.719,5.014,5.785,6.144,9.384s.8,7.83-1.6,10.737c-2.3,2.779-6.1,3.928-9.707,3.925s-7.127-1-10.638-1.825a111.825,111.825,0,0,0-17.9-2.683c-5.215-.353-10.521-.35-15.537-1.819a29.848,29.848,0,0,1-17.027-13.589,35.641,35.641,0,0,1-4.438-21.49,74.161,74.161,0,0,1,2.443-11.7c4.283-15.949,10.189-29.909,15.6-45.511a82.786,82.786,0,0,1,10.185-19.109c3.9-5.518,8.409-11.527,15.068-12.664" transform="translate(-443.034 -298.217)" fill="#ffce45"></path><g id="Group_52" data-name="Group 52" transform="translate(42.953 9.772)"><path id="Path_98" data-name="Path 98" d="M474.4,349.245c2.887-13.16,1.861-27.718-1.227-40.7-.161-.676-1.2-.39-1.041.286a101.036,101.036,0,0,1,2.59,28.289,71.651,71.651,0,0,1-1.363,11.837c-.149.676.892.966,1.041.287Z" transform="translate(-472.118 -308.16)" fill="#fff"></path></g><path id="Path_99" data-name="Path 99" d="M510.827,387.532s-14.258-3.54-19.594-.484-13.434,7.516-13.191,13.191l0,2.328s38.221,1.115,41.326-2.328" transform="translate(-426.342 -261.362)" fill="#e8a17e"></path><path id="Path_100" data-name="Path 100" d="M543.041,307.433c7,.809,14.645,8.96,19.484,16.008s8.133,15.017,11.39,22.921L592.2,390.755a72.8,72.8,0,0,1,4.71,14.088,36.422,36.422,0,0,1,.2,12.29,19.844,19.844,0,0,1-3.623,9.328c-2.948,3.75-7.6,5.658-12.06,7.353-9.408,3.576-19.059,6.928-29.1,7.621a112.887,112.887,0,0,1-11.893-.016c-10.948-.4-21.943-.8-32.716-2.8a4.993,4.993,0,0,1-2.2-.792,5.108,5.108,0,0,1-1.347-2.014l-3.251-7.1a8.625,8.625,0,0,1-1.108-4.168c.157-1.945,1.588-3.525,3.019-4.85a47.908,47.908,0,0,1,12.889-8.519c9.709-4.357,20.8-5.445,29.915-10.926a14.144,14.144,0,0,0,3.066-2.335c3.361-3.57,3.16-9.316,1.276-13.843s-3.206-8.846-5.058-13.386c-4.119-10.1-6.176-16.686-6.4-25.315-.32-12.287.6-26.287,4.522-37.935" transform="translate(-415.964 -298.734)" fill="#ffce45"></path><g id="Group_53" data-name="Group 53" transform="translate(89.988 117.728)"><path id="Path_101" data-name="Path 101" d="M504.068,382.035a30.284,30.284,0,0,1,3.14,5.695,47.94,47.94,0,0,1,3.942,16.124c.049.69,1.128.694,1.08,0a49.574,49.574,0,0,0-3.894-16.225A31.063,31.063,0,0,0,505,381.49c-.408-.552-1.345-.015-.932.545Z" transform="translate(-503.965 -381.258)" fill="#ffa748"></path></g><g id="Group_54" data-name="Group 54" transform="translate(121.246 8.187)"><path id="Path_102" data-name="Path 102" d="M526.5,350.337c-.9-14.079.186-29.282,4.986-42.6.235-.654-.806-.936-1.041-.287-4.826,13.391-5.925,28.725-5.024,42.882.044.69,1.124.694,1.08,0Z" transform="translate(-525.131 -307.087)" fill="#fff"></path></g></g><path id="Path_106" data-name="Path 106" d="M3.029,0H506.638a3.029,3.029,0,0,1,3.029,3.029V6.281a3.029,3.029,0,0,1-3.029,3.029H3.029A3.029,3.029,0,0,1,0,6.281V3.029A3.029,3.029,0,0,1,3.029,0Z" transform="translate(45.891 395.408)" fill="#3b3b3b"></path><g id="Group_57" data-name="Group 57" transform="translate(164.466 292.43)"><rect id="Rectangle_11" data-name="Rectangle 11" width="173.849" height="4.325" rx="0.501" transform="translate(84.241 98.653)" fill="#26476d"></rect><path id="Path_103" data-name="Path 103" d="M529.261,432.671H380.941l-7.165-102.978H519.125Z" transform="translate(-368.732 -329.693)" fill="#3b3b3b"></path><g id="Group_56" data-name="Group 56"><path id="Path_104" data-name="Path 104" d="M525.846,432.671H377.526l-7.165-102.978H515.71Z" transform="translate(-370.361 -329.693)" fill="#3a3a3a"></path><circle id="Ellipse_8" data-name="Ellipse 8" cx="8.857" cy="8.857" r="8.857" transform="translate(68.886 42.632)" fill="#f79633"></circle><path id="Path_105" data-name="Path 105" d="M371.2,341.746l5.921,85.091h148.32l-1.979-20.112C445.4,396.632,391.625,358.551,371.2,341.746Z" transform="translate(-369.959 -323.945)" fill="#3b3b3b" opacity="0.07"></path></g></g></g></g></svg>