<?xml version="1.0" standalone="no"?>
<!DOCTYPE svg PUBLIC "-//W3C//DTD SVG 20010904//EN"
 "http://www.w3.org/TR/2001/REC-SVG-20010904/DTD/svg10.dtd">
<svg version="1.0" xmlns="http://www.w3.org/2000/svg"
 width="184.000000pt" height="130.000000pt" viewBox="0 0 184.000000 130.000000"
 preserveAspectRatio="xMidYMid meet">

<g transform="translate(0.000000,130.000000) scale(0.100000,-0.100000)"
fill="#000000" stroke="none">
<path d="M0 650 l0 -650 920 0 920 0 0 650 0 650 -920 0 -920 0 0 -650z m508
530 c7 0 12 -4 12 -8 0 -4 -15 -6 -34 -4 -18 2 -44 -2 -57 -8 -20 -11 -19 -8
6 17 26 27 32 29 46 17 8 -8 21 -14 27 -14z m-122 2 c1 -7 0 -8 -2 -3 -3 6
-21 4 -45 -4 -45 -16 -51 -12 -11 9 31 18 54 17 58 -2z m1029 -21 c5 -16 4
-21 -4 -17 -6 4 -11 2 -11 -4 0 -7 -8 -9 -19 -5 -12 4 -21 1 -23 -8 -2 -9 -11
-11 -28 -6 -26 7 -25 8 27 25 14 4 14 7 4 13 -9 6 -8 10 7 13 16 4 19 2 15
-11 -4 -13 -2 -13 7 2 6 9 8 23 4 30 -5 8 -4 9 3 2 6 -5 14 -21 18 -34z
m-1205 -9 c13 -11 10 -12 -12 -3 -26 10 -32 7 -29 -11 0 -5 -3 -8 -9 -8 -14 0
-12 34 2 48 10 10 15 10 23 0 6 -7 17 -19 25 -26z m475 8 c7 -23 21 -26 28 -7
3 7 6 5 6 -5 1 -10 -6 -18 -14 -18 -7 0 -19 8 -24 18 -10 16 -10 16 -11 0 0
-10 -4 -18 -10 -18 -11 0 -13 11 -4 34 8 22 21 20 29 -4z m-119 -5 c18 -13 18
-14 -4 -8 -12 3 -25 9 -28 14 -8 14 10 11 32 -6z m639 -6 c-11 -18 6 -31 23
-17 13 11 14 11 4 -8 -6 -12 -9 -23 -7 -26 3 -3 -1 -5 -9 -5 -8 0 -12 6 -9 14
3 7 0 13 -6 13 -6 0 -11 12 -11 26 0 14 4 23 10 19 6 -4 8 -11 5 -16z m345 14
c0 -10 -20 -40 -20 -31 0 3 -3 13 -6 22 -4 11 -1 16 10 16 9 0 16 -3 16 -7z
m82 -25 c-9 -9 -12 -7 -12 12 0 19 3 21 12 12 9 -9 9 -15 0 -24z m-1162 12 c0
-5 -5 -10 -11 -10 -5 0 -7 5 -4 10 3 6 8 10 11 10 2 0 4 -4 4 -10z m493 -4
c18 -7 40 -24 49 -38 23 -34 32 -92 19 -115 -10 -17 -11 -17 -17 5 -3 12 -10
22 -14 22 -10 0 -20 -26 -20 -50 0 -9 -6 -23 -14 -29 -11 -9 -15 -6 -20 14 -4
14 -17 30 -31 35 -30 11 -46 77 -24 94 20 15 13 47 -8 39 -12 -5 -14 -3 -8 8
5 8 -1 5 -13 -5 -12 -11 -22 -23 -22 -28 0 -5 -9 -18 -20 -30 -26 -28 -25 -34
7 -50 15 -7 31 -27 37 -45 6 -18 20 -39 31 -47 20 -15 19 -15 -5 -15 -28 0
-71 32 -89 66 -26 51 -1 131 51 163 39 23 66 25 111 6z m217 4 c-1 -19 -50
-49 -50 -31 0 23 13 40 31 38 10 -1 19 -4 19 -7z m275 -18 c-3 -3 -11 0 -18 7
-9 10 -8 11 6 5 10 -3 15 -9 12 -12z m-1235 -7 c14 -8 21 -14 15 -14 -5 0 -21
6 -35 14 -14 8 -20 14 -15 14 6 0 21 -6 35 -14z m40 5 c0 -5 -7 -7 -15 -4 -8
4 -15 8 -15 10 0 2 7 4 15 4 8 0 15 -4 15 -10z m140 6 c0 -2 -8 -10 -17 -17
-16 -13 -17 -12 -4 4 13 16 21 21 21 13z m1192 -8 c-9 -9 -15 -9 -24 0 -9 9
-7 12 12 12 19 0 21 -3 12 -12z m-1252 -19 c0 -5 4 -8 9 -5 4 3 6 -6 3 -19 -2
-15 -11 -25 -21 -24 -10 0 -11 2 -3 6 17 7 15 20 -4 27 -10 4 -13 2 -8 -7 5
-7 1 -7 -10 2 -13 11 -14 16 -4 22 18 12 38 11 38 -2z m70 7 c0 -2 -8 -10 -17
-17 -16 -13 -17 -12 -4 4 13 16 21 21 21 13z m280 -6 c0 -5 -5 -10 -11 -10 -5
0 -7 5 -4 10 3 6 8 10 11 10 2 0 4 -4 4 -10z m1040 4 c0 -3 -5 -14 -10 -25
-12 -22 -36 -25 -43 -5 -4 10 0 12 14 9 13 -4 19 0 19 11 0 9 5 16 10 16 6 0
10 -3 10 -6z m-174 -41 c1 -18 -2 -19 -30 -9 -41 14 -41 13 -27 30 17 20 56 5
57 -21z m-396 23 c0 -2 -11 -6 -25 -8 -13 -3 -22 -1 -19 3 5 9 44 13 44 5z
m488 -13 c2 -9 -8 -13 -32 -13 -32 0 -44 8 -31 21 10 10 59 3 63 -8z m-456
-68 c-4 -23 -22 -36 -22 -16 0 5 -3 16 -6 25 -4 11 0 16 14 16 15 0 18 -5 14
-25z m339 -8 c-8 -8 -11 -7 -11 4 0 20 13 34 18 19 3 -7 -1 -17 -7 -23z m93 8
c-4 -8 -9 -15 -13 -15 -4 0 -8 7 -8 15 0 8 6 15 13 15 8 0 11 -6 8 -15z
m-1165 -34 c0 -12 -2 -11 -9 4 -7 17 -9 17 -9 3 -1 -10 -7 -18 -13 -19 -7 0
-23 -2 -35 -3 -26 -3 -28 3 -10 26 25 33 78 25 76 -11z m-133 6 c1 -9 -2 -19
-7 -23 -5 -3 -9 2 -9 10 0 9 -4 16 -10 16 -5 0 -10 -5 -10 -11 0 -5 -4 -7 -10
-4 -13 8 11 33 29 30 8 -1 15 -9 17 -18z m324 13 c0 -5 -9 -10 -21 -10 -11 0
-17 5 -14 10 3 6 13 10 21 10 8 0 14 -4 14 -10z m-440 -4 c0 -3 -4 -8 -10 -11
-5 -3 -10 -1 -10 4 0 6 5 11 10 11 6 0 10 -2 10 -4z m1110 -44 c0 -5 -8 -16
-18 -25 -34 -31 -50 14 -18 49 11 12 36 -5 36 -24z m-201 19 c19 -12 23 -61 5
-61 -8 0 -14 -6 -15 -12 0 -10 -2 -10 -6 0 -2 6 -10 12 -17 12 -7 0 -13 7 -13
15 0 8 4 15 9 15 4 0 7 3 7 8 -5 30 5 38 30 23z m-99 -4 c0 -2 -12 -14 -27
-28 l-28 -24 24 28 c23 25 31 32 31 24z m409 -38 c1 8 4 11 8 8 3 -4 -2 -16
-12 -27 -9 -10 -15 -26 -12 -35 4 -8 2 -15 -3 -15 -10 0 -16 44 -11 84 l4 29
13 -29 c7 -16 13 -23 13 -15z m-214 11 c-3 -5 -1 -10 4 -10 6 0 11 -4 11 -10
0 -5 -11 -10 -25 -10 -29 0 -32 8 -7 26 21 16 25 17 17 4z m485 -169 c9 -51 1
-96 -14 -73 -4 7 -19 4 -44 -11 l-37 -22 17 27 c17 26 38 134 40 208 2 62 13
57 21 -10 4 -36 12 -89 17 -119z m-747 142 c-7 -2 -19 -2 -25 0 -7 3 -2 5 12
5 14 0 19 -2 13 -5z m-773 -13 c0 -5 6 -7 14 -4 8 3 17 1 20 -5 4 -6 -9 -9
-34 -8 -39 1 -52 11 -27 20 20 8 27 8 27 -3z m208 -2 c16 -21 -4 -59 -30 -55
-27 5 -43 28 -35 51 7 19 50 21 65 4z m152 -9 c13 -23 14 -22 -18 -38 -26 -14
-25 -15 -41 16 -9 18 -8 24 6 32 27 16 41 13 53 -10z m834 -6 c-9 -36 -13 -40
-23 -24 -6 8 -3 21 7 32 22 25 24 24 16 -8z m238 -7 c6 4 8 -1 3 -15 -3 -12
-8 -40 -9 -62 -2 -22 -8 -45 -13 -50 -12 -12 -63 -1 -63 12 0 6 8 5 19 -1 27
-14 28 -14 38 18 13 37 5 62 -18 62 -11 0 -18 4 -14 9 3 6 15 8 26 6 16 -3 19
0 15 18 -3 12 -3 16 0 9 3 -6 10 -9 16 -6z m-1373 -15 c19 -12 6 -41 -19 -41
-17 0 -19 3 -10 19 8 16 6 20 -8 24 -14 4 -14 5 3 6 11 0 26 -3 34 -8z m1236
-1 c3 -5 1 -10 -4 -10 -6 0 -11 5 -11 10 0 6 2 10 4 10 3 0 8 -4 11 -10z
m-1362 -27 c-5 -13 -2 -15 15 -11 24 7 31 -7 8 -15 -16 -6 -36 11 -36 30 0 7
4 13 10 13 5 0 7 -7 3 -17z m70 -13 c3 -11 2 -20 -3 -20 -4 0 -10 9 -13 20 -3
11 -2 20 3 20 4 0 10 -9 13 -20z m232 -10 c-1 -45 -30 -168 -37 -157 -6 9 -8
9 -8 0 0 -7 -4 -13 -9 -13 -16 0 -21 32 -11 74 23 93 33 117 49 114 9 -2 16
-10 16 -18z m255 -5 c0 -8 -9 -15 -20 -15 -17 0 -20 -7 -20 -50 0 -43 -3 -50
-20 -50 -17 0 -20 7 -20 50 0 38 -4 50 -15 50 -8 0 -15 7 -15 15 0 12 13 15
55 15 42 0 55 -3 55 -15z m136 -6 c17 -19 17 -22 2 -49 -15 -26 -15 -29 0 -44
15 -15 15 -16 -1 -17 -9 -1 -23 -2 -29 -3 -7 -1 -21 7 -30 18 -16 19 -18 19
-18 4 0 -11 -8 -18 -20 -18 -18 0 -20 7 -20 65 l0 65 48 0 c37 0 54 -5 68 -21z
m110 13 c9 -5 44 -100 44 -118 0 -1 -7 -5 -15 -8 -11 -4 -19 3 -25 19 -11 30
-36 33 -43 5 -3 -12 -14 -20 -26 -20 -21 0 -21 1 -5 38 9 20 20 49 26 65 10
27 23 33 44 19z m91 -29 l16 -38 12 35 c8 23 19 36 33 38 27 4 27 -2 1 -72
-18 -45 -26 -56 -45 -56 -18 0 -26 10 -43 55 -25 67 -26 75 -5 75 8 0 22 -17
31 -37z m203 23 c0 -10 -13 -16 -37 -18 l-38 -4 28 -12 c31 -13 28 -32 -6 -32
-28 0 -10 -17 22 -22 14 -1 26 -8 28 -15 5 -14 -21 -20 -64 -15 l-33 4 0 64 0
64 50 0 c37 0 50 -4 50 -14z m68 -38 c2 -32 8 -48 16 -48 8 0 19 -7 26 -15 11
-13 6 -15 -39 -15 l-51 0 0 66 c0 62 1 65 23 62 19 -3 22 -10 25 -50z m217
-45 c30 12 15 -10 -17 -24 -35 -15 -82 -14 -73 2 4 5 14 5 25 -1 17 -9 19 -7
15 21 -4 30 -3 30 15 14 11 -10 26 -15 35 -12z m-1319 -19 c0 -21 -2 -32 -4
-25 -8 25 -20 -2 -15 -34 4 -24 2 -35 -7 -35 -7 0 -10 7 -6 16 4 12 2 15 -9
10 -8 -3 -15 -1 -15 4 0 6 6 10 13 10 9 0 13 12 12 38 -2 43 1 52 19 52 7 0
12 -14 12 -36z m310 -24 c38 0 45 -3 42 -17 -3 -15 -14 -18 -63 -18 -51 0 -60
3 -63 19 -3 11 4 26 14 33 16 12 19 12 22 -1 3 -12 16 -16 48 -16z m1242 -5
c-3 -3 -9 2 -12 12 -6 14 -5 15 5 6 7 -7 10 -15 7 -18z m-1543 -25 c3 -5 1
-10 -4 -10 -6 0 -11 5 -11 10 0 6 2 10 4 10 3 0 8 -4 11 -10z m1457 -22 c-5
-20 -4 -20 21 -3 21 13 30 14 48 4 l23 -12 -22 -8 c-24 -9 -30 -34 -9 -42 9
-4 9 -6 -1 -6 -7 -1 -15 6 -19 14 -5 14 -8 14 -29 0 -48 -31 -76 -9 -53 43 15
33 50 42 41 10z m-462 -19 c0 -23 -27 -36 -43 -20 -14 14 -27 14 -27 1 0 -5
12 -13 28 -16 43 -11 55 -40 26 -68 -30 -30 -130 -9 -110 22 9 15 43 16 51 2
7 -12 25 -4 25 11 0 5 -11 9 -23 9 -30 0 -60 32 -51 53 6 18 64 33 89 23 8 -3
15 -1 15 5 0 6 5 7 10 4 6 -3 10 -15 10 -26z m325 22 c3 -5 1 -12 -5 -16 -5
-3 -10 1 -10 9 0 18 6 21 15 7z m57 -13 c-7 -7 -12 -8 -12 -2 0 14 12 26 19
19 2 -3 -1 -11 -7 -17z m-742 -8 c0 -13 -7 -20 -20 -20 -17 0 -20 -7 -20 -50
0 -43 -3 -50 -20 -50 -17 0 -20 7 -20 50 0 43 -3 50 -20 50 -19 0 -27 20 -13
33 3 4 30 7 60 7 46 0 53 -2 53 -20z m75 -50 c0 -69 0 -70 -27 -70 -26 0 -27
1 -21 49 3 30 1 51 -5 55 -19 12 -1 36 27 36 26 0 26 -1 26 -70z m123 64 c17
-5 22 -14 22 -40 0 -33 -2 -34 -38 -34 -34 0 -38 -3 -40 -27 -3 -32 -7 -37
-27 -30 -11 5 -15 21 -15 65 0 32 3 62 7 65 8 9 60 9 91 1z m-828 -8 c0 -2 -8
-10 -17 -17 -16 -13 -17 -12 -4 4 13 16 21 21 21 13z m431 -47 c-9 -22 -10
-22 -10 -3 -1 11 2 24 6 27 12 12 14 0 4 -24z m1099 21 c0 -5 -4 -10 -10 -10
-5 0 -10 5 -10 10 0 6 5 10 10 10 6 0 10 -4 10 -10z m12 -22 c-8 -8 -9 -4 -5
13 4 13 8 18 11 10 2 -7 -1 -18 -6 -23z m-1436 -21 c2 -35 1 -37 -27 -37 -24
0 -29 4 -29 25 0 16 6 25 15 25 8 0 14 3 14 8 -3 17 2 23 13 20 7 -3 13 -21
14 -41z m146 16 c-3 -16 -7 -22 -10 -15 -4 13 4 42 11 42 2 0 2 -12 -1 -27z
m832 1 c9 -23 8 -24 -11 -17 -11 4 -14 3 -9 -5 4 -7 2 -12 -4 -12 -7 0 -9 7
-6 16 3 9 6 20 6 25 0 15 17 10 24 -7z m86 -8 c0 -17 35 -57 44 -49 3 3 6 1 6
-5 0 -22 -19 -12 -44 21 -26 34 -35 64 -16 52 6 -3 10 -12 10 -19z m-787 5 c4
-1 6 -15 5 -31 -3 -34 -23 -45 -67 -35 -24 5 -27 10 -24 33 4 21 2 24 -6 12
-6 -8 -11 -10 -11 -4 0 21 24 33 59 29 20 -2 39 -4 44 -4z m891 -6 c-4 -8 -13
-15 -21 -15 -13 0 -13 3 -3 15 7 8 16 15 21 15 5 0 6 -7 3 -15z m33 -7 c-3 -8
-6 -5 -6 6 -1 11 2 17 5 13 3 -3 4 -12 1 -19z m38 -18 c3 -5 1 -10 -4 -10 -6
0 -11 5 -11 10 0 6 2 10 4 10 3 0 8 -4 11 -10z m148 -40 c3 -11 1 -20 -4 -20
-5 0 -9 3 -10 8 0 4 -2 15 -4 25 -4 23 11 12 18 -13z m-1063 10 c0 -5 -5 -10
-11 -10 -5 0 -7 5 -4 10 3 6 8 10 11 10 2 0 4 -4 4 -10z m851 1 c-8 -5 -10
-14 -5 -22 6 -11 4 -11 -10 0 -13 11 -14 16 -4 22 7 5 18 9 23 9 6 0 4 -4 -4
-9z m-1185 -29 c-2 -4 3 -16 11 -27 15 -19 15 -19 9 10 -6 28 -5 28 6 9 7 -12
19 -19 26 -17 6 3 12 1 12 -4 -1 -19 -17 -29 -50 -30 -35 -1 -36 0 -32 33 2
19 8 34 14 34 5 0 7 -3 4 -8z m999 -20 c1 -14 -6 -22 -22 -25 -20 -4 -23 -1
-19 22 2 14 5 27 5 28 1 1 9 0 18 -1 9 -2 17 -12 18 -24z m-755 -33 c0 -16 5
-20 20 -16 11 3 25 -2 32 -12 12 -15 11 -15 -6 -1 -18 14 -19 13 -13 -2 3 -10
2 -20 -3 -23 -6 -4 -10 2 -11 12 0 14 -2 14 -9 -4 -5 -13 -12 -23 -16 -23 -3
0 -4 7 0 15 7 19 -3 47 -14 40 -5 -3 -12 0 -16 6 -3 6 0 15 7 20 22 14 29 11
29 -12z m35 1 c-3 -5 -10 -10 -16 -10 -5 0 -9 5 -9 10 0 6 7 10 16 10 8 0 12
-4 9 -10z m698 -39 c11 -11 -24 -6 -53 8 -23 10 -22 11 10 5 19 -3 39 -9 43
-13z m-950 2 c-13 -2 -33 -2 -45 0 -13 2 -3 4 22 4 25 0 35 -2 23 -4z m169
-15 c-7 -7 -12 -8 -12 -2 0 6 3 14 7 17 3 4 9 5 12 2 2 -3 -1 -11 -7 -17z
m259 2 c6 0 7 5 4 10 -7 11 8 14 19 3 3 -4 -3 -12 -15 -18 l-21 -12 22 -21
c12 -11 28 -18 36 -15 8 3 14 0 14 -7 0 -6 -4 -8 -10 -5 -5 3 -10 -3 -10 -15
0 -20 1 -20 25 -4 15 10 25 12 25 5 0 -6 -8 -11 -17 -12 -16 0 -15 -1 1 -8 19
-7 19 -8 -1 -13 -23 -6 -53 18 -53 42 0 17 -13 4 -16 -16 -1 -8 4 -18 12 -21
8 -3 11 -9 8 -14 -3 -5 -16 -2 -30 7 -13 9 -24 13 -24 8 0 -4 -5 -3 -12 4 -17
17 -28 15 -21 -5 5 -14 2 -14 -13 3 -10 11 -26 19 -34 16 -11 -4 -10 1 4 17
21 23 36 27 36 10 0 -5 -5 -7 -12 -3 -6 4 -8 3 -4 -4 3 -6 15 -10 26 -9 14 1
16 4 8 14 -8 10 -7 13 4 13 22 0 28 -11 17 -31 -7 -14 -6 -17 4 -13 10 3 13
22 12 62 -1 31 0 51 2 45 3 -7 9 -13 14 -13z m319 10 c0 -5 -34 -9 -80 -9 -44
0 -80 5 -80 10 0 5 36 9 80 9 45 0 80 -4 80 -10z m120 0 c0 -5 -7 -7 -15 -4
-8 4 -15 8 -15 10 0 2 7 4 15 4 8 0 15 -4 15 -10z m195 0 c-18 -8 -17 -12 1
-9 14 2 23 -26 11 -33 -19 -12 -27 -9 -27 8 0 8 -4 13 -10 9 -5 -3 -7 -12 -4
-20 8 -19 36 -28 45 -13 4 7 11 9 14 6 10 -10 -2 -25 -24 -31 -27 -7 -80 37
-64 53 6 7 10 18 7 24 -2 7 10 12 33 13 29 1 33 -1 18 -7z m292 -8 c11 8 12 7
7 -6 -8 -21 -18 -20 -35 2 -11 14 -11 15 1 5 10 -9 17 -10 27 -1z m-1497 -49
c0 -13 -19 -19 -21 -5 0 4 -2 18 -5 32 -4 24 -3 24 11 6 8 -11 15 -26 15 -33z
m-55 27 c-3 -5 -1 -10 4 -10 6 0 11 -8 11 -17 -1 -17 -2 -16 -15 1 -13 17 -12
36 1 36 3 0 2 -4 -1 -10z m839 -1 c-3 -5 7 -4 21 1 33 13 38 13 30 0 -7 -11 8
-14 19 -3 17 17 36 10 36 -13 0 -20 -5 -24 -31 -24 -17 0 -28 4 -24 10 5 9
-54 16 -92 11 -7 -1 -13 5 -13 13 0 10 10 14 30 14 16 -1 27 -5 24 -9z m767
-19 c5 -3 0 -11 -11 -18 -12 -7 -21 -8 -25 -2 -3 6 -1 10 4 10 6 0 11 10 12
23 0 15 2 17 6 7 3 -8 10 -17 14 -20z m-1384 0 c-1 -11 -7 -20 -13 -20 -7 0
-14 -6 -17 -12 -3 -9 -11 -5 -26 11 -30 34 -27 41 18 41 34 0 40 -3 38 -20z
m373 10 c12 -8 11 -10 -7 -10 -12 0 -25 5 -28 10 -8 13 15 13 35 0z m935 -10
c17 -18 17 -20 2 -14 -12 4 -17 1 -17 -10 0 -13 -3 -14 -19 -4 -11 7 -17 16
-14 21 3 5 9 4 13 -3 6 -10 9 -9 15 0 4 7 1 16 -6 21 -8 5 -9 9 -3 9 6 0 19
-9 29 -20z m-1270 1 c3 -5 1 -12 -5 -16 -5 -3 -10 1 -10 9 0 18 6 21 15 7z
m1159 0 c4 -5 -3 -7 -14 -4 -23 6 -26 13 -6 13 8 0 17 -4 20 -9z m-407 -18 c4
-9 1 -19 -5 -21 -7 -2 -10 -8 -6 -13 3 -5 0 -9 -5 -9 -15 0 -14 -30 2 -31 9 0
9 -2 -1 -6 -6 -2 -10 -9 -7 -13 3 -5 0 -12 -6 -15 -7 -5 -9 12 -5 56 6 76 4
69 16 69 6 0 14 -8 17 -17z m-660 -55 c-2 -13 -4 -3 -4 22 0 25 2 35 4 23 2
-13 2 -33 0 -45z m384 55 c0 -5 2 -17 4 -28 4 -20 4 -20 -11 -1 -8 11 -14 23
-14 28 0 10 20 11 21 1z m-568 -104 c-6 -31 7 -41 57 -43 16 -1 34 -11 45 -25
l18 -23 -24 15 c-31 19 -156 32 -174 17 -23 -19 -60 7 -63 43 -2 17 -4 33 -6
35 -9 8 28 40 41 35 8 -3 13 0 11 8 -2 8 3 13 10 12 6 -2 11 0 11 5 -3 20 4
18 41 -15 33 -30 38 -40 33 -64z m1058 44 c2 1 -3 -4 -11 -11 -12 -10 -17 -10
-26 3 -6 8 -13 14 -15 12 -2 -1 3 4 11 11 12 10 17 10 26 -3 6 -8 13 -14 15
-12z m-824 -5 c-3 -8 -6 -5 -6 6 -1 11 2 17 5 13 3 -3 4 -12 1 -19z m1190 9
c5 15 23 1 42 -35 13 -25 3 -29 -32 -11 l-22 12 20 -24 c11 -13 13 -19 5 -13
-23 17 -49 14 -42 -5 5 -14 3 -14 -11 -2 -9 7 -17 9 -17 3 0 -7 -8 -6 -24 1
-14 7 -23 14 -21 16 3 2 -1 13 -7 24 -9 17 -8 19 6 14 9 -4 16 -2 16 3 0 5 7
7 15 4 8 -4 15 -1 15 6 0 6 5 8 10 5 6 -3 10 -1 10 6 0 8 5 7 17 -2 12 -11 17
-11 20 -2z m-661 -14 c7 -10 13 -25 14 -33 0 -8 -6 -4 -13 10 -16 31 -43 37
-68 14 -23 -21 -26 -12 -3 10 21 21 54 20 70 -1z m144 7 c0 -5 -7 -10 -15 -10
-8 0 -15 5 -15 10 0 6 7 10 15 10 8 0 15 -4 15 -10z m-598 -47 c3 -27 7 -55
10 -63 2 -8 3 -13 1 -10 -1 3 -43 4 -93 2 l-90 -3 0 30 0 30 57 -5 c39 -3 59
-1 65 8 6 10 8 10 8 -2 1 -25 20 11 20 38 0 42 18 22 22 -25z m975 32 c0 -8
-4 -12 -9 -9 -5 3 -6 10 -3 15 9 13 12 11 12 -6z m-641 -22 c15 -20 19 -87 5
-78 -5 3 -13 1 -16 -5 -5 -8 -11 -8 -19 0 -10 8 -11 21 -3 55 12 50 14 52 33
28z m96 -20 c2 -22 9 -29 31 -31 25 -3 40 -32 16 -32 -5 0 -7 5 -4 10 3 6 -3
10 -15 10 -12 0 -18 -4 -15 -10 3 -5 1 -10 -4 -10 -6 0 -11 7 -11 15 0 8 -8
15 -17 15 -17 1 -62 50 -46 50 5 0 14 -9 21 -20 17 -28 30 -25 24 5 -2 14 0
25 6 25 6 0 12 -12 14 -27z m308 18 c0 -16 -18 -22 -23 -9 -3 8 -6 6 -6 -4 -1
-10 -5 -18 -11 -18 -14 0 -13 13 2 28 14 14 38 16 38 3z m-589 -31 c15 0 31 5
34 10 11 18 24 1 23 -30 -1 -23 -7 -32 -24 -36 -13 -3 -29 -4 -36 -1 -7 3 -1
6 15 6 20 1 27 6 27 21 0 16 -7 20 -36 20 -32 0 -36 -3 -32 -23 4 -20 0 -22
-39 -25 -24 -1 -43 -1 -43 1 0 2 10 12 22 23 12 10 18 14 15 8 -4 -7 -1 -14 7
-17 16 -6 30 19 16 28 -5 3 -6 13 -3 21 4 11 9 12 16 5 6 -6 23 -11 38 -11z
m686 -8 c1 -11 -6 -18 -18 -18 -12 0 -18 5 -14 14 3 7 5 18 5 23 0 16 26 -1
27 -19z m33 16 c0 6 4 12 9 12 4 0 6 -17 4 -37 -5 -46 -13 -56 -13 -17 0 22
-3 26 -10 14 -7 -12 -10 -8 -10 15 0 23 3 27 10 15 6 -10 10 -11 10 -2z m219
-36 c20 3 30 1 28 -6 -4 -12 -43 -13 -69 -1 -13 5 -18 3 -18 -11 0 -9 -3 -15
-6 -11 -4 3 -3 18 0 33 6 24 8 25 20 9 9 -13 22 -16 45 -13z m-389 8 c0 -5 -5
-10 -11 -10 -5 0 -7 5 -4 10 3 6 8 10 11 10 2 0 4 -4 4 -10z m437 -27 c-3 -10
-5 -4 -5 12 0 17 2 24 5 18 2 -7 2 -21 0 -30z m-525 0 c4 -14 -2 -18 -24 -20
-15 -1 -28 2 -28 7 0 5 7 7 15 4 8 -4 17 1 21 10 8 20 11 20 16 -1z m233 -3
c-3 -5 -14 -10 -23 -9 -14 0 -13 2 3 9 27 11 27 11 20 0z m-308 -6 c-3 -3 -12
-4 -19 -1 -8 3 -5 6 6 6 11 1 17 -2 13 -5z"/>
<path d="M916 1142 c-2 -4 4 -8 14 -8 10 0 16 4 14 8 -3 4 -9 8 -14 8 -5 0
-11 -4 -14 -8z"/>
<path d="M914 1059 c-3 -5 6 -9 20 -9 31 0 34 6 6 13 -11 3 -23 1 -26 -4z"/>
<path d="M1671 794 c0 -11 3 -14 6 -6 3 7 2 16 -1 19 -3 4 -6 -2 -5 -13z"/>
<path d="M1660 756 c0 -9 7 -16 16 -16 9 0 14 5 12 12 -6 18 -28 21 -28 4z"/>
<path d="M330 876 c0 -8 4 -17 9 -20 5 -4 7 3 4 14 -6 23 -13 26 -13 6z"/>
<path d="M356 875 c4 -8 10 -12 15 -9 11 6 2 24 -11 24 -5 0 -7 -7 -4 -15z"/>
<path d="M220 840 c0 -5 5 -10 10 -10 6 0 10 5 10 10 0 6 -4 10 -10 10 -5 0
-10 -4 -10 -10z"/>
<path d="M730 775 c0 -8 9 -15 20 -15 11 0 20 7 20 15 0 8 -9 15 -20 15 -11 0
-20 -7 -20 -15z"/>
<path d="M1666 608 c3 -5 10 -6 15 -3 13 9 11 12 -6 12 -8 0 -12 -4 -9 -9z"/>
<path d="M1601 593 c-1 -23 22 -32 34 -13 3 5 0 7 -9 4 -8 -3 -16 2 -19 13 -4
14 -5 14 -6 -4z"/>
<path d="M966 585 c4 -8 12 -15 20 -15 8 0 14 7 14 15 0 8 -9 15 -20 15 -13 0
-18 -5 -14 -15z"/>
<path d="M265 541 c-6 -11 13 -26 22 -17 4 3 0 6 -8 6 -11 0 -11 2 1 10 9 6
10 10 3 10 -6 0 -14 -4 -18 -9z"/>
<path d="M520 529 c0 -5 4 -8 9 -5 5 4 11 0 14 -6 2 -7 8 -10 12 -6 4 4 4 11
0 17 -8 14 -35 14 -35 0z"/>
<path d="M168 213 c6 -2 18 -2 25 0 6 3 1 5 -13 5 -14 0 -19 -2 -12 -5z"/>
<path d="M214 213 c10 -10 46 -11 46 -1 0 4 -12 8 -27 8 -14 0 -23 -3 -19 -7z"/>
</g>
</svg>
