<?xml version="1.0" standalone="no"?>
<!DOCTYPE svg PUBLIC "-//W3C//DTD SVG 20010904//EN"
 "http://www.w3.org/TR/2001/REC-SVG-20010904/DTD/svg10.dtd">
<svg version="1.0" xmlns="http://www.w3.org/2000/svg"
 width="240.000000pt" height="240.000000pt" viewBox="0 0 240.000000 240.000000"
 preserveAspectRatio="xMidYMid meet">

<g transform="translate(0.000000,240.000000) scale(0.100000,-0.100000)"
fill="#000000" stroke="none">
<path d="M0 1200 l0 -1200 1200 0 1200 0 0 1200 0 1200 -1200 0 -1200 0 0
-1200z m688 206 c22 -11 22 -13 6 -26 -9 -8 -29 -13 -44 -12 -47 5 -45 -17 3
-37 70 -30 76 -90 11 -117 -27 -11 -43 -12 -74 -4 -60 16 -48 45 19 45 48 0
49 20 2 38 -49 20 -65 46 -51 82 16 41 81 58 128 31z m1293 -9 c57 -39 64
-115 13 -162 -73 -67 -194 -17 -194 80 0 37 16 63 53 85 42 26 86 25 128 -3z
m-1686 -10 c17 -14 28 -36 32 -63 5 -36 1 -46 -25 -75 -27 -31 -35 -34 -101
-37 l-71 -4 0 101 0 101 69 0 c58 0 74 -4 96 -23z m215 4 c0 -16 -8 -20 -37
-23 -27 -2 -39 -8 -41 -20 -3 -15 4 -18 38 -18 34 0 41 -3 38 -17 -2 -13 -14
-19 -41 -21 -53 -5 -49 -30 6 -34 34 -2 42 -7 42 -23 0 -18 -8 -20 -67 -23
l-68 -3 0 101 0 100 65 0 c58 0 65 -2 65 -19z m390 0 c0 -14 -8 -21 -27 -23
-28 -3 -28 -4 -31 -81 l-3 -78 -27 3 c-26 3 -27 5 -32 78 -5 68 -7 75 -27 78
-15 2 -23 10 -23 23 0 17 8 19 85 19 77 0 85 -2 85 -19z m90 -81 l0 -100 -30
0 -30 0 0 100 0 100 30 0 30 0 0 -100z m152 43 l33 -58 3 58 c3 56 3 57 33 57
l31 0 -4 -97 -3 -98 -32 -3 c-28 -3 -34 1 -59 47 -15 28 -31 51 -36 51 -4 0
-8 -22 -8 -50 0 -47 -2 -50 -25 -50 l-25 0 0 100 0 100 29 0 c25 0 34 -8 63
-57z m314 -36 c19 -49 34 -93 34 -98 0 -15 -57 -10 -64 6 -3 10 -19 15 -45 15
-25 0 -41 -5 -45 -15 -7 -20 -56 -20 -56 0 0 9 12 44 26 78 15 34 30 72 35 85
7 19 15 23 45 20 35 -3 36 -5 70 -91z m202 71 c-2 -17 -9 -22 -25 -20 -22 3
-23 0 -24 -60 -2 -93 -2 -93 -31 -96 l-28 -3 0 76 0 76 -30 6 c-21 4 -30 11
-30 24 0 17 9 19 86 19 83 0 85 -1 82 -22z m102 -78 l0 -100 -30 0 -30 0 0
100 0 100 30 0 30 0 0 -100z m412 43 l33 -58 3 58 c3 57 4 58 30 55 l26 -3 -1
-95 0 -95 -31 -3 c-27 -3 -33 2 -59 47 -15 28 -31 51 -35 51 -5 0 -8 -22 -8
-50 0 -47 -2 -50 -25 -50 l-25 0 0 100 0 100 29 0 c25 0 34 -8 63 -57z m-1233
-314 c51 -18 34 -45 -26 -41 -45 3 -44 -23 2 -38 58 -19 71 -65 30 -105 -26
-27 -68 -32 -109 -14 -20 9 -23 16 -16 29 8 14 18 17 50 13 55 -8 54 16 -2 42
-34 16 -44 26 -46 48 -4 31 11 55 43 67 28 12 37 12 74 -1z m330 0 c17 -6 31
-14 31 -19 0 -16 -30 -31 -50 -25 -32 10 -70 -19 -70 -55 0 -35 23 -60 56 -60
19 0 24 4 22 18 -2 9 -10 16 -16 15 -7 -2 -12 8 -12 22 0 23 4 25 40 25 l40 0
0 -55 c0 -43 -4 -56 -19 -65 -48 -25 -139 1 -160 46 -27 61 -5 124 53 150 38
16 45 17 85 3z m640 0 c17 -6 31 -14 31 -18 0 -18 -25 -29 -57 -24 -30 5 -35
3 -32 -12 2 -10 17 -22 32 -26 41 -11 57 -28 57 -59 0 -42 -44 -73 -94 -67
-45 6 -61 19 -53 41 5 13 15 15 47 10 55 -9 54 16 -2 42 -34 15 -44 25 -46 47
-4 33 19 64 52 70 11 2 24 5 27 6 3 0 20 -4 38 -10z m-1389 -99 l0 -100 -30 0
-30 0 0 100 0 100 30 0 30 0 0 -100z m151 45 c17 -30 36 -55 41 -55 7 0 9 20
5 55 l-6 55 30 0 29 0 0 -100 0 -100 -33 0 c-29 0 -36 6 -62 50 -16 28 -33 50
-37 50 -4 0 -8 -22 -8 -50 0 -47 -2 -50 -25 -50 l-25 0 0 100 0 100 30 0 c26
0 34 -8 61 -55z m399 -45 l0 -100 -28 0 -28 0 0 100 0 100 28 0 28 0 0 -100z
m350 65 c0 -34 1 -35 40 -35 39 0 40 1 40 35 0 32 2 35 30 35 l30 0 0 -100 0
-100 -30 0 c-28 0 -30 2 -30 40 l0 40 -40 0 -40 0 0 -40 c0 -37 -2 -40 -29
-40 -29 0 -29 0 -26 58 2 31 4 76 4 100 1 38 3 42 26 42 22 0 25 -4 25 -35z
m338 13 c-2 -17 -11 -24 -30 -26 -28 -3 -28 -4 -28 -78 0 -72 -1 -74 -25 -74
-24 0 -25 2 -25 74 0 74 0 75 -27 78 -20 2 -29 9 -31 26 -3 21 -1 22 83 22 84
0 86 -1 83 -22z"/>
<path d="M1880 1350 c-24 -24 -25 -38 -4 -68 20 -29 59 -29 79 2 24 37 -2 86
-46 86 -5 0 -18 -9 -29 -20z"/>
<path d="M190 1316 c0 -53 1 -56 24 -56 31 0 56 25 56 54 0 28 -15 42 -53 51
l-27 7 0 -56z"/>
<path d="M1378 1354 c-3 -5 -9 -24 -13 -41 -6 -31 -5 -33 19 -33 24 0 26 3 20
28 -9 37 -20 56 -26 46z"/>
</g>
</svg>
