<?xml version="1.0" standalone="no"?>
<!DOCTYPE svg PUBLIC "-//W3C//DTD SVG 20010904//EN"
 "http://www.w3.org/TR/2001/REC-SVG-20010904/DTD/svg10.dtd">
<svg version="1.0" xmlns="http://www.w3.org/2000/svg"
 width="1000.000000pt" height="1080.000000pt" viewBox="0 0 1000.000000 1080.000000"
 preserveAspectRatio="xMidYMid meet">

<g transform="translate(0.000000,1080.000000) scale(0.100000,-0.100000)"
fill="#000000" stroke="none">
<path d="M4965 10396 c-16 -8 -107 -92 -202 -187 -234 -238 -235 -240 -57
-419 63 -64 114 -119 114 -123 0 -4 -103 -7 -229 -7 -325 0 -311 15 -311 -347
0 -230 2 -250 20 -281 11 -18 34 -41 52 -52 32 -19 52 -20 571 -20 598 0 586
-1 627 66 20 31 21 45 18 299 l-3 267 -37 34 -38 34 -107 0 -108 0 -250 250
-250 250 90 91 c101 101 134 123 174 114 18 -4 151 -130 411 -390 379 -379
385 -385 385 -425 0 -38 -7 -47 -129 -169 -109 -109 -127 -132 -124 -155 3
-25 13 -17 145 116 149 151 165 177 148 245 -8 36 -756 789 -802 809 -40 17
-69 17 -108 0z m-58 -518 c112 -112 203 -206 203 -210 0 -5 -20 -8 -44 -8 -34
0 -52 6 -72 25 -15 14 -34 25 -42 25 -10 0 -12 -7 -8 -25 6 -22 3 -25 -21 -25
-23 0 -54 26 -163 135 -128 128 -135 137 -135 175 0 31 7 46 35 75 19 19 36
35 39 35 3 0 97 -91 208 -202z m597 -289 c25 -30 26 -34 26 -175 l0 -144 -605
0 -605 0 0 146 0 146 29 29 29 29 550 0 550 0 26 -31z m26 -464 c0 -24 -5 -55
-11 -68 -24 -52 -21 -52 -601 -52 l-540 0 -29 33 c-24 26 -29 41 -29 82 l0 50
605 0 605 0 0 -45z"/>
<path d="M4683 9955 c-6 -17 72 -95 95 -95 24 0 11 31 -29 70 -45 44 -57 48
-66 25z"/>
<path d="M4810 9827 c0 -15 76 -97 90 -97 26 0 18 27 -21 66 -43 44 -69 56
-69 31z"/>
<path d="M4395 9568 c-3 -13 -5 -63 -3 -113 l3 -90 148 -3 148 -3 -3 113 -3
113 -142 3 c-141 3 -143 2 -148 -20z m253 -95 l3 -73 -106 0 -105 0 0 75 0 76
103 -3 102 -3 3 -72z"/>
<path d="M5005 9550 c-16 -26 14 -30 226 -30 205 0 220 1 217 18 -3 15 -23 17
-220 20 -139 1 -219 -1 -223 -8z"/>
<path d="M5008 9473 c-23 -29 6 -33 218 -33 184 0 215 2 221 15 3 9 3 18 0 21
-2 3 -100 6 -217 7 -155 1 -214 -1 -222 -10z"/>
<path d="M4402 9088 c-22 -22 7 -38 69 -38 61 0 79 11 59 35 -15 18 -111 20
-128 3z"/>
<path d="M4584 9085 c-10 -26 7 -35 67 -35 45 0 61 4 66 16 9 23 -15 34 -75
34 -37 0 -54 -4 -58 -15z"/>
<path d="M4764 9085 c-11 -27 10 -36 72 -33 51 3 59 6 59 23 0 18 -8 20 -63
23 -50 2 -63 0 -68 -13z"/>
<path d="M4953 9089 c-25 -25 -2 -39 62 -39 66 0 85 11 65 35 -15 18 -111 20
-127 4z"/>
<path d="M5134 9085 c-11 -27 10 -36 72 -33 51 3 59 6 59 23 0 18 -8 20 -63
23 -50 2 -63 0 -68 -13z"/>
<path d="M5321 9091 c-8 -5 -11 -16 -8 -25 6 -14 19 -16 69 -14 55 3 63 5 63
23 0 17 -8 20 -55 23 -30 1 -61 -2 -69 -7z"/>
<path d="M4185 10290 c-4 -6 15 -10 49 -10 31 0 56 5 56 10 0 6 -22 10 -49 10
-28 0 -53 -4 -56 -10z"/>
<path d="M4370 10290 c0 -5 23 -10 50 -10 28 0 50 5 50 10 0 6 -22 10 -50 10
-27 0 -50 -4 -50 -10z"/>
<path d="M4550 10290 c0 -5 25 -10 56 -10 34 0 53 4 49 10 -3 6 -28 10 -56 10
-27 0 -49 -4 -49 -10z"/>
<path d="M4954 10227 c-34 -31 -39 -41 -39 -81 0 -41 5 -50 50 -96 57 -58 99
-76 141 -60 66 25 99 90 75 149 -7 15 -32 47 -56 71 -34 34 -52 43 -88 47 -41
5 -48 2 -83 -30z m141 -48 c53 -49 64 -79 41 -115 -32 -48 -83 -48 -134 -1
-42 38 -55 75 -41 108 25 62 73 64 134 8z"/>
<path d="M6070 10070 c0 -5 23 -10 50 -10 28 0 50 5 50 10 0 6 -22 10 -50 10
-27 0 -50 -4 -50 -10z"/>
<path d="M6250 10070 c0 -5 25 -10 55 -10 30 0 55 5 55 10 0 6 -25 10 -55 10
-30 0 -55 -4 -55 -10z"/>
<path d="M6435 10070 c3 -5 28 -10 56 -10 27 0 49 5 49 10 0 6 -25 10 -56 10
-34 0 -53 -4 -49 -10z"/>
<path d="M3552 9953 c-45 -32 -81 -63 -82 -69 0 -11 148 -114 163 -114 4 0 7
6 7 13 0 6 -26 28 -58 47 -47 29 -53 36 -34 38 27 4 29 22 2 22 -33 0 -23 14
35 55 30 20 55 44 55 51 0 8 -2 14 -3 14 -2 0 -40 -26 -85 -57z"/>
<path d="M3640 9868 c0 -8 19 -19 43 -26 23 -7 48 -15 55 -18 6 -3 12 1 12 8
0 13 -24 24 -87 43 -16 4 -23 2 -23 -7z"/>
<path d="M5443 9854 c-4 -11 37 -59 143 -165 82 -82 154 -149 160 -149 38 0 9
40 -130 179 -83 83 -155 151 -159 151 -4 0 -10 -7 -14 -16z"/>
<path d="M5391 9806 c-10 -12 13 -39 140 -165 139 -139 186 -174 177 -137 -3
13 -132 150 -255 269 -42 41 -52 46 -62 33z"/>
<path d="M3095 9782 c-114 -54 -170 -163 -144 -281 33 -155 211 -238 356 -166
108 54 157 174 122 298 -12 45 -59 100 -114 135 -54 35 -162 41 -220 14z m157
-32 c67 -19 123 -83 142 -162 11 -47 -13 -127 -51 -169 -124 -137 -356 -50
-356 135 0 142 126 234 265 196z"/>
<path d="M3167 9734 c-4 -4 -7 -13 -7 -20 0 -7 -13 -26 -30 -42 -18 -19 -30
-41 -30 -57 0 -17 11 -37 30 -55 18 -17 30 -38 29 -52 0 -15 -3 -18 -6 -8 -8
20 -23 29 -40 23 -22 -8 -15 -43 15 -73 15 -15 32 -36 38 -46 15 -25 38 -24
43 1 2 11 14 33 27 48 31 37 30 68 -1 105 -28 33 -35 63 -10 42 8 -6 19 -9 25
-5 17 11 11 42 -14 72 -13 15 -25 37 -27 48 -4 20 -29 31 -42 19z m-10 -126
c-3 -7 -5 -2 -5 12 0 14 2 19 5 13 2 -7 2 -19 0 -25z"/>
<path d="M3840 9769 c50 -43 70 -53 70 -35 0 17 -67 66 -90 66 -9 -1 -2 -12
20 -31z"/>
<path d="M6733 9676 c-104 -34 -176 -98 -222 -196 -23 -50 -26 -66 -25 -170 0
-96 4 -123 22 -163 27 -59 104 -142 155 -169 36 -18 39 -22 33 -50 -3 -17 -6
-37 -6 -45 0 -8 -29 -27 -65 -44 -55 -25 -80 -30 -158 -32 -111 -3 -173 -28
-217 -89 -40 -54 -50 -115 -50 -291 0 -162 5 -197 25 -197 21 0 25 36 25 223
0 202 7 228 68 275 31 23 46 27 116 30 l81 3 127 -126 c78 -77 131 -123 140
-120 8 3 24 -5 36 -17 19 -21 22 -36 24 -143 2 -99 6 -120 18 -120 12 0 16 21
18 120 2 105 5 122 23 141 12 13 26 21 33 18 6 -2 67 52 136 121 l125 125 73
0 c79 0 101 -7 145 -49 50 -45 52 -55 57 -271 4 -173 7 -205 20 -205 23 0 27
372 5 432 -36 94 -136 146 -272 142 -42 -1 -78 6 -129 26 l-72 27 -7 45 c-3
25 -5 46 -3 47 2 1 24 14 49 29 60 34 115 96 147 166 23 49 27 69 26 161 0 94
-3 112 -28 167 -34 74 -113 153 -183 184 -62 28 -227 36 -290 15z m278 -58
c100 -46 164 -131 180 -242 9 -62 2 -166 -11 -166 -4 0 -19 31 -34 68 -14 38
-33 77 -40 87 -13 18 -15 17 -49 -4 l-35 -21 -28 71 c-15 39 -34 73 -41 76 -8
3 -40 -13 -72 -36 -33 -22 -66 -43 -74 -47 -9 -3 -37 11 -67 32 l-51 37 -44
-43 c-25 -24 -46 -42 -47 -39 -2 2 -10 25 -19 52 -17 47 -17 47 10 85 35 48
99 92 159 109 74 20 196 12 263 -19z m-456 -243 c21 -70 38 -71 94 -5 l42 49
48 -34 c27 -19 52 -35 57 -35 5 0 36 18 69 40 33 22 63 40 66 40 4 0 19 -28
34 -62 40 -90 41 -92 80 -68 38 24 34 28 79 -80 l35 -83 -19 -27 c-31 -43 -90
-91 -139 -113 -36 -16 -68 -21 -141 -21 -82 0 -103 3 -152 26 -109 50 -177
149 -186 270 -4 61 4 158 13 158 3 0 12 -25 20 -55z m420 -476 c5 -31 -1 -49
-50 -132 -31 -54 -60 -99 -65 -102 -12 -8 -130 178 -130 205 0 65 1 66 125 65
l114 0 6 -36z m-211 -180 l68 -101 -23 -24 c-12 -13 -27 -24 -33 -24 -6 0 -56
45 -110 99 l-99 100 54 25 c30 13 59 25 65 25 6 1 41 -44 78 -100z m314 79
c34 -13 62 -25 62 -28 0 -3 -45 -50 -100 -105 l-99 -99 -26 24 c-14 13 -25 27
-25 31 0 11 113 199 119 199 4 0 34 -10 69 -22z m-201 -265 c-16 -16 -18 -16
-33 -1 -13 13 -14 19 -3 37 14 21 14 21 34 1 18 -19 18 -21 2 -37z"/>
<path d="M6632 9273 c3 -15 13 -18 58 -18 42 0 55 3 55 15 0 11 -14 16 -58 18
-52 3 -58 1 -55 -15z"/>
<path d="M6885 9280 c-12 -20 7 -30 61 -30 47 0 54 2 54 20 0 18 -7 20 -54 20
-30 0 -58 -4 -61 -10z"/>
<path d="M3960 9668 c1 -19 67 -94 76 -85 8 8 -47 89 -65 95 -6 2 -11 -2 -11
-10z"/>
<path d="M2580 9605 c0 -30 5 -55 10 -55 6 0 10 25 10 55 0 30 -4 55 -10 55
-5 0 -10 -25 -10 -55z"/>
<path d="M4060 9509 c0 -24 33 -109 42 -109 12 0 3 59 -14 96 -11 24 -28 33
-28 13z"/>
<path d="M2580 9420 c0 -27 5 -50 10 -50 6 0 10 23 10 50 0 28 -4 50 -10 50
-5 0 -10 -22 -10 -50z"/>
<path d="M4102 9298 c4 -46 28 -49 28 -4 0 26 -4 36 -16 36 -11 0 -14 -8 -12
-32z"/>
<path d="M2580 9234 c0 -34 4 -53 10 -49 6 3 10 28 10 56 0 27 -4 49 -10 49
-5 0 -10 -25 -10 -56z"/>
<path d="M2880 9246 c0 -26 4 -36 16 -36 11 0 14 8 12 32 -4 46 -28 49 -28 4z"/>
<path d="M3723 9210 c-161 -38 -241 -224 -158 -366 97 -165 344 -160 433 10
71 137 -1 306 -149 350 -57 17 -76 18 -126 6z m165 -68 c17 -13 44 -40 60 -59
24 -32 27 -45 27 -113 0 -86 -20 -127 -80 -169 -139 -95 -325 5 -325 174 0 56
45 132 97 166 44 28 54 30 118 27 54 -2 78 -9 103 -26z"/>
<path d="M3723 9080 c-17 -10 -37 -28 -43 -39 -6 -12 -17 -21 -26 -21 -20 0
-29 -27 -14 -45 9 -10 9 -15 1 -15 -19 0 -12 -32 9 -37 11 -3 20 -9 20 -13 0
-22 55 -71 92 -81 33 -9 49 -7 85 6 48 18 74 52 52 66 -8 5 -26 0 -45 -12 -38
-23 -82 -25 -112 -3 -31 22 -27 34 12 34 49 0 61 39 12 41 -15 0 -16 2 -6 6
50 19 42 53 -14 53 l-31 0 30 21 c35 23 86 20 116 -7 20 -18 53 -12 47 9 -3 6
-19 22 -38 35 -41 28 -103 29 -147 2z"/>
<path d="M2900 9127 c0 -24 32 -107 41 -107 13 0 11 20 -7 73 -15 44 -34 63
-34 34z"/>
<path d="M5797 9064 c-19 -20 29 -24 269 -24 228 0 264 2 264 15 0 13 -36 15
-263 15 -145 0 -267 -3 -270 -6z"/>
<path d="M2970 8954 c0 -12 61 -94 70 -94 17 0 11 18 -17 59 -24 35 -53 54
-53 35z"/>
<path d="M7835 8880 c-66 -22 -111 -42 -112 -51 -2 -15 157 -159 176 -159 12
0 13 4 40 140 11 52 17 98 13 101 -4 4 -56 -10 -117 -31z m92 -13 c-2 -7 -11
-45 -18 -85 -7 -39 -17 -72 -21 -72 -10 0 -126 102 -127 112 -1 7 134 56 158
57 7 1 11 -5 8 -12z"/>
<path d="M3100 8807 c0 -15 68 -67 88 -67 22 0 12 15 -31 45 -54 38 -57 40
-57 22z"/>
<path d="M3380 8760 c0 -5 26 -26 58 -47 54 -36 56 -38 30 -41 -38 -5 -35 -20
5 -24 l32 -3 -62 -44 c-60 -42 -76 -61 -52 -61 17 0 158 104 158 117 1 13
-142 113 -160 113 -5 0 -9 -4 -9 -10z"/>
<path d="M4715 8747 c-3 -7 -4 -120 -3 -252 l3 -240 417 -3 418 -2 2 180 3
181 123 56 c196 91 211 88 -421 91 -429 2 -539 0 -542 -11z m951 -34 c-4 -5
-39 -24 -79 -43 l-72 -35 -3 -172 -2 -173 -380 0 -380 0 0 215 0 215 462 0
c254 0 458 -3 454 -7z"/>
<path d="M4900 8660 c0 -5 14 -10 30 -10 17 0 30 5 30 10 0 6 -13 10 -30 10
-16 0 -30 -4 -30 -10z"/>
<path d="M5000 8660 c0 -5 14 -10 30 -10 17 0 30 5 30 10 0 6 -13 10 -30 10
-16 0 -30 -4 -30 -10z"/>
<path d="M5100 8660 c0 -5 14 -10 30 -10 17 0 30 5 30 10 0 6 -13 10 -30 10
-16 0 -30 -4 -30 -10z"/>
<path d="M5200 8660 c0 -5 14 -10 30 -10 17 0 30 5 30 10 0 6 -13 10 -30 10
-16 0 -30 -4 -30 -10z"/>
<path d="M5300 8660 c0 -5 14 -10 30 -10 17 0 30 5 30 10 0 6 -13 10 -30 10
-16 0 -30 -4 -30 -10z"/>
<path d="M4900 8560 c0 -5 14 -10 30 -10 17 0 30 5 30 10 0 6 -13 10 -30 10
-16 0 -30 -4 -30 -10z"/>
<path d="M5000 8560 c0 -5 14 -10 30 -10 17 0 30 5 30 10 0 6 -13 10 -30 10
-16 0 -30 -4 -30 -10z"/>
<path d="M5100 8560 c0 -5 14 -10 30 -10 17 0 30 5 30 10 0 6 -13 10 -30 10
-16 0 -30 -4 -30 -10z"/>
<path d="M5200 8560 c0 -5 14 -10 30 -10 17 0 30 5 30 10 0 6 -13 10 -30 10
-16 0 -30 -4 -30 -10z"/>
<path d="M5300 8560 c0 -5 14 -10 30 -10 17 0 30 5 30 10 0 6 -13 10 -30 10
-16 0 -30 -4 -30 -10z"/>
<path d="M4902 8458 c7 -20 58 -23 58 -4 0 11 -10 16 -31 16 -20 0 -29 -4 -27
-12z"/>
<path d="M5000 8454 c0 -11 8 -14 27 -12 39 4 42 28 4 28 -21 0 -31 -5 -31
-16z"/>
<path d="M5100 8455 c0 -10 10 -15 30 -15 20 0 30 5 30 15 0 10 -10 15 -30 15
-20 0 -30 -5 -30 -15z"/>
<path d="M5200 8454 c0 -11 8 -14 27 -12 39 4 42 28 4 28 -21 0 -31 -5 -31
-16z"/>
<path d="M5300 8455 c0 -12 7 -15 25 -13 14 2 26 8 26 13 0 6 -12 11 -26 13
-18 2 -25 -1 -25 -13z"/>
<path d="M4900 8355 c0 -10 10 -15 30 -15 20 0 30 5 30 15 0 10 -10 15 -30 15
-20 0 -30 -5 -30 -15z"/>
<path d="M5000 8355 c0 -10 10 -15 30 -15 20 0 30 5 30 15 0 10 -10 15 -30 15
-20 0 -30 -5 -30 -15z"/>
<path d="M5100 8355 c0 -10 10 -15 30 -15 20 0 30 5 30 15 0 10 -10 15 -30 15
-20 0 -30 -5 -30 -15z"/>
<path d="M5200 8355 c0 -10 10 -15 30 -15 20 0 30 5 30 15 0 10 -10 15 -30 15
-20 0 -30 -5 -30 -15z"/>
<path d="M5300 8355 c0 -12 7 -15 25 -13 14 2 26 8 26 13 0 6 -12 11 -26 13
-18 2 -25 -1 -25 -13z"/>
<path d="M3260 8708 c0 -9 18 -20 41 -27 23 -7 47 -15 55 -18 8 -3 14 1 14 9
0 9 -18 20 -41 27 -23 7 -47 15 -55 18 -8 3 -14 -1 -14 -9z"/>
<path d="M1744 8693 c9 -22 -10 -33 -61 -33 l-43 0 0 -400 0 -400 233 -2 232
-3 -3 -30 c-5 -40 -29 -79 -62 -99 -21 -12 -53 -16 -122 -16 -107 0 -158 -18
-201 -69 -35 -42 -38 -66 -35 -276 l3 -180 218 -3 217 -2 0 182 c1 275 16 298
215 308 94 4 115 9 143 28 38 28 72 89 72 131 l0 31 218 2 217 3 3 48 c3 42 5
47 28 47 l24 0 0 359 0 360 -22 4 -23 4 23 2 c12 0 22 6 22 11 0 7 -224 10
-651 10 -604 0 -651 -1 -645 -17z m933 -20 c-169 -2 -445 -2 -615 0 -169 1
-30 2 308 2 338 0 477 -1 307 -2z m-934 -385 c-1 -183 2 -322 7 -308 8 24 8
24 9 3 1 -23 2 -23 166 -23 l165 0 2 83 1 82 7 -105 c4 -58 5 -108 3 -112 -2
-5 -98 -8 -214 -8 l-209 0 0 360 0 360 33 0 32 0 -2 -332z m1199 -81 l3 -307
-198 0 -198 0 3 28 3 27 188 3 187 2 0 288 c0 158 -4 301 -9 319 -7 23 -6 33
2 36 15 5 16 -14 19 -396z m-1088 163 c-6 -6 -10 -3 -10 10 0 13 4 16 10 10 7
-7 7 -13 0 -20z m900 22 c3 -5 -1 -9 -9 -9 -8 0 -12 4 -9 9 3 4 7 8 9 8 2 0 6
-4 9 -8z m86 -18 c0 -2 -9 0 -20 6 -11 6 -20 13 -20 16 0 2 9 0 20 -6 11 -6
20 -13 20 -16z m-19 -46 c2 -24 3 -60 1 -80 -3 -36 -5 -38 -37 -38 l-34 0 -3
68 -3 67 -432 0 c-237 0 -430 2 -427 4 14 14 128 19 505 20 l427 1 3 -42z
m-918 -180 c9 -6 8 -8 -3 -8 -8 -1 -2 -8 13 -16 16 -9 26 -18 23 -21 -3 -3
-17 2 -31 11 -24 16 -25 19 -23 119 l2 102 3 -90 c3 -55 8 -92 16 -97z m807
107 l0 -45 -80 0 c-64 0 -80 3 -80 15 0 11 12 15 50 15 43 0 50 3 50 20 0 20
-7 20 -305 20 -298 0 -305 0 -305 -20 0 -16 7 -20 36 -20 24 0 34 -4 32 -12
-3 -8 -32 -15 -80 -18 l-75 -5 0 48 0 47 379 0 378 0 0 -45z m-200 -30 c0 -13
-27 -15 -180 -15 -153 0 -180 2 -180 15 0 13 27 15 180 15 153 0 180 -2 180
-15z m337 -33 c-21 -20 -27 -14 -20 20 5 24 7 26 21 12 13 -14 13 -17 -1 -32z
m-690 -24 c-3 -8 -6 -5 -6 6 -1 11 2 17 5 13 3 -3 4 -12 1 -19z m69 -15 c-11
-11 -46 -14 -46 -3 0 6 12 10 27 10 14 0 23 -3 19 -7z m499 -23 c-3 -5 -11
-10 -16 -10 -6 0 -7 5 -4 10 3 6 11 10 16 10 6 0 7 -4 4 -10z m-62 -7 c-18 -2
-48 -2 -65 0 -18 2 -4 4 32 4 36 0 50 -2 33 -4z m137 -19 c0 -8 -4 -12 -10 -9
-5 3 -10 10 -10 16 0 5 5 9 10 9 6 0 10 -7 10 -16z m-300 -4 c0 -5 -4 -10 -10
-10 -5 0 -10 5 -10 10 0 6 5 10 10 10 6 0 10 -4 10 -10z m-36 -15 c-4 -8 -13
-15 -22 -15 -13 0 -12 3 4 15 24 18 25 18 18 0z m-117 -2 c-20 -2 -52 -2 -70
0 -17 2 0 4 38 4 39 0 53 -2 32 -4z m-158 -61 c7 -13 6 -19 -2 -19 -7 0 -13 9
-13 19 0 10 1 18 3 18 1 0 7 -8 12 -18z m302 -15 c-8 -8 -11 -8 -11 2 0 7 -5
9 -12 4 -7 -4 -24 -9 -38 -10 -19 -2 -17 1 10 11 19 7 38 11 43 9 4 -2 7 2 8
9 0 10 2 10 6 0 3 -8 0 -19 -6 -25z m-236 4 c43 -4 45 -11 3 -11 -22 0 -41 7
-49 18 -12 15 -12 16 1 7 8 -6 29 -12 45 -14z m249 -47 c3 -9 6 -48 6 -87 0
-54 -5 -80 -20 -104 -34 -56 -60 -63 -240 -63 l-161 0 19 20 c27 29 42 87 42
162 l0 65 153 -5 c132 -4 156 -2 168 11 18 21 25 21 33 1z m-374 -300 c0 -4
-10 -23 -22 -43 -21 -33 -23 -50 -26 -218 l-4 -183 -179 0 -179 0 0 170 c0
179 5 204 48 243 11 10 33 22 48 27 33 10 314 13 314 4z"/>
<path d="M2217 7913 c-4 -3 -7 -12 -7 -20 0 -10 28 -13 125 -13 118 0 125 1
125 20 0 19 -7 20 -118 20 -65 0 -122 -3 -125 -7z"/>
<path d="M1775 7529 c-15 -23 16 -30 131 -27 98 2 119 6 119 18 0 12 -21 15
-122 18 -81 2 -124 -1 -128 -9z"/>
<path d="M1776 7455 c-8 -23 8 -26 135 -23 93 2 114 6 114 18 0 23 -240 28
-249 5z"/>
<path d="M1782 7388 c-8 -8 -9 -15 -1 -25 8 -9 41 -13 114 -13 110 0 135 5
135 25 0 20 -25 25 -134 25 -65 0 -106 -4 -114 -12z"/>
<path d="M1776 7312 c-2 -4 -1 -14 3 -20 5 -9 40 -12 127 -10 98 2 119 6 119
18 0 12 -21 15 -122 18 -67 1 -124 -1 -127 -6z"/>
<path d="M3930 8610 c0 -6 100 -10 280 -10 180 0 280 4 280 10 0 6 -100 10
-280 10 -180 0 -280 -4 -280 -10z"/>
<path d="M7967 8578 c-118 -16 -241 -109 -295 -226 -24 -50 -27 -69 -27 -162
0 -98 2 -110 31 -167 25 -52 27 -62 13 -60 -19 2 -522 -525 -527 -553 -3 -19
125 -142 143 -138 23 6 520 542 519 560 -1 22 -1 22 44 -1 136 -70 323 -36
440 79 92 91 136 223 112 343 -43 222 -229 356 -453 325z m225 -74 c214 -109
258 -392 88 -564 -170 -172 -453 -125 -568 95 -24 44 -27 61 -27 150 0 89 3
106 28 157 88 179 302 252 479 162z m-466 -734 c-29 -30 -135 -143 -236 -250
-101 -107 -187 -196 -191 -198 -24 -10 -3 27 51 86 33 37 60 72 60 79 0 29
-34 9 -94 -54 -35 -38 -67 -65 -70 -62 -3 3 79 95 182 203 103 109 191 205
196 213 5 10 4 18 -5 24 -10 6 -35 -12 -88 -66 -40 -41 -76 -75 -78 -75 -3 0
49 56 114 124 l118 125 48 -47 47 -46 -54 -56z m-392 -235 c-65 -69 -120 -125
-123 -125 -3 0 15 21 39 48 82 87 194 202 198 202 2 0 -50 -56 -114 -125z"/>
<path d="M7954 8521 c-53 -13 -119 -49 -149 -81 -38 -39 -25 -50 17 -15 95 81
236 100 339 47 30 -15 64 -34 76 -42 32 -20 42 -2 13 21 -73 59 -212 92 -296
70z"/>
<path d="M8226 7945 c-99 -87 -267 -90 -385 -5 -41 28 -59 25 -31 -5 65 -70
207 -102 312 -71 63 18 151 75 156 99 5 25 -9 20 -52 -18z"/>
<path d="M6502 8478 c-8 -8 -12 -49 -12 -114 0 -109 5 -134 25 -134 20 0 25
25 25 135 0 73 -4 106 -13 114 -10 8 -17 7 -25 -1z"/>
<path d="M7141 8476 c-8 -9 -11 -50 -9 -127 2 -93 6 -114 18 -114 12 0 16 21
18 119 3 119 -4 150 -27 122z"/>
<path d="M3920 8181 c-76 -23 -145 -83 -181 -158 -34 -67 -34 -188 -1 -254 52
-105 135 -160 253 -167 66 -4 84 -1 130 20 77 35 113 70 148 140 25 49 31 74
31 126 0 84 -14 129 -59 188 -54 72 -141 114 -229 113 -37 0 -78 -4 -92 -8z
m190 -52 c95 -43 150 -129 150 -234 -1 -147 -109 -255 -255 -255 -209 1 -329
241 -204 410 27 35 85 78 125 90 53 15 137 11 184 -11z"/>
<path d="M3830 7951 c0 -10 145 -121 159 -121 12 0 159 87 180 106 8 8 12 17
8 20 -3 4 -45 -16 -93 -45 -47 -28 -90 -51 -95 -51 -5 0 -39 23 -75 50 -64 49
-84 59 -84 41z"/>
<path d="M4970 8084 c0 -10 41 -35 120 -72 l120 -56 0 -178 0 -178 423 2 422
3 0 245 0 245 -542 3 c-491 2 -543 1 -543 -14z m1050 -234 l0 -210 -385 0
-385 0 0 170 0 171 -82 39 -82 40 467 0 467 0 0 -210z"/>
<path d="M5410 8000 c0 -5 16 -10 35 -10 19 0 35 5 35 10 0 6 -16 10 -35 10
-19 0 -35 -4 -35 -10z"/>
<path d="M5510 8000 c0 -5 16 -10 35 -10 19 0 35 5 35 10 0 6 -16 10 -35 10
-19 0 -35 -4 -35 -10z"/>
<path d="M5610 8000 c0 -5 16 -10 35 -10 19 0 35 5 35 10 0 6 -16 10 -35 10
-19 0 -35 -4 -35 -10z"/>
<path d="M5710 8000 c0 -5 16 -10 35 -10 19 0 35 5 35 10 0 6 -16 10 -35 10
-19 0 -35 -4 -35 -10z"/>
<path d="M5810 8000 c0 -5 14 -10 30 -10 17 0 30 5 30 10 0 6 -13 10 -30 10
-16 0 -30 -4 -30 -10z"/>
<path d="M5415 7900 c-4 -6 8 -10 29 -10 20 0 36 5 36 10 0 6 -13 10 -29 10
-17 0 -33 -4 -36 -10z"/>
<path d="M5515 7900 c-4 -6 8 -10 29 -10 20 0 36 5 36 10 0 6 -13 10 -29 10
-17 0 -33 -4 -36 -10z"/>
<path d="M5610 7900 c0 -5 16 -10 35 -10 19 0 35 5 35 10 0 6 -16 10 -35 10
-19 0 -35 -4 -35 -10z"/>
<path d="M5710 7900 c0 -5 11 -10 25 -10 14 0 28 0 32 -1 4 0 9 4 11 10 2 7
-11 11 -32 11 -20 0 -36 -4 -36 -10z"/>
<path d="M5810 7900 c0 -5 14 -10 30 -10 17 0 30 5 30 10 0 6 -13 10 -30 10
-16 0 -30 -4 -30 -10z"/>
<path d="M5415 7801 c-7 -13 17 -24 40 -19 9 1 16 8 16 13 0 14 -48 19 -56 6z"/>
<path d="M5515 7801 c-7 -13 17 -24 40 -19 9 1 16 8 16 13 0 14 -48 19 -56 6z"/>
<path d="M5615 7801 c-7 -13 17 -24 40 -19 9 1 16 8 16 13 0 14 -48 19 -56 6z"/>
<path d="M5715 7801 c-7 -13 17 -24 40 -19 9 1 16 8 16 13 0 14 -48 19 -56 6z"/>
<path d="M5817 7804 c-11 -12 3 -24 29 -24 15 0 24 6 24 15 0 15 -40 21 -53 9z"/>
<path d="M5415 7701 c-7 -13 17 -24 40 -19 9 1 16 8 16 13 0 14 -48 19 -56 6z"/>
<path d="M5515 7701 c-7 -13 17 -24 40 -19 9 1 16 8 16 13 0 14 -48 19 -56 6z"/>
<path d="M5615 7701 c-7 -13 17 -24 40 -19 9 1 16 8 16 13 0 14 -48 19 -56 6z"/>
<path d="M5715 7701 c-7 -13 17 -24 40 -19 9 1 16 8 16 13 0 14 -48 19 -56 6z"/>
<path d="M5817 7704 c-11 -12 3 -24 29 -24 15 0 24 6 24 15 0 15 -40 21 -53 9z"/>
<path d="M8510 7841 c0 -6 -9 -11 -20 -11 -20 0 -79 -81 -80 -109 0 -7 12 -35
27 -62 l26 -49 66 0 66 1 33 54 c18 30 30 60 26 67 -4 6 -3 8 3 5 23 -14 22
27 -2 67 -25 42 -26 43 -85 45 -37 1 -60 -2 -60 -8z m138 -44 c14 -9 7 -27
-10 -27 -6 0 -8 3 -5 7 4 3 -1 12 -11 19 -13 10 -14 12 -2 11 8 -2 21 -6 28
-10z m-148 -6 c-14 -4 -26 -14 -28 -23 -4 -20 27 -70 38 -63 5 3 6 -4 3 -15
-5 -18 0 -20 37 -20 34 0 41 -3 38 -17 -2 -14 -15 -19 -54 -21 -52 -3 -52 -3
-78 42 l-27 46 26 40 c18 28 32 40 48 39 21 -1 21 -1 -3 -8z m70 -29 c0 -5 -7
-9 -15 -9 -8 0 -15 4 -15 9 0 4 7 8 15 8 8 0 15 -4 15 -8z m43 -57 c-3 -9 -8
-14 -10 -11 -3 3 -2 9 2 15 9 16 15 13 8 -4z"/>
<path d="M3325 7798 c-37 -44 -17 -46 30 -3 34 30 36 35 18 35 -12 0 -33 -14
-48 -32z"/>
<path d="M3460 7812 c0 -5 9 -17 20 -27 11 -10 22 -26 26 -37 4 -14 9 -17 16
-10 14 14 -21 76 -45 80 -9 2 -17 -1 -17 -6z"/>
<path d="M1305 7791 c-8 -14 4 -19 52 -22 51 -4 66 7 29 21 -34 13 -73 13 -81
1z"/>
<path d="M6610 7762 c0 -5 11 -14 25 -20 14 -7 28 -19 31 -27 8 -19 24 -20 24
-1 0 8 -12 24 -26 35 -27 21 -54 28 -54 13z"/>
<path d="M1175 7730 c-16 -16 -26 -33 -22 -36 7 -7 75 46 76 59 2 17 -27 5
-54 -23z"/>
<path d="M6503 7724 c-29 -45 -13 -144 24 -144 17 0 16 10 -2 34 -19 26 -19
71 1 100 9 15 11 26 5 30 -6 4 -18 -5 -28 -20z"/>
<path d="M1470 7725 c0 -15 54 -84 61 -79 13 7 -31 84 -48 84 -7 0 -13 -2 -13
-5z"/>
<path d="M3290 7713 c0 -25 38 -85 50 -78 5 3 3 17 -5 33 -8 15 -16 35 -19 45
-3 9 -10 17 -16 17 -5 0 -10 -8 -10 -17z"/>
<path d="M1268 7684 c-61 -32 -78 -129 -32 -183 71 -85 214 -38 214 70 0 101
-96 160 -182 113z m135 -44 c74 -82 -22 -197 -122 -145 -71 36 -59 148 19 178
29 12 75 -3 103 -33z"/>
<path d="M3471 7646 c-7 -8 -24 -17 -38 -21 -18 -4 -23 -9 -15 -17 12 -12 83
19 90 40 5 17 -23 15 -37 -2z"/>
<path d="M6660 7605 c-13 -14 -29 -25 -37 -25 -14 0 -17 -12 -7 -23 10 -9 62
21 74 42 16 30 -4 33 -30 6z"/>
<path d="M1117 7613 c-10 -10 -8 -68 3 -97 11 -31 34 -36 25 -5 -4 11 -8 38
-10 60 -3 43 -8 53 -18 42z"/>
<path d="M2656 7568 c-9 -33 -7 -141 2 -156 6 -9 33 -12 98 -10 l89 3 0 90 0
90 -91 3 c-88 3 -92 2 -98 -20z m164 -68 l0 -70 -70 0 -70 0 0 70 0 70 70 0
70 0 0 -70z"/>
<path d="M1522 7538 c-6 -18 -13 -41 -17 -50 -5 -12 -3 -18 7 -18 13 0 38 58
38 89 0 24 -20 9 -28 -21z"/>
<path d="M4233 7543 c-9 -3 -13 -31 -13 -89 l0 -84 90 0 90 0 0 84 c0 67 -3
85 -16 90 -18 7 -133 7 -151 -1z m137 -88 l0 -65 -60 0 -60 0 0 65 0 65 60 0
60 0 0 -65z"/>
<path d="M1190 7418 c0 -16 50 -48 74 -48 36 0 13 20 -66 58 -5 2 -8 -2 -8
-10z"/>
<path d="M7937 7423 c-4 -3 -7 -262 -7 -575 l0 -568 170 0 170 0 0 -315 0
-315 -140 -1 c-77 -1 -144 -3 -150 -4 -5 -1 -15 -3 -20 -4 -7 -1 -10 -25 -8
-63 l3 -63 425 0 425 0 3 53 c5 81 3 82 -169 82 l-149 0 0 315 0 315 170 0
170 0 -2 573 -3 572 -441 3 c-242 1 -444 -1 -447 -5z m851 -570 l2 -533 -410
0 -410 0 0 535 0 535 408 -2 407 -3 3 -532z m-340 -890 l2 -313 -70 0 -70 0 0
308 c0 170 3 312 7 316 4 4 34 6 68 4 l60 -3 3 -312z m322 -389 l0 -24 -390 0
-390 0 0 25 0 25 273 2 c149 2 325 2 390 0 117 -3 117 -3 117 -28z"/>
<path d="M8025 7307 c-3 -7 -4 -134 -3 -282 l3 -270 355 0 355 0 0 280 0 280
-353 3 c-279 2 -354 0 -357 -11z m673 -269 l-3 -243 -315 0 -315 0 -3 243 -2
242 320 0 320 0 -2 -242z"/>
<path d="M8126 7193 c-19 -20 17 -23 245 -23 196 0 250 3 246 13 -3 9 -62 12
-244 14 -132 1 -243 -1 -247 -4z"/>
<path d="M8127 7034 c-18 -18 -2 -25 56 -22 35 2 61 7 60 13 -3 12 -105 19
-116 9z"/>
<path d="M8306 7033 c-14 -14 10 -23 65 -23 44 0 60 3 57 13 -5 12 -111 21
-122 10z"/>
<path d="M8497 7034 c-17 -18 -3 -24 54 -24 44 0 60 3 57 13 -5 13 -99 23
-111 11z"/>
<path d="M8220 6960 c0 -6 27 -10 60 -10 33 0 60 4 60 10 0 6 -27 10 -60 10
-33 0 -60 -4 -60 -10z"/>
<path d="M8400 6960 c0 -6 27 -10 60 -10 33 0 60 4 60 10 0 6 -27 10 -60 10
-33 0 -60 -4 -60 -10z"/>
<path d="M8449 6598 c-1 -16 -1 -147 0 -171 1 -16 13 -17 144 -15 l142 3 0 95
0 95 -142 3 c-111 2 -143 0 -144 -10z m246 -88 l0 -55 -102 -3 -103 -3 0 61 0
61 103 -3 102 -3 0 -55z"/>
<path d="M8054 6455 c-11 -29 7 -35 110 -35 74 0 107 4 115 13 22 27 -9 37
-116 37 -81 0 -105 -3 -109 -15z"/>
<path d="M1403 7398 c-40 -17 -57 -38 -33 -38 18 0 77 27 84 38 12 19 -9 19
-51 0z"/>
<path d="M5367 7364 c-4 -4 -7 -11 -7 -16 0 -12 449 -5 453 7 2 11 -435 20
-446 9z"/>
<path d="M6360 7310 c0 -5 22 -10 49 -10 28 0 53 5 56 10 4 6 -15 10 -49 10
-31 0 -56 -4 -56 -10z"/>
<path d="M6540 7310 c0 -5 25 -10 55 -10 30 0 55 5 55 10 0 6 -25 10 -55 10
-30 0 -55 -4 -55 -10z"/>
<path d="M2257 7164 c-19 -19 21 -24 184 -24 152 0 179 2 179 15 0 13 -26 15
-178 15 -98 0 -182 -3 -185 -6z"/>
<path d="M3566 6984 c-12 -12 -16 -37 -16 -105 l0 -89 -90 0 c-122 0 -130 -8
-130 -127 l0 -88 -92 -1 c-76 -1 -93 -4 -104 -19 -12 -16 -14 -168 -14 -851 0
-744 2 -834 16 -848 14 -14 187 -16 1759 -16 1714 0 1744 0 1755 19 5 11 10
58 10 105 l0 86 93 0 c59 0 97 4 105 12 8 8 12 46 12 105 l0 93 88 0 c142 0
126 -106 130 863 4 835 4 835 -17 856 l-21 21 -1734 0 c-1564 0 -1736 -2
-1750 -16z m444 -112 c0 -33 -60 -139 -103 -183 -49 -50 -170 -109 -221 -109
l-36 0 0 155 0 155 180 0 c168 0 180 -1 180 -18z m2544 -20 c10 -65 62 -156
124 -214 71 -68 143 -106 231 -122 l66 -12 3 -366 2 -365 -57 -7 c-171 -20
-345 -185 -369 -348 l-6 -48 -1233 0 -1232 0 -7 50 c-15 110 -119 245 -231
301 -34 16 -91 35 -128 41 l-67 11 0 366 0 367 72 12 c90 16 170 58 236 125
57 58 109 150 118 208 l7 39 1232 0 1232 0 7 -38z m426 -118 l0 -157 -48 6
c-112 13 -226 99 -282 210 -51 102 -58 97 150 97 l180 0 0 -156z m-3430 -754
c0 -681 1 -700 19 -710 13 -7 533 -10 1610 -10 l1591 0 0 -49 c0 -42 -3 -49
-22 -55 -13 -3 -762 -6 -1665 -6 l-1643 0 0 765 0 765 55 0 55 0 0 -700z
m-220 -198 c0 -606 2 -690 16 -710 l15 -22 1595 0 1594 0 0 -55 0 -55 -1660 0
-1660 0 0 765 0 765 50 0 50 0 0 -688z m426 -99 c62 -21 113 -52 157 -98 39
-40 91 -134 102 -182 l7 -33 -186 0 -186 0 0 165 0 165 28 0 c16 0 51 -7 78
-17z m3224 -148 l0 -165 -186 0 -186 0 7 33 c12 54 61 140 107 186 60 61 159
109 226 110 l32 1 0 -165z"/>
<path d="M5155 6721 c-202 -58 -353 -200 -416 -392 -34 -106 -35 -272 0 -377
67 -205 249 -364 463 -407 94 -18 121 -18 221 0 336 59 553 384 482 720 -25
117 -76 208 -169 300 -88 87 -164 131 -272 159 -82 21 -231 20 -309 -3z m319
-111 c351 -121 452 -577 184 -826 -202 -187 -502 -182 -694 10 -154 155 -187
391 -82 588 60 113 206 221 333 247 70 14 189 6 259 -19z"/>
<path d="M1103 6876 l-31 -63 -63 -7 c-34 -3 -65 -8 -68 -11 -2 -3 17 -27 43
-54 l48 -49 -11 -63 c-6 -34 -8 -65 -5 -68 3 -3 32 8 63 25 l58 32 57 -31 c31
-16 59 -28 62 -24 3 3 1 34 -4 69 l-10 63 46 47 c25 26 43 50 41 53 -3 3 -33
8 -66 11 l-61 7 -28 59 c-16 33 -31 61 -34 63 -4 2 -20 -24 -37 -59z m37 -16
l6 35 21 -46 c19 -43 24 -47 68 -53 l47 -8 -33 -34 c-18 -19 -28 -34 -23 -34
6 0 23 13 39 30 16 16 30 28 33 26 2 -2 -13 -20 -34 -39 l-38 -35 10 -61 c12
-72 2 -82 -14 -13 l-11 47 5 -42 4 -43 -43 21 -43 21 -52 -26 c-58 -29 -58
-29 -43 49 7 38 6 42 -38 88 -25 27 -39 47 -31 46 8 -1 37 1 63 6 45 7 50 11
70 53 l22 45 4 -34 4 -34 7 35z"/>
<path d="M1061 6684 c0 -11 3 -14 6 -6 3 7 2 16 -1 19 -3 4 -6 -2 -5 -13z"/>
<path d="M1050 6649 c0 -5 5 -7 10 -4 6 3 10 8 10 11 0 2 -4 4 -10 4 -5 0 -10
-5 -10 -11z"/>
<path d="M1558 6878 l-33 -63 -55 -8 c-88 -12 -88 -13 -31 -65 l51 -47 -11
-63 c-6 -35 -8 -66 -5 -70 4 -3 32 8 64 25 l56 31 57 -31 c32 -18 60 -29 64
-25 3 3 1 34 -5 68 l-11 63 45 46 c25 26 46 49 46 53 0 3 -24 9 -52 13 -80 10
-85 13 -103 57 -9 23 -22 50 -30 60 -12 18 -15 15 -47 -44z m41 -18 l2 35 24
-47 c23 -43 29 -47 71 -54 l46 -6 -33 -34 c-42 -43 -26 -44 21 -2 27 26 26 23
-7 -12 -40 -43 -42 -47 -33 -85 15 -62 9 -86 -6 -30 l-14 50 4 -43 c2 -24 1
-42 -2 -40 -4 2 -23 12 -43 22 -35 18 -36 18 -87 -8 -28 -14 -53 -26 -55 -26
-8 0 18 126 28 133 6 6 4 7 -6 4 -9 -3 -31 9 -52 28 -39 36 -45 47 -24 43 6
-1 34 2 60 6 46 7 50 10 70 54 l21 47 7 -35 6 -35 2 35z"/>
<path d="M1510 6649 c0 -5 5 -7 10 -4 6 3 10 8 10 11 0 2 -4 4 -10 4 -5 0 -10
-5 -10 -11z"/>
<path d="M2021 6883 c-32 -64 -37 -68 -114 -79 -26 -3 -49 -10 -52 -14 -3 -5
17 -28 44 -52 l48 -44 -10 -62 c-5 -34 -7 -65 -4 -68 3 -3 31 8 62 24 l57 28
58 -30 c32 -17 61 -28 65 -24 4 3 1 34 -6 68 l-12 61 47 48 c25 25 46 50 46
53 0 4 -26 10 -59 14 -32 3 -63 9 -68 13 -6 3 -24 33 -40 66 l-31 59 -31 -61z
m38 -18 c2 29 2 29 26 -17 23 -43 29 -47 71 -54 l46 -6 -34 -36 c-32 -35 -21
-30 32 12 14 12 6 0 -17 -24 l-42 -45 10 -54 c6 -29 8 -55 5 -58 -2 -3 -8 12
-11 33 -8 49 -14 68 -20 63 -2 -3 0 -22 5 -44 5 -22 7 -41 5 -43 -2 -2 -21 6
-43 18 l-39 22 -51 -26 c-28 -14 -53 -26 -55 -26 -2 0 0 26 5 57 l9 56 -41 42
c-42 43 -48 53 -27 52 6 -1 33 2 58 7 42 7 48 12 69 54 l24 47 7 -30 7 -30 1
30z"/>
<path d="M1975 6690 c-3 -5 -1 -10 4 -10 6 0 11 5 11 10 0 6 -2 10 -4 10 -3 0
-8 -4 -11 -10z"/>
<path d="M1965 6620 c-3 -5 -1 -10 4 -10 6 0 11 5 11 10 0 6 -2 10 -4 10 -3 0
-8 -4 -11 -10z"/>
<path d="M2943 6876 l-32 -64 -65 -7 c-36 -3 -66 -9 -66 -13 0 -3 21 -28 47
-54 l47 -47 -12 -63 c-6 -34 -9 -64 -6 -67 3 -3 32 8 64 25 l58 30 57 -28 c31
-16 60 -27 63 -23 3 3 1 32 -4 65 l-10 60 48 47 c26 26 48 50 48 54 0 4 -25
10 -57 14 -79 10 -81 11 -114 76 -16 33 -31 59 -32 59 -1 0 -17 -29 -34 -64z
m37 -11 l6 30 24 -47 c21 -42 27 -47 67 -53 23 -3 43 -9 43 -12 0 -3 -11 -14
-25 -25 -14 -11 -25 -25 -25 -31 0 -6 18 7 40 28 22 21 40 35 40 29 0 -5 -18
-27 -41 -49 -39 -37 -40 -40 -34 -83 4 -24 9 -51 12 -58 3 -8 0 -14 -6 -14 -6
0 -11 12 -12 28 0 15 -5 36 -10 47 -6 14 -7 7 -3 -23 l6 -43 -44 22 -44 21
-48 -26 c-27 -14 -51 -24 -53 -22 -2 2 0 28 6 57 l10 54 -40 40 c-37 39 -48
57 -31 53 4 -1 29 1 55 6 44 7 50 11 70 53 22 45 22 45 26 17 l4 -29 7 30z"/>
<path d="M2865 6740 c3 -5 8 -10 11 -10 2 0 4 5 4 10 0 6 -5 10 -11 10 -5 0
-7 -4 -4 -10z"/>
<path d="M2901 6684 c0 -11 3 -14 6 -6 3 7 2 16 -1 19 -3 4 -6 -2 -5 -13z"/>
<path d="M2895 6650 c-3 -5 -1 -10 4 -10 6 0 11 5 11 10 0 6 -2 10 -4 10 -3 0
-8 -4 -11 -10z"/>
<path d="M2474 6873 l-29 -58 -65 -9 c-36 -4 -67 -10 -69 -12 -3 -3 17 -27 44
-54 l48 -49 -9 -66 c-6 -36 -7 -65 -2 -65 4 0 32 12 63 27 l54 27 61 -29 c33
-16 62 -27 64 -24 2 2 -1 32 -7 67 l-10 63 48 49 c27 27 46 52 44 55 -3 3 -34
8 -68 11 l-62 7 -30 58 c-16 33 -33 59 -38 59 -5 0 -21 -26 -37 -57z m37 -33
c5 0 9 10 10 23 0 17 5 13 21 -20 19 -37 26 -42 66 -48 77 -11 78 -13 32 -60
l-42 -43 11 -52 c6 -29 9 -55 7 -58 -3 -2 -7 7 -11 22 -14 67 -18 80 -22 69
-2 -6 0 -28 6 -47 5 -20 7 -36 5 -36 -3 0 -23 9 -46 21 l-41 21 -49 -27 c-27
-15 -51 -25 -54 -22 -2 2 1 28 7 57 l11 52 -41 42 c-43 44 -49 54 -28 53 6 -1
33 2 58 7 42 7 49 12 65 49 16 35 20 38 22 19 2 -12 8 -22 13 -22z"/>
<path d="M2624 6748 l-29 -33 33 29 c30 28 37 36 29 36 -2 0 -16 -15 -33 -32z"/>
<path d="M2395 6740 c3 -5 8 -10 11 -10 2 0 4 5 4 10 0 6 -5 10 -11 10 -5 0
-7 -4 -4 -10z"/>
<path d="M8960 6820 c0 -27 5 -50 10 -50 6 0 10 23 10 50 0 28 -4 50 -10 50
-5 0 -10 -22 -10 -50z"/>
<path d="M7511 6794 c-27 -22 -42 -54 -26 -54 8 0 75 66 75 74 0 13 -19 5 -49
-20z"/>
<path d="M7636 6803 c-3 -3 6 -19 19 -35 14 -16 25 -34 25 -39 0 -5 5 -9 10
-9 15 0 12 28 -6 55 -16 25 -38 38 -48 28z"/>
<path d="M7470 6692 c0 -30 33 -82 44 -71 4 3 0 19 -9 35 -8 16 -15 34 -15 41
0 6 -4 15 -10 18 -6 4 -10 -6 -10 -23z"/>
<path d="M8960 6641 c0 -28 5 -53 10 -56 6 -4 10 15 10 49 0 31 -4 56 -10 56
-5 0 -10 -22 -10 -49z"/>
<path d="M7641 6630 c-13 -11 -30 -20 -38 -20 -8 0 -13 -6 -10 -12 8 -26 87 8
87 37 0 20 -10 18 -39 -5z"/>
<path d="M8960 6455 c0 -30 5 -55 10 -55 6 0 10 25 10 55 0 30 -4 55 -10 55
-5 0 -10 -25 -10 -55z"/>
<path d="M8960 6270 c0 -27 5 -50 10 -50 6 0 10 23 10 50 0 28 -4 50 -10 50
-5 0 -10 -22 -10 -50z"/>
<path d="M1512 6298 c5 -15 97 -18 101 -3 1 6 -22 11 -52 13 -40 2 -52 0 -49
-10z"/>
<path d="M1695 6300 c-3 -6 0 -13 8 -16 25 -9 90 0 95 14 5 15 -94 17 -103 2z"/>
<path d="M1332 6138 c-7 -7 -18 -13 -25 -13 -7 -1 -11 -7 -9 -14 1 -7 -1 -10
-6 -7 -12 7 -284 -269 -275 -279 5 -4 3 -5 -3 -2 -12 7 -47 -25 -39 -36 3 -4
2 -5 -2 -2 -3 3 -15 -2 -25 -12 -17 -15 -14 -21 83 -117 56 -56 107 -100 113
-98 6 2 0 -7 -14 -20 -14 -14 -28 -23 -32 -21 -20 10 -5 -19 17 -33 14 -9 24
-19 21 -21 -7 -8 71 -70 112 -89 7 -4 21 1 31 10 24 22 30 21 65 -17 75 -80
74 -69 17 -124 -34 -33 -51 -58 -51 -74 0 -19 54 -79 223 -247 123 -122 229
-222 235 -222 7 0 29 16 51 35 29 27 47 35 75 35 43 0 96 44 96 78 0 14 11 24
35 32 40 13 75 53 75 85 0 17 7 24 31 29 40 8 89 57 89 90 0 20 5 26 23 26 77
0 123 114 66 166 -27 24 -24 35 16 74 l35 34 24 -23 25 -23 61 58 c79 75 85
86 60 116 l-19 23 107 108 107 107 -203 202 -202 203 -109 -109 c-65 -65 -111
-104 -115 -97 -4 6 -16 16 -27 22 -17 9 -29 1 -88 -55 -37 -36 -75 -66 -83
-66 -9 0 -46 -16 -84 -34 -64 -32 -70 -34 -86 -19 -18 16 -17 17 4 40 l22 24
-72 71 -71 72 -24 -22 -23 -22 -94 95 c-94 94 -114 107 -138 83z m113 -119
c70 -70 78 -81 62 -90 -9 -6 -14 -15 -11 -21 5 -7 2 -8 -5 -4 -7 5 -10 14 -7
21 6 17 -20 53 -30 42 -5 -4 -2 -12 6 -17 8 -5 11 -12 7 -17 -10 -10 -28 18
-22 35 2 7 -17 36 -44 64 l-49 52 -22 -37 c-24 -41 -26 -42 -36 -25 -4 7 -3 8
4 4 7 -4 12 -2 12 4 0 12 41 68 50 69 3 1 41 -35 85 -80z m1050 -99 l170 -170
-93 -92 -92 -93 -172 172 -173 173 90 90 c49 49 92 90 95 90 3 0 82 -77 175
-170z m-1121 109 c-6 -11 -24 -2 -24 11 0 5 7 7 15 4 8 -4 12 -10 9 -15z m-97
-61 c-3 -8 -6 -5 -6 6 -1 11 2 17 5 13 3 -3 4 -12 1 -19z m-34 -13 c-3 -9 -8
-13 -11 -10 -3 3 -17 -5 -31 -17 -21 -19 -20 -17 3 10 32 34 49 42 39 17z
m409 -52 c21 -20 38 -42 38 -48 0 -5 -81 -91 -180 -190 -166 -165 -180 -177
-178 -147 1 17 4 29 7 26 3 -2 31 21 62 52 37 37 56 62 52 73 -3 11 -2 12 4 4
13 -18 158 129 150 151 -4 10 -1 13 8 10 8 -3 22 1 31 10 13 13 14 20 4 31 -7
8 -17 12 -23 8 -5 -3 -7 -1 -4 4 4 6 0 16 -8 23 -16 13 -20 30 -8 30 4 0 24
-17 45 -37z m585 -155 l172 -172 -32 -11 c-42 -13 -59 -56 -32 -85 20 -22 64
-27 83 -8 7 7 12 25 12 42 l0 30 30 -29 31 -29 -46 -46 -45 -45 -222 222 -222
223 39 40 c21 22 44 40 49 40 6 0 88 -77 183 -172z m-1051 130 c-6 -10 -17
-18 -24 -18 -8 0 -10 -5 -6 -12 5 -9 3 -9 -9 1 -19 15 -14 31 9 31 8 0 13 4
10 8 -2 4 4 8 13 8 15 0 16 -3 7 -18z m244 -42 c0 -2 -7 -9 -15 -16 -13 -11
-14 -10 -9 4 5 14 24 23 24 12z m87 -11 c0 -8 -4 -12 -9 -9 -5 3 -6 10 -3 15
9 13 12 11 12 -6z m-417 -16 c0 -5 -4 -7 -10 -4 -9 6 -14 -14 -11 -42 1 -7 -3
-13 -9 -13 -6 0 -9 -4 -6 -9 9 -14 -23 -6 -37 9 -10 12 -9 12 4 2 13 -10 19
-9 29 3 12 14 7 20 -15 15 -5 -1 1 10 14 24 26 27 41 33 41 15z m868 -35 c31
-36 29 -79 -7 -115 -31 -31 -38 -33 -117 -29 -46 1 -58 -3 -128 -49 -83 -54
-102 -55 -127 -10 -9 17 -7 25 11 44 33 35 178 137 239 168 64 32 94 30 129
-9z m-416 -11 c-25 -28 -28 -29 -29 -11 -1 11 1 18 4 15 3 -3 14 3 26 13 32
30 31 17 -1 -17z m-44 11 c-9 -10 -21 -13 -29 -8 -9 5 -8 9 7 15 31 12 39 10
22 -7z m191 -8 c9 -11 -4 -25 -64 -70 -88 -66 -104 -91 -85 -135 33 -80 85
-85 185 -18 90 61 119 62 179 7 31 -29 52 -40 75 -40 26 0 49 -18 154 -122 68
-68 132 -136 142 -151 18 -27 17 -29 -2 -55 -38 -51 -64 -43 -162 52 -48 47
-93 86 -99 86 -31 0 -5 -43 73 -120 55 -55 85 -92 85 -107 0 -23 -43 -63 -68
-63 -8 0 -52 36 -97 81 -76 74 -105 89 -105 56 0 -7 34 -46 75 -87 79 -79 91
-106 58 -142 -32 -36 -63 -23 -143 57 -68 69 -110 93 -110 63 0 -6 36 -49 80
-94 84 -85 94 -109 60 -139 -26 -24 -32 -16 -18 21 16 43 -6 84 -59 109 -27
13 -42 27 -43 38 0 29 -64 87 -94 87 -21 0 -26 5 -26 24 0 33 -44 83 -80 91
-21 5 -30 14 -35 35 -8 37 -58 80 -94 80 -19 0 -42 16 -84 58 -31 32 -57 62
-57 67 0 11 331 345 341 345 4 0 12 -6 18 -14z m-349 -11 c0 -2 -6 -8 -13 -14
-10 -8 -14 -7 -14 2 0 8 6 14 14 14 7 0 13 -1 13 -2z m-238 -44 c8 11 9 10 5
-3 -7 -21 28 -56 36 -36 3 7 6 8 6 2 1 -6 -6 -17 -15 -24 -12 -11 -15 -11 -12
0 2 8 -2 14 -9 15 -17 0 -27 13 -29 38 -2 12 0 16 3 8 5 -11 7 -11 15 0z m305
-19 c-15 -15 -27 -34 -27 -41 0 -7 -5 -9 -11 -5 -6 3 -15 0 -20 -7 -7 -11 -9
-10 -9 4 0 9 6 17 14 17 8 0 18 9 21 21 4 11 9 18 12 15 3 -3 12 1 20 9 27 28
27 15 0 -13z m88 18 c-3 -5 -10 -10 -16 -10 -5 0 -9 5 -9 10 0 6 7 10 16 10 8
0 12 -4 9 -10z m785 -335 l-40 -40 -108 108 c-90 90 -112 107 -138 107 -17 0
-38 8 -48 19 -16 17 -15 20 18 45 19 14 40 42 47 61 l13 36 148 -148 148 -148
-40 -40z m-1020 301 c0 -3 -4 -8 -10 -11 -5 -3 -10 -1 -10 4 0 6 5 11 10 11 6
0 10 -2 10 -4z m-80 -55 c-6 -12 -16 -19 -21 -15 -6 4 -3 13 8 24 23 22 28 18
13 -9z m-105 -1 c10 -11 16 -20 13 -20 -3 0 -13 9 -23 20 -10 11 -16 20 -13
20 3 0 13 -9 23 -20z m235 -39 c0 -4 -6 -8 -13 -8 -8 0 -14 6 -14 13 0 7 6 10
14 7 7 -3 13 -8 13 -12z m60 9 c0 -5 -2 -10 -4 -10 -3 0 -8 5 -11 10 -3 6 -1
10 4 10 6 0 11 -4 11 -10z m-90 -81 c0 -5 -7 -9 -15 -9 -15 0 -20 12 -9 23 8
8 24 -1 24 -14z m1110 6 c0 -8 -4 -15 -9 -15 -13 0 -22 16 -14 24 11 11 23 6
23 -9z m-1180 -26 c0 -11 -4 -18 -10 -14 -5 3 -7 12 -3 20 7 21 13 19 13 -6z
m70 -38 c0 -15 -28 -33 -40 -26 -8 5 -8 11 1 21 13 15 39 19 39 5z m229 -208
c28 -35 21 -56 -40 -118 l-50 -50 -39 42 c-22 23 -40 46 -40 51 0 5 22 30 50
56 57 54 88 59 119 19z m105 -104 c40 -32 34 -65 -21 -121 -26 -26 -51 -48
-56 -48 -11 0 -77 67 -77 79 0 11 106 111 118 111 5 0 21 -9 36 -21z m125
-123 c32 -34 23 -60 -39 -121 l-50 -49 -43 42 -42 43 57 54 c31 30 65 55 75
55 11 0 30 -11 42 -24z m105 -107 c14 -11 26 -27 26 -35 0 -16 -97 -124 -112
-124 -12 0 -68 55 -68 67 0 12 105 113 118 113 5 0 21 -9 36 -21z"/>
<path d="M7480 5980 c0 -5 25 -10 55 -10 30 0 55 5 55 10 0 6 -25 10 -55 10
-30 0 -55 -4 -55 -10z"/>
<path d="M7670 5980 c0 -5 23 -10 50 -10 28 0 50 5 50 10 0 6 -22 10 -50 10
-27 0 -50 -4 -50 -10z"/>
<path d="M7315 5540 c-3 -6 0 -13 8 -16 25 -9 90 0 95 14 5 15 -94 17 -103 2z"/>
<path d="M7500 5535 c0 -11 12 -15 50 -15 38 0 50 4 50 15 0 11 -12 15 -50 15
-38 0 -50 -4 -50 -15z"/>
<path d="M7682 5538 c5 -15 97 -18 101 -3 1 6 -22 11 -52 13 -40 2 -52 0 -49
-10z"/>
<path d="M8437 5254 c-18 -19 20 -24 174 -24 144 0 169 2 169 15 0 13 -25 15
-168 15 -93 0 -172 -3 -175 -6z"/>
<path d="M7701 5179 c-115 -19 -228 -107 -278 -215 -88 -193 -7 -421 182 -510
l49 -23 -99 -3 -100 -3 0 -155 0 -155 428 -3 427 -2 0 112 c0 63 4 108 9 103
4 -6 25 -58 46 -117 29 -84 42 -108 56 -108 33 0 129 41 129 55 0 8 -24 81
-54 162 -30 81 -87 238 -127 348 -84 232 -105 285 -116 285 -4 0 -31 -9 -60
-20 l-52 -19 -24 53 c-71 155 -242 244 -416 215z m168 -50 c30 -11 39 -38 10
-30 -53 14 -110 21 -141 15 -31 -5 -38 -3 -38 10 0 13 13 16 69 16 37 0 82 -5
100 -11z m-199 -12 c0 -7 -16 -21 -35 -30 -19 -9 -52 -32 -73 -52 -38 -34 -62
-44 -62 -26 0 16 81 82 124 102 49 22 46 22 46 6z m289 -32 c34 -17 111 -102
111 -121 0 -23 -26 -16 -38 10 -6 13 -33 43 -61 67 -65 56 -70 74 -12 44z
m-86 -15 c105 -39 187 -155 187 -264 0 -82 -27 -144 -89 -207 -85 -84 -176
-107 -291 -73 -73 22 -152 97 -180 171 -88 236 137 461 373 373z m-378 -107
c-17 -41 -35 -100 -40 -135 -8 -50 -25 -49 -25 2 0 52 37 150 57 150 11 0 13
-5 8 -17z m604 -70 c6 -21 11 -66 11 -100 0 -49 -3 -63 -15 -63 -12 0 -15 14
-15 69 0 38 -4 81 -9 94 -9 24 -6 37 10 37 5 0 13 -17 18 -37z m150 -19 c6
-15 10 -27 9 -29 -12 -8 -69 -27 -73 -24 -2 2 -6 16 -10 30 -6 23 -3 28 22 37
39 15 38 15 52 -14z m56 -157 c29 -82 28 -91 -16 -102 -25 -6 -27 -3 -59 85
-18 50 -31 92 -29 94 2 2 18 8 34 13 36 12 34 14 70 -90z m-82 -120 c32 -87
57 -160 57 -162 0 -3 -89 -5 -197 -5 l-198 0 40 19 c109 51 194 154 217 262 7
33 15 56 18 51 4 -4 32 -78 63 -165z m-751 105 c23 -78 83 -146 163 -183 33
-16 68 -29 78 -29 11 0 17 -5 14 -12 -12 -36 -156 29 -213 96 -56 66 -103 186
-72 186 7 0 20 -25 30 -58z m618 -14 c0 -20 -55 -111 -83 -137 -42 -38 -52
-14 -13 29 19 22 44 57 56 80 20 39 40 53 40 28z m289 -174 c17 -47 31 -90 31
-94 0 -8 -61 -33 -66 -27 -5 5 -64 168 -64 178 0 10 35 27 56 28 6 1 25 -38
43 -85z m-434 6 c8 -13 -75 -51 -128 -58 -55 -7 -45 20 11 30 22 4 53 14 69
22 34 18 40 19 48 6z m-265 -170 l0 -40 -95 0 -95 0 0 33 c0 19 3 37 7 40 3 4
46 7 95 7 l88 0 0 -40z m230 0 l0 -40 -100 0 -100 0 0 40 0 40 100 0 100 0 0
-40z m228 -2 l3 -38 -100 0 -101 0 0 40 0 41 98 -3 97 -3 3 -37z m132 2 l0
-40 -55 0 -55 0 0 33 c0 44 4 47 62 47 l48 0 0 -40z m184 -43 c16 -45 31 -87
33 -93 5 -14 -55 -40 -66 -28 -11 12 -61 151 -61 169 0 11 34 30 60 34 3 1 18
-36 34 -82z m-926 -120 c3 -32 0 -37 -17 -37 -17 0 -21 6 -21 33 0 61 33 63
38 4z m172 3 l0 -40 -75 0 -75 0 0 33 c0 19 3 37 7 40 3 4 37 7 75 7 l68 0 0
-40z m170 0 l0 -40 -75 0 -75 0 0 33 c0 19 3 37 7 40 3 4 37 7 75 7 l68 0 0
-40z m170 0 l0 -40 -75 0 -75 0 0 33 c0 19 3 37 7 40 3 4 37 7 75 7 l68 0 0
-40z m170 0 l0 -40 -70 0 -70 0 0 40 0 40 70 0 70 0 0 -40z m60 0 c0 -29 -4
-40 -15 -40 -11 0 -15 11 -15 40 0 29 4 40 15 40 11 0 15 -11 15 -40z m210
-30 c-8 -5 -22 -9 -30 -9 -10 0 -8 3 5 9 27 12 43 12 25 0z"/>
<path d="M7895 4950 c-22 -23 -32 -27 -46 -20 -29 16 -84 12 -101 -7 -27 -31
-29 -58 -8 -118 15 -43 17 -61 9 -72 -6 -7 -14 -13 -18 -13 -9 0 -56 45 -74
70 -13 19 -18 20 -36 8 -27 -17 -27 -26 6 -60 l27 -28 -29 -30 c-24 -25 -26
-32 -15 -45 12 -14 16 -13 44 14 23 22 35 28 46 21 8 -5 32 -10 52 -10 28 0
42 6 57 26 25 32 26 57 6 114 -21 59 -19 80 5 80 12 0 32 -16 48 -39 28 -38
29 -39 52 -21 l23 18 -22 28 -22 27 31 32 c23 24 27 34 18 43 -17 17 -21 16
-53 -18z"/>
<path d="M7018 4865 c-33 -18 -78 -98 -78 -137 0 -39 40 -78 80 -78 40 0 102
32 129 66 64 82 -40 200 -131 149z m91 -25 c10 -5 24 -22 30 -39 11 -24 10
-34 -4 -61 -18 -34 -53 -39 -47 -6 2 10 -1 15 -6 12 -6 -3 -12 0 -15 8 -3 8 1
17 9 20 17 6 29 -17 20 -39 -3 -8 -1 -15 4 -15 6 0 10 11 10 24 0 28 -51 76
-82 76 -17 0 -18 2 -8 15 14 17 62 20 89 5z m-144 -130 c-3 -5 2 -11 10 -13
11 -4 11 -5 -2 -3 -13 1 -18 11 -20 36 -2 31 -1 32 8 12 5 -13 7 -28 4 -32z
m90 21 c3 -5 0 -13 -6 -17 -8 -4 -9 -3 -5 4 4 7 2 12 -3 12 -6 0 -11 -5 -11
-11 0 -5 -5 -7 -10 -4 -13 8 -3 25 15 25 8 0 16 -4 20 -9z m-35 -63 c0 -4 -4
-8 -9 -8 -6 0 -12 4 -15 8 -3 5 1 9 9 9 8 0 15 -4 15 -9z"/>
<path d="M1287 4794 c-4 -4 -7 -45 -7 -91 l0 -83 90 0 91 0 -3 88 -3 87 -80 3
c-44 2 -84 0 -88 -4z m143 -89 l0 -65 -65 0 -65 0 0 65 0 65 65 0 65 0 0 -65z"/>
<path d="M2735 4690 c-4 -7 52 -10 160 -10 108 0 164 3 160 10 -4 6 -68 10
-160 10 -92 0 -156 -4 -160 -10z"/>
<path d="M4515 4620 c-12 -4 -27 -15 -34 -24 -7 -9 -21 -16 -31 -16 -34 0 -54
-37 -55 -103 -2 -76 15 -113 54 -122 16 -3 37 -15 47 -26 24 -27 70 -24 106 6
16 14 35 25 43 25 26 0 39 33 41 99 1 73 -16 121 -44 121 -10 0 -33 11 -52 25
-36 27 -44 28 -75 15z m70 -40 c10 -11 26 -20 35 -20 29 0 42 -26 42 -82 1
-69 -9 -98 -32 -98 -10 0 -33 -12 -50 -26 -34 -29 -27 -30 -115 20 -40 22 -40
22 -41 87 -1 72 8 99 35 99 10 0 29 9 42 20 31 25 61 25 84 0z"/>
<path d="M4502 4508 c-21 -21 -14 -66 13 -84 30 -19 57 -12 75 21 11 20 10 28
-4 50 -18 27 -63 34 -84 13z m63 -38 c0 -18 -6 -26 -23 -28 -27 -4 -40 22 -22
44 19 22 45 13 45 -16z"/>
<path d="M3047 4504 c-20 -20 31 -24 294 -24 250 0 289 2 289 15 0 13 -39 15
-288 15 -159 0 -292 -3 -295 -6z"/>
<path d="M1552 4393 c-67 -31 -121 -60 -119 -66 1 -5 61 -33 132 -63 l129 -54
245 2 246 3 3 118 3 117 -258 0 -258 0 -123 -57z m608 17 c0 -19 -7 -20 -230
-20 -223 0 -230 1 -230 20 0 19 7 20 230 20 223 0 230 -1 230 -20z m-493 -156
c-2 -3 -20 3 -40 11 -36 15 -37 17 -37 69 0 52 1 54 38 68 l37 14 3 -79 c2
-44 1 -81 -1 -83z m-117 76 c0 -16 -2 -30 -4 -30 -14 0 -66 24 -66 30 0 7 42
27 63 29 4 1 7 -12 7 -29z m610 5 l0 -25 -230 0 -230 0 0 25 0 25 230 0 230 0
0 -25z m0 -75 c0 -19 -7 -20 -230 -20 -185 0 -230 3 -230 13 0 8 3 17 7 20 3
4 107 7 230 7 216 0 223 -1 223 -20z"/>
<path d="M4866 4432 c-12 -38 -63 -74 -111 -79 -33 -4 -51 -13 -65 -31 -24
-30 -25 -41 -5 -78 19 -38 19 -85 -1 -128 -16 -32 -16 -36 3 -68 16 -28 26
-34 64 -38 54 -7 78 -22 107 -66 19 -29 28 -34 60 -34 32 0 43 6 75 44 32 38
44 46 89 53 44 7 55 13 71 41 18 30 18 35 3 66 -20 43 -20 92 -1 130 26 49 -5
106 -57 106 -41 0 -82 24 -114 65 -23 30 -32 35 -70 35 -32 0 -44 -4 -48 -18z
m78 -18 c9 -8 21 -24 26 -34 12 -23 88 -60 123 -60 38 0 52 -31 32 -69 -8 -17
-15 -48 -15 -71 0 -23 7 -54 15 -71 20 -38 6 -69 -32 -69 -41 0 -111 -38 -130
-71 -24 -41 -63 -39 -96 5 -31 40 -90 70 -122 62 -39 -10 -51 24 -30 89 13 43
14 61 5 94 -6 22 -15 43 -20 46 -6 4 -4 18 5 35 12 24 21 29 48 28 43 -1 88
23 121 66 30 39 46 44 70 20z"/>
<path d="M4829 4271 c-35 -35 -39 -44 -39 -91 0 -47 4 -56 39 -91 33 -33 45
-39 81 -39 73 0 140 62 140 129 0 72 -63 131 -139 131 -37 0 -49 -6 -82 -39z
m166 -23 c65 -78 -5 -192 -102 -166 -97 26 -97 171 0 196 46 12 74 4 102 -30z"/>
<path d="M6610 4360 c0 -6 90 -10 250 -10 160 0 250 4 250 10 0 6 -90 10 -250
10 -160 0 -250 -4 -250 -10z"/>
<path d="M2566 4339 c-17 -14 -26 -30 -26 -50 0 -16 -3 -28 -7 -28 -5 1 -41 1
-81 0 l-72 -1 2 -542 3 -543 658 -3 657 -2 0 545 0 545 -70 0 -70 0 0 28 c0
33 -33 72 -60 72 -30 0 -60 -36 -60 -70 l0 -30 -390 0 -390 0 0 30 c0 31 -30
70 -54 70 -7 0 -25 -9 -40 -21z m54 -48 c0 -11 -5 -23 -11 -27 -15 -9 -33 12
-26 30 9 23 37 20 37 -3z m895 -6 c0 -28 -29 -25 -33 3 -3 19 0 23 15 20 10
-2 18 -12 18 -23z m145 -570 l0 -505 -620 0 -620 0 0 505 0 505 620 0 620 0 0
-505z"/>
<path d="M2466 4164 c-3 -8 -6 -213 -6 -454 0 -357 3 -440 14 -449 9 -8 169
-10 577 -9 l564 3 0 460 0 460 -571 3 c-515 2 -572 1 -578 -14z m234 -119 l0
-95 -95 0 -95 0 0 95 0 95 95 0 95 0 0 -95z m220 0 l0 -95 -100 0 -100 0 0 95
0 95 100 0 100 0 0 -95z m450 0 l0 -95 -100 0 -100 0 0 95 0 95 100 0 100 0 0
-95z m210 0 l0 -95 -95 0 -95 0 0 88 c0 49 3 92 7 95 3 4 46 7 95 7 l88 0 0
-95z m-527 78 l-92 -4 -4 -82 -3 -82 -2 88 -2 87 98 -2 97 -2 -92 -3z m-355
-300 l-3 -98 -92 -3 -93 -3 0 101 0 100 95 0 96 0 -3 -97z m220 0 l-3 -98 -95
0 -95 0 -3 98 -3 97 101 0 101 0 -3 -97z m224 7 c2 -50 2 -95 0 -100 -2 -6
-45 -10 -98 -10 l-94 0 0 100 0 100 94 0 95 0 3 -90z m226 -7 l-3 -98 -97 -3
-98 -3 0 101 0 100 100 0 101 0 -3 -97z m210 0 l-3 -98 -90 0 -90 0 -3 98 -3
97 96 0 96 0 -3 -97z m-878 -223 l0 -100 -95 0 -95 0 0 100 0 100 95 0 95 0 0
-100z m442 4 c2 -53 1 -98 -1 -100 -2 -2 -46 -4 -98 -4 l-93 0 0 100 0 100 94
0 95 0 3 -96z m228 -4 l0 -100 -100 0 -100 0 0 100 0 100 100 0 100 0 0 -100z
m210 0 l0 -100 -95 0 -95 0 0 93 c0 52 3 97 7 100 3 4 46 7 95 7 l88 0 0 -100z
m-827 82 c-6 -4 -13 -30 -16 -57 l-3 -50 -2 58 c-2 48 1 57 16 57 11 0 13 -3
5 -8z m85 -169 c-16 -2 -40 -2 -55 0 -16 2 -3 4 27 4 30 0 43 -2 28 -4z m302
-47 c0 -3 0 -44 0 -91 l0 -85 -94 0 -95 0 -3 85 c-2 47 -2 89 -1 93 3 8 193 6
193 -2z m-442 -83 l-3 -88 -92 -3 -93 -3 0 91 0 90 95 0 96 0 -3 -87z m222 -3
l0 -91 -97 3 -98 3 -3 88 -3 87 101 0 100 0 0 -90z m450 5 l0 -85 -100 0 -100
0 0 85 0 85 100 0 100 0 0 -85z m208 -2 l-3 -88 -90 0 -90 0 -3 88 -3 87 96 0
96 0 -3 -87z"/>
<path d="M5770 4340 c0 -5 23 -10 50 -10 28 0 50 5 50 10 0 6 -22 10 -50 10
-27 0 -50 -4 -50 -10z"/>
<path d="M5950 4340 c0 -5 25 -10 55 -10 30 0 55 5 55 10 0 6 -25 10 -55 10
-30 0 -55 -4 -55 -10z"/>
<path d="M6135 4340 c-4 -6 10 -10 34 -10 23 0 41 5 41 10 0 6 -15 10 -34 10
-19 0 -38 -4 -41 -10z"/>
<path d="M4000 4196 l0 -93 31 -7 c17 -3 62 -6 100 -6 l69 0 0 69 c0 38 -3 83
-6 100 l-6 31 -94 0 -94 0 0 -94z m165 64 c5 -9 -30 -13 -107 -13 -15 0 -18
-9 -18 -63 0 -36 -4 -64 -10 -64 -11 0 -14 133 -3 143 10 11 131 8 138 -3z
m-18 -52 c-3 -8 -6 -5 -6 6 -1 11 2 17 5 13 3 -3 4 -12 1 -19z m-9 -75 c-15
-2 -42 -2 -60 0 -18 2 -6 4 27 4 33 0 48 -2 33 -4z"/>
<path d="M7950 3935 l-31 -55 31 -55 31 -55 64 0 63 0 31 56 32 55 -31 55 -31
54 -64 0 -64 0 -31 -55z m169 -15 l22 -40 -25 -42 c-25 -43 -25 -43 -76 -40
-47 4 -52 6 -71 43 l-19 39 20 40 c20 39 22 40 73 40 52 0 54 -1 76 -40z"/>
<path d="M7054 3820 c-12 -5 -28 -17 -36 -28 -10 -15 -32 -22 -87 -29 -70 -9
-75 -9 -102 14 -35 30 -49 23 -49 -23 0 -38 -7 -41 -36 -19 -29 22 -34 18 -34
-26 0 -32 -7 -49 -35 -81 -19 -23 -42 -61 -51 -85 -16 -41 -19 -43 -56 -43
l-39 0 3 -82 3 -83 33 -5 c30 -4 36 -11 57 -65 26 -64 109 -153 173 -187 30
-16 32 -21 32 -68 l0 -50 34 0 c21 0 36 -6 40 -15 5 -13 20 -15 73 -13 l68 3
3 53 3 52 35 0 c33 0 34 -1 34 -40 0 -39 1 -40 35 -40 22 0 38 -6 41 -15 5
-11 23 -15 75 -15 l69 0 0 70 c0 70 0 70 38 93 52 34 120 110 145 165 18 39
22 65 22 158 0 95 2 109 13 93 27 -39 84 -15 68 27 -5 13 -9 14 -20 4 -12 -9
-17 -7 -26 10 -9 17 -18 21 -39 17 -23 -5 -30 -1 -46 30 -44 81 -174 163 -260
163 -24 0 -45 9 -68 30 -38 33 -80 44 -113 30z m88 -37 c10 -9 18 -27 18 -40
0 -22 -3 -23 -70 -23 -43 0 -70 4 -70 11 0 15 21 53 34 61 20 13 69 8 88 -9z
m-317 -33 c3 -5 1 -10 -4 -10 -6 0 -11 5 -11 10 0 6 2 10 4 10 3 0 8 -4 11
-10z m129 -35 c8 -21 266 -22 266 -1 0 20 69 3 133 -32 97 -53 149 -140 155
-264 4 -76 1 -92 -21 -141 -34 -74 -88 -131 -155 -164 -57 -28 -59 -28 -257
-28 -228 0 -254 6 -339 85 -61 56 -60 72 1 69 39 -3 48 0 51 14 3 15 -6 17
-62 17 l-65 0 -14 48 c-13 42 -17 47 -48 52 -33 5 -34 6 -34 50 0 47 -2 45 56
49 9 1 25 24 38 57 40 94 109 158 207 187 63 20 81 20 88 2z m-204 -9 c0 -3
-4 -8 -10 -11 -5 -3 -10 -1 -10 4 0 6 5 11 10 11 6 0 10 -2 10 -4z m559 -693
c-1 -27 -3 -39 -6 -28 -8 34 -23 41 -23 12 0 -28 -14 -37 -23 -14 -4 9 -8 8
-17 -3 -8 -12 -10 -6 -8 25 3 40 8 44 71 54 4 0 6 -20 6 -46z m-409 6 c0 -24
-4 -30 -17 -27 -11 2 -19 14 -21 31 -3 22 1 27 17 27 17 0 21 -6 21 -31z m110
6 c0 -8 -6 -14 -12 -12 -7 1 -14 -9 -16 -22 -3 -19 -6 -21 -13 -10 -8 12 -10
12 -19 -1 -7 -11 -10 -6 -10 23 0 36 1 37 35 37 24 0 35 -5 35 -15z m188 -7
c-5 -34 -38 -37 -38 -4 0 20 5 26 21 26 15 0 20 -5 17 -22z"/>
<path d="M6759 3561 c-20 -16 -22 -23 -14 -47 12 -35 48 -43 76 -18 24 22 24
39 -1 64 -25 25 -32 25 -61 1z m50 -20 c13 -23 -8 -45 -33 -35 -19 7 -21 25
-4 42 17 17 26 15 37 -7z"/>
<path d="M4280 3788 c0 -19 2 -20 10 -8 6 9 10 10 10 3 0 -6 -5 -15 -10 -18
-13 -8 -13 -1374 -1 -1389 5 -6 11 -27 13 -46 l3 -35 145 0 145 0 5 50 5 50
495 0 495 0 5 -50 5 -50 145 0 145 0 3 38 c2 20 7 37 13 37 5 0 9 278 9 720
l0 720 -119 0 c-93 0 -121 -3 -131 -15 -7 -8 -25 -15 -41 -15 -28 0 -29 -2
-29 -45 l0 -45 -500 0 -500 0 0 44 0 43 -52 8 c-41 6 -49 9 -33 15 12 5 -31 9
-107 9 -126 1 -128 1 -128 -21z m1458 5 c-10 -2 -28 -2 -40 0 -13 2 -5 4 17 4
22 1 32 -1 23 -4z m166 -2 c3 -4 -6 -6 -19 -3 -14 2 -25 6 -25 8 0 8 39 4 44
-5z m-1344 -76 c0 -16 -6 -25 -15 -25 -15 0 -21 31 -8 43 13 14 23 6 23 -18z
m1111 -3 c7 -18 5 -22 -11 -22 -15 0 -20 7 -20 26 0 30 19 28 31 -4z m-1278
11 c-7 -2 -19 -2 -25 0 -7 3 -2 5 12 5 14 0 19 -2 13 -5z m100 0 c-20 -8 -15
-21 10 -26 12 -2 2 -4 -23 -4 -25 0 -38 2 -30 5 8 3 19 11 23 18 4 8 13 14 20
13 9 0 9 -2 0 -6z m1230 0 c-7 -2 -21 -2 -30 0 -10 3 -4 5 12 5 17 0 24 -2 18
-5z m124 -35 c-3 -7 -5 -2 -5 12 0 14 2 19 5 13 2 -7 2 -19 0 -25z m-1447 8
c0 -3 -4 -8 -10 -11 -5 -3 -10 -1 -10 4 0 6 5 11 10 11 6 0 10 -2 10 -4z m-22
-1297 c14 0 14 -2 -3 -10 -13 -6 9 -8 68 -6 48 2 90 7 94 10 15 15 23 5 23
-28 l0 -35 -111 0 -111 0 6 31 c3 17 7 320 8 673 l3 641 2 -637 c3 -599 4
-638 21 -639z m1332 646 l0 -605 -605 0 -605 0 0 598 c0 329 3 602 7 605 3 4
276 7 605 7 l598 0 0 -605z m70 -30 c0 -383 -3 -585 -10 -585 -11 0 -15 1152
-3 1163 3 4 8 7 10 7 2 0 3 -263 3 -585z m67 393 c-3 -7 -5 -2 -5 12 0 14 2
19 5 13 2 -7 2 -19 0 -25z m-1420 -1014 c-3 -3 -12 -4 -19 -1 -8 3 -5 6 6 6
11 1 17 -2 13 -5z m1271 -5 c27 -1 27 -1 -3 -9 -20 -5 1 -8 68 -9 90 -1 97 -2
97 -21 0 -19 -7 -20 -110 -20 l-110 0 0 36 c0 29 3 35 16 30 9 -3 28 -7 42 -7z
m147 1 c-3 -5 -21 -9 -38 -9 l-32 2 35 7 c19 4 36 8 38 9 2 0 0 -3 -3 -9z"/>
<path d="M4642 3043 l3 -468 465 0 465 0 3 40 c2 22 10 44 18 48 21 12 20 187
-1 187 -13 0 -15 26 -15 174 0 145 2 175 15 180 22 8 22 186 0 186 -10 0 -15
15 -17 58 l-3 57 -468 3 -467 2 2 -467z m898 -3 l0 -430 -430 0 -430 0 0 430
0 430 430 0 430 0 0 -430z"/>
<path d="M5140 3305 c-4 -11 -15 -26 -23 -33 -8 -7 -21 -27 -28 -45 -7 -18
-18 -39 -26 -48 -11 -14 -11 -18 2 -29 8 -7 15 -20 15 -30 0 -9 14 -36 30 -58
17 -23 30 -46 30 -51 0 -5 45 -8 100 -7 55 0 100 5 99 9 0 4 11 21 25 37 13
17 28 40 31 52 4 13 13 30 21 38 11 13 9 25 -16 76 -15 33 -35 66 -44 73 -9 8
-16 19 -16 26 0 10 -24 13 -96 12 -88 -1 -97 -3 -104 -22z m94 -27 c5 -10 7
-10 12 0 9 19 31 14 37 -9 4 -15 12 -20 29 -17 19 2 23 -1 21 -19 -2 -15 3
-23 12 -23 17 0 20 -21 5 -36 -8 -8 -6 -15 4 -23 18 -15 10 -42 -10 -34 -10 4
-13 -1 -12 -18 3 -20 -1 -24 -20 -21 -17 1 -25 -4 -29 -18 -6 -22 -28 -27 -37
-7 -5 10 -7 10 -12 0 -9 -20 -31 -15 -37 8 -4 15 -11 20 -22 15 -24 -9 -38 3
-24 20 10 12 8 16 -9 21 -26 6 -26 7 -9 34 10 17 10 23 0 26 -18 6 -16 33 2
33 9 0 14 8 12 23 -2 17 3 22 20 20 14 -2 27 5 33 17 12 23 26 26 34 8z"/>
<path d="M5205 3239 c-52 -30 -62 -93 -20 -134 31 -32 75 -32 111 -1 35 29 39
86 8 116 -24 25 -73 34 -99 19z m77 -36 c10 -9 18 -27 18 -40 0 -26 -32 -63
-55 -63 -21 0 -65 45 -65 66 0 46 65 70 102 37z"/>
<path d="M4937 3113 c-4 -3 -7 -35 -7 -69 0 -60 -2 -64 -30 -79 -35 -18 -60
-62 -60 -104 0 -25 -8 -34 -55 -61 -30 -17 -55 -36 -55 -41 0 -22 33 -19 82 8
l53 29 35 -18 c39 -21 83 -17 111 8 15 14 21 12 67 -15 27 -17 57 -31 66 -31
33 0 11 34 -42 64 -48 28 -52 33 -52 67 0 40 -39 99 -66 99 -11 0 -14 16 -14
64 0 60 -16 97 -33 79z m55 -200 c18 -16 24 -59 10 -79 -4 -6 -17 -16 -30 -23
-30 -16 -73 4 -86 41 -21 60 57 105 106 61z"/>
<path d="M1982 3618 l3 -93 95 0 95 0 3 60 c2 33 0 75 -3 93 l-6 32 -95 0 -95
0 3 -92z m168 2 l0 -70 -70 0 -70 0 0 70 0 70 70 0 70 0 0 -70z"/>
<path d="M6035 3560 c-3 -5 0 -13 7 -15 26 -10 273 -1 271 10 -4 14 -269 19
-278 5z"/>
<path d="M6331 2998 c-14 -5 -30 -7 -37 -4 -11 4 -123 -28 -174 -51 -8 -3 -19
-5 -25 -4 -5 1 26 -32 70 -73 44 -40 83 -72 86 -70 4 2 14 -5 24 -16 30 -33
43 -24 55 38 7 31 18 85 25 120 7 34 10 64 6 66 -3 2 -17 0 -30 -6z m-11 -109
c-10 -44 -20 -82 -22 -85 -3 -2 -13 2 -23 10 -18 13 -19 18 -6 77 13 64 22 79
52 79 16 0 15 -7 -1 -81z m-57 45 c-7 -3 -9 -13 -6 -22 4 -14 3 -14 -5 -2 -12
16 -7 30 11 29 9 0 9 -2 0 -5z m-63 -24 c0 -5 -2 -10 -4 -10 -3 0 -8 5 -11 10
-3 6 -1 10 4 10 6 0 11 -4 11 -10z m27 -20 c-2 -23 -10 -17 -12 10 -1 10 2 17
6 14 4 -2 7 -13 6 -24z"/>
<path d="M3485 2960 c-3 -6 0 -12 7 -15 26 -10 453 0 451 10 -4 14 -449 19
-458 5z"/>
<path d="M2960 2870 c0 -19 7 -20 220 -20 213 0 220 1 220 20 0 19 -7 20 -220
20 -213 0 -220 -1 -220 -20z"/>
<path d="M3820 2795 c0 -13 22 -15 157 -13 114 2 157 6 161 16 3 9 -33 12
-157 12 -138 0 -161 -2 -161 -15z"/>
<path d="M6046 1743 c-12 -12 -6 -33 9 -33 8 0 15 6 15 14 0 17 -14 28 -24 19z"/>
<path d="M4088 1669 l2 -71 -28 32 c-24 26 -35 30 -68 29 -54 -3 -73 -15 -91
-56 -29 -71 6 -135 80 -148 31 -6 44 -3 68 14 l29 22 10 -23 c6 -16 9 24 9
125 1 81 -2 147 -6 147 -5 0 -7 -32 -5 -71z m-29 -53 c57 -55 25 -142 -55
-148 -27 -2 -85 22 -79 32 3 5 1 11 -5 15 -22 14 -8 86 23 120 21 22 84 12
116 -19z"/>
<path d="M4730 1702 c0 -23 -5 -42 -10 -42 -6 0 -5 -8 2 -20 7 -11 17 -20 22
-20 4 0 3 7 -4 15 -11 13 -8 14 19 9 20 -4 31 -3 31 5 0 6 -10 11 -23 11 -19
0 -23 6 -25 37 -4 52 -12 55 -12 5z"/>
<path d="M3431 1591 l1 -140 26 4 c38 4 39 5 15 15 -18 7 -22 18 -25 68 l-3
59 45 -5 c47 -4 75 -22 85 -53 4 -11 10 -17 15 -14 14 9 -2 46 -26 62 -24 15
-35 51 -12 37 7 -4 8 -3 4 4 -4 7 -3 12 1 12 5 0 10 13 11 29 3 40 -29 61 -91
61 l-48 0 2 -139z m99 113 c27 -5 29 -9 24 -32 -4 -15 -13 -34 -20 -43 -8 -9
-12 -18 -10 -20 2 -2 -14 -3 -37 -1 l-42 4 0 54 c0 61 -10 56 85 38z"/>
<path d="M4981 1590 c0 -77 4 -138 8 -136 4 3 6 52 4 110 -1 59 2 117 7 131 8
22 13 24 52 19 45 -6 83 -37 74 -61 -6 -15 10 -18 19 -3 4 6 1 17 -5 25 -7 8
-9 15 -4 15 5 1 -2 10 -15 20 -17 15 -38 20 -82 20 l-60 0 2 -140z"/>
<path d="M5214 1585 c0 -77 2 -107 3 -67 2 40 2 103 0 140 -2 37 -3 4 -3 -73z"/>
<path d="M3653 1644 c-3 -8 -3 -46 0 -82 5 -55 11 -71 32 -89 44 -38 106 -30
130 18 17 32 21 169 5 169 -6 0 -10 -31 -10 -74 0 -102 -19 -123 -102 -114
-25 2 -37 38 -39 117 -2 73 -5 83 -16 55z"/>
<path d="M4204 1635 c-18 -14 -35 -36 -38 -51 -8 -29 0 -64 14 -64 5 0 6 10 1
22 -10 28 19 80 54 96 56 26 125 -19 125 -80 0 -40 -48 -88 -88 -88 -16 0 -41
10 -56 21 -15 12 -30 18 -34 14 -4 -4 4 -15 17 -26 32 -26 104 -26 130 0 36
36 43 -12 10 -65 -15 -24 -16 -32 -6 -28 27 10 40 53 40 134 0 67 -3 84 -20
99 -51 48 -102 53 -149 16z"/>
<path d="M4360 1645 c0 -8 2 -15 4 -15 2 0 6 7 10 15 3 8 1 15 -4 15 -6 0 -10
-7 -10 -15z"/>
<path d="M4505 1650 c-4 -6 6 -7 24 -4 26 6 36 1 68 -32 l38 -39 -89 -3 c-49
-2 -91 -1 -93 2 -3 3 5 19 17 36 12 17 21 33 19 35 -5 4 -36 -17 -37 -25 0 -3
-6 -18 -12 -34 -6 -16 -8 -37 -4 -45 4 -9 8 -23 10 -31 2 -8 15 -25 29 -37 31
-27 102 -32 111 -8 4 8 10 13 14 10 10 -6 35 23 27 32 -4 3 -17 -5 -29 -18
-45 -48 -105 -35 -138 31 l-20 40 100 0 c93 0 100 1 100 20 0 11 -5 20 -11 20
-5 0 -8 4 -5 9 7 11 -28 43 -37 34 -4 -3 -7 -1 -7 5 0 15 -66 16 -75 2z"/>
<path d="M5335 1650 c-11 -5 -15 -9 -10 -10 6 -1 0 -5 -12 -10 -25 -10 -39
-64 -29 -105 10 -39 22 -29 18 15 -7 73 48 122 113 100 42 -14 58 -47 59 -119
2 -106 16 -78 16 32 0 72 -4 107 -11 107 -7 0 -9 -10 -5 -26 l7 -27 -31 27
c-32 27 -76 33 -115 16z"/>
<path d="M5561 1555 c-1 -67 2 -105 9 -105 6 0 10 28 10 71 0 65 2 73 29 100
35 34 59 37 89 9 19 -18 22 -31 22 -101 0 -57 3 -78 11 -73 19 11 6 160 -16
184 -25 28 -76 26 -113 -5 l-29 -24 5 24 c2 14 0 25 -6 25 -6 0 -10 -42 -11
-105z"/>
<path d="M5850 1638 c-18 -19 -22 -20 -30 -8 -6 10 -9 -19 -8 -85 l1 -100 7
71 c3 39 13 83 22 97 24 35 65 43 97 19 24 -18 26 -24 24 -96 -1 -42 3 -76 8
-76 5 0 9 36 9 80 0 67 -3 83 -20 100 -28 28 -83 27 -110 -2z"/>
<path d="M6130 1555 c0 -70 4 -105 11 -105 8 0 10 26 8 79 -2 44 -1 78 2 76 3
-2 13 5 22 15 9 11 29 23 43 26 22 6 32 2 51 -20 20 -23 23 -39 24 -104 0 -52
3 -71 9 -57 12 28 12 99 -1 132 -6 15 -10 29 -9 31 0 1 -6 9 -14 17 -21 21
-69 18 -100 -6 l-26 -20 0 20 c0 12 -4 21 -10 21 -6 0 -10 -42 -10 -105z"/>
<path d="M6430 1650 c0 -7 -3 -10 -7 -7 -7 7 -33 -11 -33 -23 0 -4 19 2 41 13
42 20 42 20 78 1 27 -14 38 -28 45 -55 9 -38 7 -48 -21 -89 -9 -14 -11 -19 -3
-12 24 21 33 13 27 -23 -7 -45 -25 -62 -69 -69 -28 -4 -44 0 -73 20 -21 14
-39 23 -42 20 -8 -8 37 -47 47 -41 6 4 10 1 10 -5 0 -7 15 -9 43 -6 23 3 45 5
49 5 4 1 16 11 27 22 16 17 20 36 21 93 0 39 1 88 3 109 1 20 -1 37 -5 37 -5
0 -8 -5 -8 -12 0 -6 -8 -4 -20 7 -24 22 -110 34 -110 15z"/>
<path d="M6054 1545 c0 -55 1 -76 3 -47 2 29 2 74 0 100 -2 26 -3 2 -3 -53z"/>
<path d="M5097 1615 c-8 -6 -33 -10 -56 -8 -23 1 -41 -2 -41 -8 0 -17 96 -10
120 9 17 13 19 19 8 19 -9 0 -22 -5 -31 -12z"/>
<path d="M4733 1530 c0 -47 2 -66 4 -42 2 23 2 61 0 85 -2 23 -4 4 -4 -43z"/>
<path d="M6367 1586 c-8 -21 2 -69 16 -78 7 -4 8 -8 4 -8 -11 0 14 -26 28 -28
60 -11 95 -13 95 -4 0 5 -11 7 -25 4 -60 -11 -113 40 -102 97 7 31 -6 43 -16
17z"/>
<path d="M3570 1500 c-8 -5 -11 -10 -6 -10 5 0 2 -8 -5 -17 -9 -11 -10 -14 -2
-9 12 6 38 46 31 46 -2 0 -10 -5 -18 -10z"/>
<path d="M5444 1489 c-27 -26 -98 -29 -116 -4 -4 5 -10 6 -15 2 -9 -9 17 -28
29 -21 4 3 8 0 8 -5 0 -14 55 -14 80 -1 11 6 24 19 30 30 14 25 10 25 -16 -1z"/>
<path d="M3520 1469 c0 -5 5 -7 10 -4 6 3 10 8 10 11 0 2 -4 4 -10 4 -5 0 -10
-5 -10 -11z"/>
<path d="M4170 1420 c0 -31 119 -66 135 -40 4 6 -9 10 -33 10 -24 0 -49 8 -65
20 -28 22 -37 25 -37 10z"/>
<path d="M0 400 l0 -400 5000 0 5000 0 0 400 0 400 -5000 0 -5000 0 0 -400z
m2192 123 c23 -20 23 -57 1 -74 -15 -11 -16 -11 -5 1 27 31 11 72 -33 83 -19
4 -19 5 -1 6 11 0 28 -6 38 -16z m-69 -8 c-3 -9 -8 -14 -10 -11 -3 3 -2 9 2
15 9 16 15 13 8 -4z m-1760 -114 c22 -61 43 -108 47 -104 4 4 24 56 45 116 21
59 42 107 47 107 11 0 9 -8 -42 -150 -23 -64 -43 -106 -53 -108 -15 -3 -17 0
-67 143 -15 44 -31 88 -36 99 -5 13 -3 17 6 14 8 -2 32 -55 53 -117z m517 89
c0 -23 4 -30 20 -30 11 0 20 -4 20 -10 0 -5 -10 -10 -21 -10 -20 0 -21 -4 -17
-71 3 -55 8 -74 23 -85 23 -17 14 -29 -13 -15 -11 6 -22 25 -26 42 -10 51 -7
209 4 209 6 0 10 -13 10 -30z m515 16 c25 -11 33 -19 29 -30 -7 -19 -14 -20
-38 -1 -24 18 -56 19 -80 2 -28 -21 -9 -45 49 -62 87 -25 108 -74 54 -127 -29
-29 -33 -30 -90 -25 -68 6 -72 8 -63 30 4 12 11 13 35 5 72 -25 139 23 89 64
-12 10 -30 18 -39 18 -9 0 -31 9 -48 20 -25 15 -33 27 -33 47 1 64 60 90 135
59z m105 -16 c0 -25 4 -30 25 -30 16 0 25 -6 25 -15 0 -9 -9 -15 -25 -15 -25
0 -26 -1 -23 -62 3 -54 6 -64 26 -73 12 -5 22 -13 22 -18 0 -17 -31 -18 -55
-3 -24 16 -25 20 -25 131 0 96 3 115 15 115 10 0 15 -10 15 -30z m482 -32 l3
-62 36 32 c20 18 45 32 55 32 14 0 9 -9 -21 -40 l-38 -39 42 -61 c40 -57 41
-60 19 -60 -16 0 -32 13 -53 45 -16 24 -33 45 -37 45 -5 0 -8 -20 -8 -45 0
-38 -3 -45 -20 -45 -19 0 -20 7 -20 130 0 122 1 130 20 130 16 0 19 -8 22 -62z
m193 30 c1 -20 -2 -24 -11 -17 -8 7 -14 6 -17 -3 -3 -7 -6 2 -6 20 -1 27 3 33
17 30 11 -2 17 -13 17 -30z m-1546 -54 c12 -15 21 -40 21 -55 0 -29 0 -29 -65
-29 -71 0 -78 -7 -49 -49 15 -20 23 -23 65 -19 48 5 65 -4 33 -16 -69 -27
-134 19 -134 95 0 87 82 133 129 73z m191 16 c17 -11 10 -13 -40 -10 -47 2
-75 -28 -75 -80 0 -55 26 -80 82 -80 27 0 42 -4 38 -10 -8 -13 -71 -13 -96 0
-53 29 -61 119 -14 166 25 25 77 32 105 14z m271 -19 c23 -23 29 -38 29 -71 0
-53 -42 -100 -90 -100 -48 0 -90 47 -90 100 0 53 42 100 90 100 22 0 41 -9 61
-29z m79 13 c0 -14 2 -14 22 0 24 17 38 20 38 9 0 -5 -14 -16 -30 -25 -29 -17
-30 -19 -30 -93 0 -43 -4 -75 -10 -75 -6 0 -10 40 -10 100 0 60 4 100 10 100
6 0 10 -7 10 -16z m538 1 c44 -32 45 -132 1 -167 -26 -22 -77 -23 -106 -3 -30
21 -44 75 -32 120 17 60 86 85 137 50z m197 -5 c0 -10 -8 -14 -27 -12 -58 6
-91 -42 -67 -100 11 -28 36 -40 74 -35 12 1 20 -4 20 -13 0 -10 -12 -16 -38
-18 -73 -6 -120 77 -86 152 14 31 45 46 89 43 24 -1 35 -7 35 -17z m5364 -83
c8 -26 17 -47 21 -47 4 0 13 21 21 47 8 25 20 48 26 50 13 5 -22 -113 -38
-131 -12 -14 -18 -5 -45 69 -16 44 -20 65 -12 63 7 -3 19 -26 27 -51z m638 38
c2 -6 -9 -11 -23 -10 -39 0 -42 -23 -5 -36 34 -12 49 -43 31 -64 -13 -16 -38
-19 -64 -9 -27 10 -18 22 17 20 38 -1 43 19 8 37 -36 18 -48 42 -31 62 14 17
61 17 67 0z m333 -20 c0 -35 16 -47 26 -20 4 8 13 15 22 15 13 0 13 -3 -2 -19
-16 -18 -16 -21 -1 -50 19 -38 8 -40 -22 -3 l-22 27 -1 -27 c0 -16 -4 -28 -10
-28 -6 0 -10 30 -10 70 0 40 4 70 10 70 6 0 10 -16 10 -35z m580 32 c0 -4 -34
-104 -45 -136 -3 -8 -8 -11 -11 -8 -8 7 38 147 48 147 4 0 8 -2 8 -3z m70 -57
c0 -33 4 -60 10 -60 6 0 10 -4 10 -10 0 -5 -13 -10 -30 -10 -16 0 -30 5 -30
10 0 6 5 10 10 10 6 0 10 20 10 45 0 38 -2 43 -17 38 -16 -6 -16 -4 1 15 29
34 36 27 36 -38z m122 8 c2 -29 2 -61 0 -70 -5 -22 -22 -24 -22 -3 0 10 -10
15 -30 15 -16 0 -30 4 -30 8 0 14 59 102 69 102 5 0 11 -24 13 -52z m128 47
c0 -6 -60 -127 -66 -134 -2 -2 -7 -2 -10 1 -3 3 6 29 20 57 14 28 26 53 26 56
0 3 -13 5 -30 5 -16 0 -30 5 -30 10 0 6 20 10 45 10 25 0 45 -2 45 -5z m90 -5
c0 -5 -11 -10 -25 -10 -32 0 -32 -16 -1 -24 27 -7 41 -35 31 -65 -7 -23 -37
-35 -65 -26 -31 10 -24 23 13 21 28 -1 32 2 32 24 0 21 -4 25 -30 24 -29 -1
-30 0 -27 32 4 31 7 34 38 34 19 0 34 -4 34 -10z m107 -2 c14 -23 12 -106 -2
-118 -33 -27 -86 8 -70 46 4 11 7 27 6 37 -5 38 47 64 66 35z m127 -10 c21
-29 20 -77 -1 -100 -36 -40 -83 -10 -83 52 0 64 52 94 84 48z m120 0 c44 -63
-17 -154 -68 -102 -9 9 -16 32 -16 54 0 64 52 94 84 48z m108 5 c39 -35 8
-122 -44 -123 -10 0 -18 5 -18 10 0 6 9 10 20 10 10 0 24 9 31 21 9 18 8 20
-9 15 -38 -12 -68 44 -40 72 17 17 38 15 60 -5z m-2081 -41 c-15 -5 -14 -59 2
-65 6 -2 9 -7 6 -11 -15 -17 -37 8 -41 47 -6 59 0 72 24 50 11 -10 15 -19 9
-21z m359 13 c9 -10 9 -15 1 -15 -15 0 -14 -57 2 -63 6 -2 9 -7 6 -11 -15 -17
-37 8 -41 47 -7 58 5 74 32 42z m-532 -7 c23 -23 13 -38 -24 -38 -45 0 -42
-24 4 -28 36 -4 34 -22 -3 -22 -30 0 -55 25 -55 54 0 28 18 46 45 46 12 0 26
-5 33 -12z m109 5 c14 -6 10 -9 -17 -13 -29 -4 -35 -9 -35 -30 0 -21 5 -26 33
-28 36 -4 34 -22 -3 -22 -28 0 -55 24 -55 50 0 22 25 50 45 50 7 0 22 -3 32
-7z m177 -9 c31 -30 9 -84 -34 -84 -24 0 -50 26 -50 50 0 24 26 50 50 50 10 0
26 -7 34 -16z m86 6 c0 -4 -7 -10 -15 -14 -9 -3 -15 -19 -15 -41 0 -19 -4 -35
-10 -35 -5 0 -10 22 -10 49 0 45 2 49 25 49 14 0 25 -4 25 -8z m274 -6 c21
-20 20 -43 -1 -66 -20 -22 -46 -23 -67 -2 -31 30 -9 84 34 84 10 0 26 -7 34
-16z m121 7 c3 -5 -9 -11 -27 -13 -28 -2 -33 -7 -33 -28 0 -21 5 -26 33 -28
36 -4 34 -22 -3 -22 -28 0 -55 24 -55 50 0 37 67 69 85 41z m242 2 c14 -6 10
-9 -17 -13 -29 -4 -35 -9 -35 -30 0 -21 5 -26 33 -28 36 -4 34 -22 -3 -22 -28
0 -55 24 -55 50 0 22 25 50 45 50 7 0 22 -3 32 -7z m107 -9 c21 -20 20 -43 -1
-66 -20 -22 -46 -23 -67 -2 -31 30 -9 84 34 84 10 0 26 -7 34 -16z m116 4 c0
-9 3 -9 12 0 17 17 45 15 52 -4 10 -25 7 -84 -4 -84 -5 0 -10 18 -10 41 0 33
-3 40 -17 37 -13 -2 -19 -14 -21 -41 -4 -50 -22 -47 -22 4 0 36 -2 40 -22 37
-19 -2 -24 -10 -26 -40 -5 -55 -22 -46 -22 10 l0 49 40 1 c25 1 40 -3 40 -10z
m-330 -78 c0 -5 -4 -10 -10 -10 -5 0 -10 5 -10 10 0 6 5 10 10 10 6 0 10 -4
10 -10z"/>
<path d="M2150 500 c0 -5 5 -10 10 -10 6 0 10 5 10 10 0 6 -4 10 -10 10 -5 0
-10 -4 -10 -10z"/>
<path d="M536 418 c-28 -39 -21 -48 39 -48 48 0 55 3 55 19 0 48 -67 68 -94
29z"/>
<path d="M986 424 c-50 -50 -21 -144 44 -144 48 0 80 50 66 104 -13 53 -75 75
-110 40z"/>
<path d="M1616 408 c-32 -46 -8 -118 39 -118 28 0 55 34 55 70 0 36 -27 70
-55 70 -13 0 -31 -10 -39 -22z"/>
<path d="M8967 350 c-18 -29 -18 -30 2 -30 17 0 21 6 21 30 0 17 -1 30 -3 30
-1 0 -11 -13 -20 -30z"/>
<path d="M9292 374 c2 -11 11 -20 22 -22 13 -3 17 1 14 14 -2 11 -11 20 -22
22 -13 3 -17 -1 -14 -14z"/>
<path d="M9284 325 c-8 -21 10 -39 30 -32 22 9 20 24 -4 37 -16 9 -22 8 -26
-5z"/>
<path d="M9404 365 c-9 -38 3 -75 26 -75 23 0 35 37 26 75 -4 16 -13 25 -26
25 -13 0 -22 -9 -26 -25z"/>
<path d="M9524 365 c-9 -38 3 -75 26 -75 23 0 35 37 26 75 -4 16 -13 25 -26
25 -13 0 -22 -9 -26 -25z"/>
<path d="M9644 375 c-4 -9 -2 -21 4 -27 15 -15 44 -1 40 19 -4 23 -36 29 -44
8z"/>
<path d="M7385 340 c-4 -6 5 -10 19 -10 14 0 26 5 26 10 0 6 -9 10 -19 10 -11
0 -23 -4 -26 -10z"/>
<path d="M7664 336 c-10 -26 4 -48 28 -44 17 2 23 10 23 28 0 18 -6 26 -23 28
-13 2 -25 -3 -28 -12z"/>
<path d="M8024 336 c-10 -26 4 -48 28 -44 17 2 23 10 23 28 0 18 -6 26 -23 28
-13 2 -25 -3 -28 -12z"/>
<path d="M8494 336 c-10 -26 4 -48 28 -44 17 2 23 10 23 28 0 18 -6 26 -23 28
-13 2 -25 -3 -28 -12z"/>
</g>
</svg>
